<svg width="533" height="604" viewBox="0 0 533 604" fill="none" xmlns="http://www.w3.org/2000/svg">
<g filter="url(#filter0_d)">
<g clip-path="url(#clip0)">
<path d="M264.317 495.331C402.765 495.331 514.999 385.119 514.999 249.165C514.999 113.212 402.765 3 264.317 3C125.869 3 13.6344 113.212 13.6344 249.165C13.6344 385.119 125.869 495.331 264.317 495.331Z" fill="#3C2B64"/>
<path d="M310.017 346.895H263.177L244.557 299.328H159.315L141.714 346.895H96.0395L179.1 137.487H224.629L310.017 346.895ZM230.739 264.046L201.356 186.339L172.553 264.046H230.739Z" fill="#A87EB7"/>
<path d="M407.13 298.616L447.86 305.33C442.623 319.996 434.354 331.162 423.058 338.826C411.759 346.494 397.624 350.326 380.655 350.326C353.792 350.326 333.911 341.708 321.015 324.471C310.832 310.665 305.741 293.237 305.741 272.19C305.741 247.05 312.433 227.363 325.815 213.125C339.198 198.89 356.12 191.769 376.581 191.769C399.566 191.769 417.698 199.221 430.985 214.124C444.27 229.028 450.623 251.859 450.04 282.618H347.635C347.926 294.523 351.222 303.784 357.526 310.4C363.829 317.02 371.683 320.328 381.091 320.328C387.491 320.328 392.874 318.614 397.237 315.185C401.601 311.755 404.897 306.235 407.13 298.616ZM409.458 258.049C409.167 246.432 406.112 237.6 400.293 231.551C394.475 225.505 387.395 222.481 379.056 222.481C370.132 222.481 362.764 225.672 356.945 232.051C351.127 238.432 348.264 247.098 348.363 258.048H409.458V258.049V258.049Z" fill="#A87EB7"/>
</g>
<path d="M26.4711 569.15C29.6817 569.15 32.1183 568.978 33.781 568.634V557.111C33.2076 556.939 32.3763 556.767 31.287 556.595C30.1977 556.423 28.9937 556.337 27.6751 556.337C26.5284 556.337 25.3531 556.423 24.1491 556.595C23.0025 556.767 21.9419 557.082 20.9672 557.541C20.0499 557.999 19.3046 558.659 18.7312 559.519C18.1579 560.321 17.8713 561.353 17.8713 562.614C17.8713 565.08 18.6452 566.8 20.1932 567.774C21.7412 568.692 23.8338 569.15 26.4711 569.15ZM25.6111 530.365C29.0511 530.365 31.9463 530.795 34.297 531.655C36.6476 532.515 38.5109 533.719 39.8869 535.267C41.3202 536.815 42.3235 538.707 42.8968 540.943C43.5275 543.121 43.8428 545.529 43.8428 548.167V575.428C42.2375 575.772 39.8009 576.174 36.5329 576.632C33.3223 577.148 29.6817 577.406 25.6111 577.406C22.9165 577.406 20.4512 577.148 18.2153 576.632C15.9793 576.116 14.0587 575.285 12.4534 574.138C10.9054 572.992 9.67274 571.501 8.75543 569.666C7.89544 567.832 7.46545 565.567 7.46545 562.872C7.46545 560.292 7.95277 558.114 8.92742 556.337C9.9594 554.559 11.3354 553.126 13.0553 552.037C14.7753 550.89 16.7533 550.087 18.9892 549.629C21.2825 549.113 23.6618 548.855 26.1271 548.855C27.2738 548.855 28.4777 548.941 29.739 549.113C31.0004 549.227 32.3477 549.457 33.781 549.801V548.081C33.781 546.877 33.6376 545.73 33.351 544.641C33.0643 543.551 32.5483 542.605 31.803 541.803C31.115 540.943 30.169 540.284 28.9651 539.825C27.8184 539.366 26.3564 539.137 24.5791 539.137C22.1712 539.137 19.9639 539.309 17.9573 539.653C15.9506 539.997 14.3167 540.398 13.0553 540.857L11.7654 532.429C13.084 531.97 15.0046 531.512 17.5273 531.053C20.0499 530.594 22.7445 530.365 25.6111 530.365ZM74.9037 509.725C77.3116 509.725 79.4329 509.955 81.2676 510.413C83.1022 510.815 84.4782 511.187 85.3955 511.531L83.4175 520.131C82.4429 519.673 81.2962 519.3 79.9776 519.013C78.7163 518.727 77.3403 518.583 75.8497 518.583C74.187 518.583 72.7824 518.841 71.6357 519.357C70.4891 519.816 69.5718 520.475 68.8838 521.335C68.1958 522.195 67.7085 523.256 67.4218 524.517C67.1351 525.721 66.9918 527.04 66.9918 528.473V531.483H83.3315V540.169H66.9918V576.46H56.586V528.301C56.586 522.511 58.1053 517.981 61.1439 514.713C64.1825 511.388 68.7691 509.725 74.9037 509.725ZM90.503 519.615L100.909 517.895V531.483H116.905V540.169H100.909V558.487C100.909 562.098 101.482 564.678 102.629 566.226C103.775 567.774 105.725 568.548 108.477 568.548C110.369 568.548 112.031 568.348 113.465 567.946C114.955 567.545 116.131 567.172 116.99 566.828L118.71 575.084C117.506 575.6 115.93 576.116 113.981 576.632C112.031 577.206 109.738 577.492 107.101 577.492C103.89 577.492 101.195 577.062 99.0168 576.202C96.8955 575.342 95.2042 574.11 93.9429 572.504C92.6816 570.842 91.793 568.864 91.277 566.57C90.761 564.22 90.503 561.554 90.503 558.573V519.615ZM123.714 554.187C123.714 550.231 124.287 546.762 125.434 543.781C126.638 540.8 128.214 538.334 130.164 536.385C132.113 534.378 134.349 532.888 136.872 531.913C139.394 530.881 141.974 530.365 144.611 530.365C150.803 530.365 155.619 532.286 159.059 536.127C162.556 539.968 164.305 545.701 164.305 553.327C164.305 553.9 164.276 554.559 164.219 555.305C164.219 555.993 164.19 556.623 164.133 557.197H134.464C134.75 560.808 136.012 563.618 138.248 565.624C140.541 567.574 143.837 568.548 148.137 568.548C150.66 568.548 152.953 568.319 155.017 567.86C157.139 567.402 158.801 566.914 160.005 566.398L161.381 574.912C160.808 575.199 160.005 575.514 158.973 575.858C157.999 576.145 156.852 576.403 155.533 576.632C154.272 576.919 152.896 577.148 151.405 577.32C149.915 577.492 148.395 577.578 146.847 577.578C142.891 577.578 139.452 577.005 136.528 575.858C133.604 574.654 131.196 573.02 129.304 570.956C127.412 568.835 126.007 566.37 125.09 563.56C124.172 560.694 123.714 557.569 123.714 554.187ZM153.899 549.543C153.899 548.109 153.699 546.762 153.297 545.501C152.896 544.182 152.294 543.064 151.491 542.147C150.746 541.172 149.8 540.427 148.653 539.911C147.564 539.338 146.245 539.051 144.697 539.051C143.092 539.051 141.687 539.366 140.484 539.997C139.28 540.57 138.248 541.344 137.388 542.319C136.585 543.293 135.954 544.411 135.496 545.673C135.037 546.934 134.722 548.224 134.55 549.543H153.899ZM200.965 540.857C200.105 540.57 198.901 540.284 197.353 539.997C195.863 539.653 194.114 539.481 192.107 539.481C190.961 539.481 189.728 539.596 188.41 539.825C187.148 540.054 186.26 540.255 185.744 540.427V576.46H175.338V533.633C177.344 532.888 179.838 532.2 182.82 531.569C185.858 530.881 189.212 530.537 192.881 530.537C193.569 530.537 194.372 530.594 195.289 530.709C196.207 530.766 197.124 530.881 198.041 531.053C198.959 531.168 199.847 531.34 200.707 531.569C201.567 531.741 202.255 531.913 202.771 532.085L200.965 540.857ZM203.401 583.684H246.4V592.37H203.401V583.684ZM250.528 554.187C250.528 550.231 251.101 546.762 252.248 543.781C253.452 540.8 255.029 538.334 256.978 536.385C258.927 534.378 261.163 532.888 263.686 531.913C266.208 530.881 268.788 530.365 271.426 530.365C277.617 530.365 282.433 532.286 285.873 536.127C289.371 539.968 291.119 545.701 291.119 553.327C291.119 553.9 291.091 554.559 291.033 555.305C291.033 555.993 291.005 556.623 290.947 557.197H261.278C261.564 560.808 262.826 563.618 265.062 565.624C267.355 567.574 270.652 568.548 274.951 568.548C277.474 568.548 279.767 568.319 281.831 567.86C283.953 567.402 285.615 566.914 286.819 566.398L288.195 574.912C287.622 575.199 286.819 575.514 285.787 575.858C284.813 576.145 283.666 576.403 282.347 576.632C281.086 576.919 279.71 577.148 278.219 577.32C276.729 577.492 275.209 577.578 273.661 577.578C269.706 577.578 266.266 577.005 263.342 575.858C260.418 574.654 258.01 573.02 256.118 570.956C254.226 568.835 252.821 566.37 251.904 563.56C250.987 560.694 250.528 557.569 250.528 554.187ZM280.713 549.543C280.713 548.109 280.513 546.762 280.111 545.501C279.71 544.182 279.108 543.064 278.305 542.147C277.56 541.172 276.614 540.427 275.467 539.911C274.378 539.338 273.06 539.051 271.512 539.051C269.906 539.051 268.502 539.366 267.298 539.997C266.094 540.57 265.062 541.344 264.202 542.319C263.399 543.293 262.768 544.411 262.31 545.673C261.851 546.934 261.536 548.224 261.364 549.543H280.713ZM355.213 509.725C357.621 509.725 359.742 509.955 361.577 510.413C363.411 510.815 364.787 511.187 365.705 511.531L363.727 520.131C362.752 519.673 361.605 519.3 360.287 519.013C359.025 518.727 357.65 518.583 356.159 518.583C354.496 518.583 353.092 518.841 351.945 519.357C350.798 519.816 349.881 520.475 349.193 521.335C348.505 522.195 348.018 523.256 347.731 524.517C347.444 525.721 347.301 527.04 347.301 528.473V531.483H363.641V540.169H347.301V576.46H336.895V528.301C336.895 522.511 338.415 517.981 341.453 514.713C344.492 511.388 349.078 509.725 355.213 509.725ZM320.47 509.725C322.877 509.725 324.999 509.955 326.833 510.413C328.668 510.815 330.044 511.187 330.961 511.531L328.983 520.131C328.009 519.673 326.862 519.3 325.543 519.013C324.282 518.727 322.906 518.583 321.415 518.583C319.753 518.583 318.348 518.841 317.202 519.357C316.055 519.816 315.138 520.475 314.45 521.335C313.762 522.195 313.274 523.256 312.988 524.517C312.701 525.721 312.558 527.04 312.558 528.473V531.483H328.897V540.169H312.558V576.46H302.152V528.301C302.152 522.511 303.671 517.981 306.71 514.713C309.748 511.388 314.335 509.725 320.47 509.725ZM367.936 554.187C367.936 550.231 368.509 546.762 369.656 543.781C370.86 540.8 372.436 538.334 374.386 536.385C376.335 534.378 378.571 532.888 381.094 531.913C383.616 530.881 386.196 530.365 388.834 530.365C395.025 530.365 399.841 532.286 403.281 536.127C406.779 539.968 408.527 545.701 408.527 553.327C408.527 553.9 408.499 554.559 408.441 555.305C408.441 555.993 408.413 556.623 408.355 557.197H378.686C378.972 560.808 380.234 563.618 382.47 565.624C384.763 567.574 388.06 568.548 392.359 568.548C394.882 568.548 397.175 568.319 399.239 567.86C401.361 567.402 403.023 566.914 404.227 566.398L405.603 574.912C405.03 575.199 404.227 575.514 403.195 575.858C402.221 576.145 401.074 576.403 399.755 576.632C398.494 576.919 397.118 577.148 395.627 577.32C394.137 577.492 392.617 577.578 391.069 577.578C387.114 577.578 383.674 577.005 380.75 575.858C377.826 574.654 375.418 573.02 373.526 570.956C371.634 568.835 370.229 566.37 369.312 563.56C368.395 560.694 367.936 557.569 367.936 554.187ZM398.121 549.543C398.121 548.109 397.921 546.762 397.519 545.501C397.118 544.182 396.516 543.064 395.713 542.147C394.968 541.172 394.022 540.427 392.875 539.911C391.786 539.338 390.467 539.051 388.92 539.051C387.314 539.051 385.91 539.366 384.706 539.997C383.502 540.57 382.47 541.344 381.61 542.319C380.807 543.293 380.176 544.411 379.718 545.673C379.259 546.934 378.944 548.224 378.772 549.543H398.121ZM417.066 554.015C417.066 550.689 417.582 547.593 418.614 544.727C419.646 541.803 421.108 539.28 423 537.159C424.949 535.038 427.3 533.375 430.052 532.171C432.804 530.967 435.9 530.365 439.339 530.365C443.582 530.365 447.595 531.139 451.379 532.687L449.143 541.201C447.939 540.685 446.563 540.255 445.015 539.911C443.525 539.567 441.919 539.395 440.199 539.395C436.129 539.395 433.033 540.685 430.912 543.265C428.79 545.787 427.73 549.371 427.73 554.015C427.73 558.487 428.733 562.041 430.74 564.678C432.746 567.258 436.129 568.548 440.887 568.548C442.665 568.548 444.413 568.376 446.133 568.032C447.853 567.688 449.344 567.258 450.605 566.742L452.067 575.342C450.921 575.916 449.172 576.432 446.821 576.89C444.528 577.349 442.149 577.578 439.683 577.578C435.842 577.578 432.488 577.005 429.622 575.858C426.812 574.654 424.462 573.02 422.57 570.956C420.735 568.835 419.359 566.341 418.442 563.474C417.525 560.55 417.066 557.397 417.066 554.015ZM459.608 519.615L470.013 517.895V531.483H486.009V540.169H470.013V558.487C470.013 562.098 470.587 564.678 471.733 566.226C472.88 567.774 474.829 568.548 477.581 568.548C479.473 568.548 481.136 568.348 482.569 567.946C484.06 567.545 485.235 567.172 486.095 566.828L487.815 575.084C486.611 575.6 485.034 576.116 483.085 576.632C481.136 577.206 478.843 577.492 476.205 577.492C472.995 577.492 470.3 577.062 468.121 576.202C466 575.342 464.309 574.11 463.048 572.504C461.786 570.842 460.898 568.864 460.382 566.57C459.866 564.22 459.608 561.554 459.608 558.573V519.615ZM507.334 568.978C510.086 568.978 512.093 568.663 513.354 568.032C514.615 567.344 515.246 566.198 515.246 564.592C515.246 563.102 514.558 561.869 513.182 560.894C511.863 559.92 509.656 558.859 506.56 557.713C504.668 557.025 502.919 556.308 501.314 555.563C499.766 554.76 498.419 553.843 497.272 552.811C496.126 551.779 495.208 550.546 494.52 549.113C493.89 547.622 493.574 545.816 493.574 543.695C493.574 539.567 495.094 536.328 498.132 533.977C501.171 531.569 505.299 530.365 510.516 530.365C513.153 530.365 515.676 530.623 518.084 531.139C520.492 531.598 522.298 532.056 523.502 532.515L521.61 540.943C520.463 540.427 519.001 539.968 517.224 539.567C515.447 539.108 513.383 538.879 511.032 538.879C508.911 538.879 507.191 539.252 505.872 539.997C504.553 540.685 503.894 541.774 503.894 543.265C503.894 544.01 504.009 544.669 504.238 545.243C504.525 545.816 504.983 546.361 505.614 546.877C506.245 547.335 507.076 547.823 508.108 548.339C509.14 548.797 510.401 549.285 511.892 549.801C514.357 550.718 516.45 551.635 518.17 552.553C519.89 553.413 521.294 554.416 522.384 555.563C523.53 556.652 524.362 557.913 524.878 559.347C525.394 560.78 525.652 562.5 525.652 564.506C525.652 568.806 524.046 572.074 520.836 574.31C517.682 576.489 513.153 577.578 507.248 577.578C503.292 577.578 500.11 577.234 497.702 576.546C495.294 575.916 493.603 575.4 492.628 574.998L494.434 566.312C495.982 566.943 497.817 567.545 499.938 568.118C502.117 568.692 504.582 568.978 507.334 568.978Z" fill="#323232"/>
</g>
<defs>
<filter id="filter0_d" x="0.465454" y="0" width="532.186" height="603.37" filterUnits="userSpaceOnUse" color-interpolation-filters="sRGB">
<feFlood flood-opacity="0" result="BackgroundImageFix"/>
<feColorMatrix in="SourceAlpha" type="matrix" values="0 0 0 0 0 0 0 0 0 0 0 0 0 0 0 0 0 0 127 0"/>
<feOffset dy="4"/>
<feGaussianBlur stdDeviation="3.5"/>
<feColorMatrix type="matrix" values="0 0 0 0 0.0583333 0 0 0 0 0.0583333 0 0 0 0 0.0583333 0 0 0 0.5 0"/>
<feBlend mode="normal" in2="BackgroundImageFix" result="effect1_dropShadow"/>
<feBlend mode="normal" in="SourceGraphic" in2="effect1_dropShadow" result="shape"/>
</filter>
<clipPath id="clip0">
<rect width="501.366" height="492.332" fill="white" transform="translate(13.6344 3)"/>
</clipPath>
</defs>
</svg>
