<svg width="305" height="271" viewBox="0 0 305 271" fill="none" xmlns="http://www.w3.org/2000/svg">
<g clip-path="url(#clip0)" filter="url(#filter0_d)">
<path d="M150.64 203.746C205.404 203.746 249.8 160.151 249.8 106.373C249.8 52.5954 205.404 9 150.64 9C95.8753 9 51.4799 52.5954 51.4799 106.373C51.4799 160.151 95.8753 203.746 150.64 203.746Z" fill="#3C2B64"/>
<path d="M168.717 145.031H150.189L142.824 126.215H109.105L102.143 145.031H84.0761L116.931 62.1975H134.941L168.717 145.031ZM137.358 112.259L125.735 81.5213L114.342 112.259H137.358Z" fill="#A87EB7"/>
<path d="M207.131 125.934L223.242 128.589C221.17 134.391 217.9 138.807 213.431 141.839C208.962 144.872 203.371 146.388 196.659 146.388C186.033 146.388 178.169 142.979 173.067 136.161C169.039 130.7 167.026 123.806 167.026 115.481C167.026 105.536 169.673 97.7488 174.966 92.1168C180.26 86.486 186.953 83.6694 195.047 83.6694C204.139 83.6694 211.311 86.6172 216.567 92.512C221.822 98.4076 224.335 107.438 224.105 119.605H183.597C183.712 124.315 185.016 127.978 187.51 130.595C190.003 133.214 193.11 134.522 196.831 134.522C199.363 134.522 201.492 133.844 203.218 132.488C204.944 131.131 206.248 128.947 207.131 125.934ZM208.052 109.887C207.937 105.292 206.728 101.798 204.427 99.4057C202.125 97.014 199.325 95.8177 196.026 95.8177C192.496 95.8177 189.581 97.0801 187.28 99.6031C184.978 102.127 183.846 105.555 183.885 109.886H208.052V109.887Z" fill="#A87EB7"/>
</g>
<g filter="url(#filter1_d)">
<path d="M18.528 246.92C20.32 246.92 21.68 246.824 22.608 246.632V240.2C22.288 240.104 21.824 240.008 21.216 239.912C20.608 239.816 19.936 239.768 19.2 239.768C18.56 239.768 17.904 239.816 17.232 239.912C16.592 240.008 16 240.184 15.456 240.44C14.944 240.696 14.528 241.064 14.208 241.544C13.888 241.992 13.728 242.568 13.728 243.272C13.728 244.648 14.16 245.608 15.024 246.152C15.888 246.664 17.056 246.92 18.528 246.92ZM18.048 225.272C19.968 225.272 21.584 225.512 22.896 225.992C24.208 226.472 25.248 227.144 26.016 228.008C26.816 228.872 27.376 229.928 27.696 231.176C28.048 232.392 28.224 233.736 28.224 235.208V250.424C27.328 250.616 25.968 250.84 24.144 251.096C22.352 251.384 20.32 251.528 18.048 251.528C16.544 251.528 15.168 251.384 13.92 251.096C12.672 250.808 11.6 250.344 10.704 249.704C9.84 249.064 9.152 248.232 8.64 247.208C8.16 246.184 7.92 244.92 7.92 243.416C7.92 241.976 8.192 240.76 8.736 239.768C9.312 238.776 10.08 237.976 11.04 237.368C12 236.728 13.104 236.28 14.352 236.024C15.632 235.736 16.96 235.592 18.336 235.592C18.976 235.592 19.648 235.64 20.352 235.736C21.056 235.8 21.808 235.928 22.608 236.12V235.16C22.608 234.488 22.528 233.848 22.368 233.24C22.208 232.632 21.92 232.104 21.504 231.656C21.12 231.176 20.592 230.808 19.92 230.552C19.28 230.296 18.464 230.168 17.472 230.168C16.128 230.168 14.896 230.264 13.776 230.456C12.656 230.648 11.744 230.872 11.04 231.128L10.32 226.424C11.056 226.168 12.128 225.912 13.536 225.656C14.944 225.4 16.448 225.272 18.048 225.272ZM45.5606 213.752C46.9046 213.752 48.0886 213.88 49.1126 214.136C50.1366 214.36 50.9046 214.568 51.4166 214.76L50.3126 219.56C49.7686 219.304 49.1286 219.096 48.3926 218.936C47.6886 218.776 46.9206 218.696 46.0886 218.696C45.1606 218.696 44.3766 218.84 43.7366 219.128C43.0966 219.384 42.5846 219.752 42.2006 220.232C41.8166 220.712 41.5446 221.304 41.3846 222.008C41.2246 222.68 41.1446 223.416 41.1446 224.216V225.896H50.2646V230.744H41.1446V251H35.3366V224.12C35.3366 220.888 36.1846 218.36 37.8806 216.536C39.5766 214.68 42.1366 213.752 45.5606 213.752ZM54.2674 219.272L60.0754 218.312V225.896H69.0034V230.744H60.0754V240.968C60.0754 242.984 60.3954 244.424 61.0354 245.288C61.6754 246.152 62.7634 246.584 64.2994 246.584C65.3554 246.584 66.2834 246.472 67.0834 246.248C67.9154 246.024 68.5714 245.816 69.0514 245.624L70.0114 250.232C69.3394 250.52 68.4594 250.808 67.3714 251.096C66.2834 251.416 65.0034 251.576 63.5314 251.576C61.7394 251.576 60.2354 251.336 59.0194 250.856C57.8354 250.376 56.8914 249.688 56.1874 248.792C55.4834 247.864 54.9874 246.76 54.6994 245.48C54.4114 244.168 54.2674 242.68 54.2674 241.016V219.272ZM72.804 238.568C72.804 236.36 73.124 234.424 73.764 232.76C74.436 231.096 75.316 229.72 76.404 228.632C77.492 227.512 78.74 226.68 80.148 226.136C81.556 225.56 82.996 225.272 84.468 225.272C87.924 225.272 90.612 226.344 92.532 228.488C94.484 230.632 95.46 233.832 95.46 238.088C95.46 238.408 95.444 238.776 95.412 239.192C95.412 239.576 95.396 239.928 95.364 240.248H78.804C78.964 242.264 79.668 243.832 80.916 244.952C82.196 246.04 84.036 246.584 86.436 246.584C87.844 246.584 89.124 246.456 90.276 246.2C91.46 245.944 92.388 245.672 93.06 245.384L93.828 250.136C93.508 250.296 93.06 250.472 92.484 250.664C91.94 250.824 91.3 250.968 90.564 251.096C89.86 251.256 89.092 251.384 88.26 251.48C87.428 251.576 86.58 251.624 85.716 251.624C83.508 251.624 81.588 251.304 79.956 250.664C78.324 249.992 76.98 249.08 75.924 247.928C74.868 246.744 74.084 245.368 73.572 243.8C73.06 242.2 72.804 240.456 72.804 238.568ZM89.652 235.976C89.652 235.176 89.54 234.424 89.316 233.72C89.092 232.984 88.756 232.36 88.308 231.848C87.892 231.304 87.364 230.888 86.724 230.6C86.116 230.28 85.38 230.12 84.516 230.12C83.62 230.12 82.836 230.296 82.164 230.648C81.492 230.968 80.916 231.4 80.436 231.944C79.988 232.488 79.636 233.112 79.38 233.816C79.124 234.52 78.948 235.24 78.852 235.976H89.652ZM115.922 231.128C115.442 230.968 114.77 230.808 113.906 230.648C113.074 230.456 112.098 230.36 110.978 230.36C110.338 230.36 109.65 230.424 108.914 230.552C108.21 230.68 107.714 230.792 107.426 230.888V251H101.618V227.096C102.738 226.68 104.13 226.296 105.794 225.944C107.49 225.56 109.362 225.368 111.41 225.368C111.794 225.368 112.242 225.4 112.754 225.464C113.266 225.496 113.778 225.56 114.29 225.656C114.802 225.72 115.298 225.816 115.778 225.944C116.258 226.04 116.642 226.136 116.93 226.232L115.922 231.128ZM117.281 255.032H141.281V259.88H117.281V255.032ZM143.585 238.568C143.585 236.36 143.905 234.424 144.545 232.76C145.217 231.096 146.097 229.72 147.185 228.632C148.273 227.512 149.521 226.68 150.929 226.136C152.337 225.56 153.777 225.272 155.249 225.272C158.705 225.272 161.393 226.344 163.313 228.488C165.265 230.632 166.241 233.832 166.241 238.088C166.241 238.408 166.225 238.776 166.193 239.192C166.193 239.576 166.177 239.928 166.145 240.248H149.585C149.745 242.264 150.449 243.832 151.697 244.952C152.977 246.04 154.817 246.584 157.217 246.584C158.625 246.584 159.905 246.456 161.057 246.2C162.241 245.944 163.169 245.672 163.841 245.384L164.609 250.136C164.289 250.296 163.841 250.472 163.265 250.664C162.721 250.824 162.081 250.968 161.345 251.096C160.641 251.256 159.873 251.384 159.041 251.48C158.209 251.576 157.361 251.624 156.497 251.624C154.289 251.624 152.369 251.304 150.737 250.664C149.105 249.992 147.761 249.08 146.705 247.928C145.649 246.744 144.865 245.368 144.353 243.8C143.841 242.2 143.585 240.456 143.585 238.568ZM160.433 235.976C160.433 235.176 160.321 234.424 160.097 233.72C159.873 232.984 159.537 232.36 159.089 231.848C158.673 231.304 158.145 230.888 157.505 230.6C156.897 230.28 156.161 230.12 155.297 230.12C154.401 230.12 153.617 230.296 152.945 230.648C152.273 230.968 151.697 231.4 151.217 231.944C150.769 232.488 150.417 233.112 150.161 233.816C149.905 234.52 149.729 235.24 149.633 235.976H160.433ZM202.015 213.752C203.359 213.752 204.543 213.88 205.567 214.136C206.591 214.36 207.359 214.568 207.871 214.76L206.767 219.56C206.223 219.304 205.583 219.096 204.847 218.936C204.143 218.776 203.375 218.696 202.543 218.696C201.615 218.696 200.831 218.84 200.191 219.128C199.551 219.384 199.039 219.752 198.655 220.232C198.271 220.712 197.999 221.304 197.839 222.008C197.679 222.68 197.599 223.416 197.599 224.216V225.896H206.719V230.744H197.599V251H191.791V224.12C191.791 220.888 192.639 218.36 194.335 216.536C196.031 214.68 198.591 213.752 202.015 213.752ZM182.623 213.752C183.967 213.752 185.151 213.88 186.175 214.136C187.199 214.36 187.967 214.568 188.479 214.76L187.375 219.56C186.831 219.304 186.191 219.096 185.455 218.936C184.751 218.776 183.983 218.696 183.151 218.696C182.223 218.696 181.439 218.84 180.799 219.128C180.159 219.384 179.647 219.752 179.263 220.232C178.879 220.712 178.607 221.304 178.447 222.008C178.287 222.68 178.207 223.416 178.207 224.216V225.896H187.327V230.744H178.207V251H172.399V224.12C172.399 220.888 173.247 218.36 174.943 216.536C176.639 214.68 179.199 213.752 182.623 213.752ZM209.117 238.568C209.117 236.36 209.437 234.424 210.077 232.76C210.749 231.096 211.629 229.72 212.717 228.632C213.805 227.512 215.053 226.68 216.461 226.136C217.869 225.56 219.309 225.272 220.781 225.272C224.237 225.272 226.925 226.344 228.845 228.488C230.797 230.632 231.773 233.832 231.773 238.088C231.773 238.408 231.757 238.776 231.725 239.192C231.725 239.576 231.709 239.928 231.677 240.248H215.117C215.277 242.264 215.981 243.832 217.229 244.952C218.509 246.04 220.349 246.584 222.749 246.584C224.157 246.584 225.437 246.456 226.589 246.2C227.773 245.944 228.701 245.672 229.373 245.384L230.141 250.136C229.821 250.296 229.373 250.472 228.797 250.664C228.253 250.824 227.613 250.968 226.877 251.096C226.173 251.256 225.405 251.384 224.573 251.48C223.741 251.576 222.893 251.624 222.029 251.624C219.821 251.624 217.901 251.304 216.269 250.664C214.637 249.992 213.293 249.08 212.237 247.928C211.181 246.744 210.397 245.368 209.885 243.8C209.373 242.2 209.117 240.456 209.117 238.568ZM225.965 235.976C225.965 235.176 225.853 234.424 225.629 233.72C225.405 232.984 225.069 232.36 224.621 231.848C224.205 231.304 223.677 230.888 223.037 230.6C222.429 230.28 221.693 230.12 220.829 230.12C219.933 230.12 219.149 230.296 218.477 230.648C217.805 230.968 217.229 231.4 216.749 231.944C216.301 232.488 215.949 233.112 215.693 233.816C215.437 234.52 215.261 235.24 215.165 235.976H225.965ZM236.538 238.472C236.538 236.616 236.826 234.888 237.402 233.288C237.978 231.656 238.794 230.248 239.85 229.064C240.938 227.88 242.25 226.952 243.786 226.28C245.322 225.608 247.05 225.272 248.97 225.272C251.338 225.272 253.578 225.704 255.69 226.568L254.442 231.32C253.77 231.032 253.002 230.792 252.138 230.6C251.306 230.408 250.41 230.312 249.45 230.312C247.178 230.312 245.45 231.032 244.266 232.472C243.082 233.88 242.49 235.88 242.49 238.472C242.49 240.968 243.05 242.952 244.17 244.424C245.29 245.864 247.178 246.584 249.834 246.584C250.826 246.584 251.802 246.488 252.762 246.296C253.722 246.104 254.554 245.864 255.258 245.576L256.074 250.376C255.434 250.696 254.458 250.984 253.146 251.24C251.866 251.496 250.538 251.624 249.162 251.624C247.018 251.624 245.146 251.304 243.546 250.664C241.978 249.992 240.666 249.08 239.61 247.928C238.586 246.744 237.818 245.352 237.306 243.752C236.794 242.12 236.538 240.36 236.538 238.472ZM260.283 219.272L266.091 218.312V225.896H275.019V230.744H266.091V240.968C266.091 242.984 266.411 244.424 267.051 245.288C267.691 246.152 268.779 246.584 270.315 246.584C271.371 246.584 272.299 246.472 273.099 246.248C273.931 246.024 274.587 245.816 275.067 245.624L276.027 250.232C275.355 250.52 274.475 250.808 273.387 251.096C272.299 251.416 271.019 251.576 269.547 251.576C267.755 251.576 266.251 251.336 265.035 250.856C263.851 250.376 262.907 249.688 262.203 248.792C261.499 247.864 261.003 246.76 260.715 245.48C260.427 244.168 260.283 242.68 260.283 241.016V219.272ZM286.922 246.824C288.458 246.824 289.578 246.648 290.282 246.296C290.986 245.912 291.338 245.272 291.338 244.376C291.338 243.544 290.954 242.856 290.186 242.312C289.45 241.768 288.218 241.176 286.49 240.536C285.434 240.152 284.458 239.752 283.562 239.336C282.698 238.888 281.946 238.376 281.306 237.8C280.666 237.224 280.154 236.536 279.77 235.736C279.418 234.904 279.242 233.896 279.242 232.712C279.242 230.408 280.09 228.6 281.786 227.288C283.482 225.944 285.786 225.272 288.698 225.272C290.17 225.272 291.578 225.416 292.922 225.704C294.266 225.96 295.274 226.216 295.946 226.472L294.89 231.176C294.25 230.888 293.434 230.632 292.442 230.408C291.45 230.152 290.298 230.024 288.986 230.024C287.802 230.024 286.842 230.232 286.106 230.648C285.37 231.032 285.002 231.64 285.002 232.472C285.002 232.888 285.066 233.256 285.194 233.576C285.354 233.896 285.61 234.2 285.962 234.488C286.314 234.744 286.778 235.016 287.354 235.304C287.93 235.56 288.634 235.832 289.466 236.12C290.842 236.632 292.01 237.144 292.97 237.656C293.93 238.136 294.714 238.696 295.322 239.336C295.962 239.944 296.426 240.648 296.714 241.448C297.002 242.248 297.146 243.208 297.146 244.328C297.146 246.728 296.25 248.552 294.458 249.8C292.698 251.016 290.17 251.624 286.874 251.624C284.666 251.624 282.89 251.432 281.546 251.048C280.202 250.696 279.258 250.408 278.714 250.184L279.722 245.336C280.586 245.688 281.61 246.024 282.794 246.344C284.01 246.664 285.386 246.824 286.922 246.824Z" fill="#323232"/>
</g>
<defs>
<filter id="filter0_d" x="32.7199" y="0.959999" width="235.84" height="232.267" filterUnits="userSpaceOnUse" color-interpolation-filters="sRGB">
<feFlood flood-opacity="0" result="BackgroundImageFix"/>
<feColorMatrix in="SourceAlpha" type="matrix" values="0 0 0 0 0 0 0 0 0 0 0 0 0 0 0 0 0 0 127 0"/>
<feOffset dy="10.72"/>
<feGaussianBlur stdDeviation="9.38"/>
<feColorMatrix type="matrix" values="0 0 0 0 0.0583333 0 0 0 0 0.0583333 0 0 0 0 0.0583333 0 0 0 0.5 0"/>
<feBlend mode="normal" in2="BackgroundImageFix" result="effect1_dropShadow"/>
<feBlend mode="normal" in="SourceGraphic" in2="effect1_dropShadow" result="shape"/>
</filter>
<filter id="filter1_d" x="0.773335" y="210.179" width="303.519" height="60.4213" filterUnits="userSpaceOnUse" color-interpolation-filters="sRGB">
<feFlood flood-opacity="0" result="BackgroundImageFix"/>
<feColorMatrix in="SourceAlpha" type="matrix" values="0 0 0 0 0 0 0 0 0 0 0 0 0 0 0 0 0 0 127 0"/>
<feOffset dy="3.57333"/>
<feGaussianBlur stdDeviation="3.57333"/>
<feColorMatrix type="matrix" values="0 0 0 0 0.0583333 0 0 0 0 0.0583333 0 0 0 0 0.0583333 0 0 0 0.5 0"/>
<feBlend mode="normal" in2="BackgroundImageFix" result="effect1_dropShadow"/>
<feBlend mode="normal" in="SourceGraphic" in2="effect1_dropShadow" result="shape"/>
</filter>
<clipPath id="clip0">
<rect width="198.32" height="194.747" fill="white" transform="translate(51.4799 9)"/>
</clipPath>
</defs>
</svg>
