<svg width="225" height="278" viewBox="0 0 225 278" fill="none" xmlns="http://www.w3.org/2000/svg">
<g filter="url(#filter0_d)">
<circle cx="112.82" cy="105.82" r="99.8199" fill="#323232"/>
</g>
<g filter="url(#filter1_d)">
<path d="M173.991 76.8006C173.991 74.4851 173.497 72.3974 172.472 70.6513C171.486 68.9052 170.005 67.4627 168.031 66.324C151.633 56.8722 135.197 47.4204 118.799 37.9687C114.357 35.4254 110.106 35.5013 105.703 38.0825C99.1738 41.9164 66.4533 60.6681 56.7358 66.324C52.7121 68.6394 50.7762 72.2076 50.7762 76.8386C50.7762 95.856 50.7762 114.911 50.7762 133.929C50.7762 136.206 51.2697 138.218 52.2187 139.964C53.2056 141.748 54.724 143.267 56.7358 144.443C66.4912 150.099 99.1738 168.813 105.703 172.685C110.106 175.266 114.395 175.38 118.799 172.799C135.197 163.309 151.633 153.895 168.031 144.443C170.081 143.267 171.561 141.786 172.548 139.964C173.497 138.218 173.991 136.206 173.991 133.929C173.991 133.891 173.991 95.818 173.991 76.8006Z" fill="#9A4993"/>
<path d="M112.535 105.156L52.1427 139.926C53.1296 141.71 54.648 143.229 56.6598 144.405C66.4152 150.061 99.0978 168.775 105.627 172.647C110.03 175.228 114.319 175.342 118.723 172.761C135.121 163.271 151.557 153.857 167.955 144.405C170.005 143.229 171.485 141.748 172.472 139.926L112.535 105.156Z" fill="#6A1577"/>
<path d="M94.6567 115.443C98.1869 121.592 104.792 125.729 112.346 125.729C119.975 125.729 126.618 121.554 130.11 115.329L112.535 105.156L94.6567 115.443Z" fill="#6A1577"/>
<path d="M173.991 76.8005C173.991 74.485 173.497 72.3972 172.472 70.6511L112.535 105.156L172.548 139.926C173.497 138.18 173.991 136.168 173.991 133.891C173.991 133.891 173.991 95.8179 173.991 76.8005Z" fill="#813084"/>
<path d="M130.11 115.329C126.618 121.516 119.975 125.73 112.346 125.73C104.754 125.73 98.149 121.592 94.6567 115.443C92.9486 112.444 91.9617 109.028 91.9617 105.346C91.9617 94.0719 101.072 84.9618 112.346 84.9618C119.861 84.9618 126.428 89.0613 129.959 95.1348L147.761 84.8859C140.663 72.6631 127.453 64.426 112.308 64.426C89.6841 64.426 71.3879 82.7602 71.3879 105.346C71.3879 112.748 73.3618 119.732 76.8161 125.73C83.8764 137.99 97.162 146.265 112.346 146.265C127.567 146.265 140.853 137.952 147.913 125.616L130.11 115.329Z" fill="white"/>
<path d="M152.62 95.6658H148.558V115.291H152.62V95.6658Z" fill="white"/>
<path d="M161.616 95.6658H157.555V115.291H161.616V95.6658Z" fill="white"/>
<path d="M164.919 98.9683H145.294V103.03H164.919V98.9683Z" fill="white"/>
<path d="M164.919 107.927H145.294V111.988H164.919V107.927Z" fill="white"/>
</g>
<g filter="url(#filter2_d)">
<path d="M90.304 238.472C90.304 236.616 90.592 234.888 91.168 233.288C91.744 231.656 92.56 230.248 93.616 229.064C94.704 227.88 96.016 226.952 97.552 226.28C99.088 225.608 100.816 225.272 102.736 225.272C105.104 225.272 107.344 225.704 109.456 226.568L108.208 231.32C107.536 231.032 106.768 230.792 105.904 230.6C105.072 230.408 104.176 230.312 103.216 230.312C100.944 230.312 99.216 231.032 98.032 232.472C96.848 233.88 96.256 235.88 96.256 238.472C96.256 240.968 96.816 242.952 97.936 244.424C99.056 245.864 100.944 246.584 103.6 246.584C104.592 246.584 105.568 246.488 106.528 246.296C107.488 246.104 108.32 245.864 109.024 245.576L109.84 250.376C109.2 250.696 108.224 250.984 106.912 251.24C105.632 251.496 104.304 251.624 102.928 251.624C100.784 251.624 98.912 251.304 97.312 250.664C95.744 249.992 94.432 249.08 93.376 247.928C92.352 246.744 91.584 245.352 91.072 243.752C90.56 242.12 90.304 240.36 90.304 238.472ZM128.497 242.552H121.825L120.193 251H115.057L116.689 242.552H112.849V237.992H117.553L118.945 230.744H112.849V226.232H119.809L121.441 217.736H126.577L124.945 226.232H131.617L133.249 217.736H138.385L136.753 226.232H140.641V230.744H135.889L134.497 237.992H140.641V242.552H133.633L132.001 251H126.865L128.497 242.552ZM122.689 237.992H129.361L130.753 230.744H124.081L122.689 237.992Z" fill="#323232"/>
</g>
<defs>
<filter id="filter0_d" x="0.939478" y="0.831204" width="223.761" height="223.761" filterUnits="userSpaceOnUse" color-interpolation-filters="sRGB">
<feFlood flood-opacity="0" result="BackgroundImageFix"/>
<feColorMatrix in="SourceAlpha" type="matrix" values="0 0 0 0 0 0 0 0 0 0 0 0 0 0 0 0 0 0 127 0"/>
<feOffset dy="6.89173"/>
<feGaussianBlur stdDeviation="6.03026"/>
<feColorMatrix type="matrix" values="0 0 0 0 0.0583333 0 0 0 0 0.0583333 0 0 0 0 0.0583333 0 0 0 0.5 0"/>
<feBlend mode="normal" in2="BackgroundImageFix" result="effect1_dropShadow"/>
<feBlend mode="normal" in="SourceGraphic" in2="effect1_dropShadow" result="shape"/>
</filter>
<filter id="filter1_d" x="7.06892" y="5.99993" width="210.553" height="210.553" filterUnits="userSpaceOnUse" color-interpolation-filters="sRGB">
<feFlood flood-opacity="0" result="BackgroundImageFix"/>
<feColorMatrix in="SourceAlpha" type="matrix" values="0 0 0 0 0 0 0 0 0 0 0 0 0 0 0 0 0 0 127 0"/>
<feOffset dy="5.93108"/>
<feGaussianBlur stdDeviation="5.18969"/>
<feColorMatrix type="matrix" values="0 0 0 0 0.0583333 0 0 0 0 0.0583333 0 0 0 0 0.0583333 0 0 0 0.5 0"/>
<feBlend mode="normal" in2="BackgroundImageFix" result="effect1_dropShadow"/>
<feBlend mode="normal" in="SourceGraphic" in2="effect1_dropShadow" result="shape"/>
</filter>
<filter id="filter2_d" x="83.431" y="214.3" width="64.0827" height="47.634" filterUnits="userSpaceOnUse" color-interpolation-filters="sRGB">
<feFlood flood-opacity="0" result="BackgroundImageFix"/>
<feColorMatrix in="SourceAlpha" type="matrix" values="0 0 0 0 0 0 0 0 0 0 0 0 0 0 0 0 0 0 127 0"/>
<feOffset dy="3.43651"/>
<feGaussianBlur stdDeviation="3.43651"/>
<feColorMatrix type="matrix" values="0 0 0 0 0.0583333 0 0 0 0 0.0583333 0 0 0 0 0.0583333 0 0 0 0.5 0"/>
<feBlend mode="normal" in2="BackgroundImageFix" result="effect1_dropShadow"/>
<feBlend mode="normal" in="SourceGraphic" in2="effect1_dropShadow" result="shape"/>
</filter>
</defs>
</svg>
