<svg width="223" height="277" viewBox="0 0 223 277" fill="none" xmlns="http://www.w3.org/2000/svg">
<g filter="url(#filter0_d)">
<path d="M71.304 238.472C71.304 236.616 71.592 234.888 72.168 233.288C72.744 231.656 73.56 230.248 74.616 229.064C75.704 227.88 77.016 226.952 78.552 226.28C80.088 225.608 81.816 225.272 83.736 225.272C86.104 225.272 88.344 225.704 90.456 226.568L89.208 231.32C88.536 231.032 87.768 230.792 86.904 230.6C86.072 230.408 85.176 230.312 84.216 230.312C81.944 230.312 80.216 231.032 79.032 232.472C77.848 233.88 77.256 235.88 77.256 238.472C77.256 240.968 77.816 242.952 78.936 244.424C80.056 245.864 81.944 246.584 84.6 246.584C85.592 246.584 86.568 246.488 87.528 246.296C88.488 246.104 89.32 245.864 90.024 245.576L90.84 250.376C90.2 250.696 89.224 250.984 87.912 251.24C86.632 251.496 85.304 251.624 83.928 251.624C81.784 251.624 79.912 251.304 78.312 250.664C76.744 249.992 75.432 249.08 74.376 247.928C73.352 246.744 72.584 245.352 72.072 243.752C71.56 242.12 71.304 240.36 71.304 238.472ZM101.625 246.824C103.161 246.824 104.281 246.648 104.985 246.296C105.689 245.912 106.041 245.272 106.041 244.376C106.041 243.544 105.657 242.856 104.889 242.312C104.153 241.768 102.921 241.176 101.193 240.536C100.137 240.152 99.1606 239.752 98.2646 239.336C97.4006 238.888 96.6486 238.376 96.0086 237.8C95.3686 237.224 94.8566 236.536 94.4726 235.736C94.1206 234.904 93.9446 233.896 93.9446 232.712C93.9446 230.408 94.7926 228.6 96.4886 227.288C98.1846 225.944 100.489 225.272 103.401 225.272C104.873 225.272 106.281 225.416 107.625 225.704C108.969 225.96 109.977 226.216 110.649 226.472L109.593 231.176C108.953 230.888 108.137 230.632 107.145 230.408C106.153 230.152 105.001 230.024 103.689 230.024C102.505 230.024 101.545 230.232 100.809 230.648C100.073 231.032 99.7046 231.64 99.7046 232.472C99.7046 232.888 99.7686 233.256 99.8966 233.576C100.057 233.896 100.313 234.2 100.665 234.488C101.017 234.744 101.481 235.016 102.057 235.304C102.633 235.56 103.337 235.832 104.169 236.12C105.545 236.632 106.713 237.144 107.673 237.656C108.633 238.136 109.417 238.696 110.025 239.336C110.665 239.944 111.129 240.648 111.417 241.448C111.705 242.248 111.849 243.208 111.849 244.328C111.849 246.728 110.953 248.552 109.161 249.8C107.401 251.016 104.873 251.624 101.577 251.624C99.3686 251.624 97.5926 251.432 96.2486 251.048C94.9046 250.696 93.9606 250.408 93.4166 250.184L94.4246 245.336C95.2886 245.688 96.3126 246.024 97.4966 246.344C98.7126 246.664 100.089 246.824 101.625 246.824ZM123.562 246.824C125.098 246.824 126.218 246.648 126.922 246.296C127.626 245.912 127.978 245.272 127.978 244.376C127.978 243.544 127.594 242.856 126.826 242.312C126.09 241.768 124.858 241.176 123.13 240.536C122.074 240.152 121.098 239.752 120.202 239.336C119.338 238.888 118.586 238.376 117.946 237.8C117.306 237.224 116.794 236.536 116.41 235.736C116.058 234.904 115.882 233.896 115.882 232.712C115.882 230.408 116.73 228.6 118.426 227.288C120.122 225.944 122.426 225.272 125.338 225.272C126.81 225.272 128.218 225.416 129.562 225.704C130.906 225.96 131.914 226.216 132.586 226.472L131.53 231.176C130.89 230.888 130.074 230.632 129.082 230.408C128.09 230.152 126.938 230.024 125.626 230.024C124.442 230.024 123.482 230.232 122.746 230.648C122.01 231.032 121.642 231.64 121.642 232.472C121.642 232.888 121.706 233.256 121.834 233.576C121.994 233.896 122.25 234.2 122.602 234.488C122.954 234.744 123.418 235.016 123.994 235.304C124.57 235.56 125.274 235.832 126.106 236.12C127.482 236.632 128.65 237.144 129.61 237.656C130.57 238.136 131.354 238.696 131.962 239.336C132.602 239.944 133.066 240.648 133.354 241.448C133.642 242.248 133.786 243.208 133.786 244.328C133.786 246.728 132.89 248.552 131.098 249.8C129.338 251.016 126.81 251.624 123.514 251.624C121.306 251.624 119.53 251.432 118.186 251.048C116.842 250.696 115.898 250.408 115.354 250.184L116.362 245.336C117.226 245.688 118.25 246.024 119.434 246.344C120.65 246.664 122.026 246.824 123.562 246.824ZM146.844 251.72C145.98 251.72 145.084 251.656 144.156 251.528C143.26 251.432 142.396 251.288 141.564 251.096C140.764 250.936 140.028 250.76 139.356 250.568C138.684 250.344 138.172 250.136 137.82 249.944L138.972 245C139.644 245.32 140.62 245.688 141.9 246.104C143.18 246.488 144.764 246.68 146.652 246.68C149.18 246.68 151.004 246.2 152.124 245.24C153.244 244.248 153.804 242.936 153.804 241.304C153.804 240.248 153.58 239.368 153.132 238.664C152.716 237.96 152.124 237.4 151.356 236.984C150.62 236.536 149.756 236.232 148.764 236.072C147.804 235.88 146.78 235.784 145.692 235.784H143.724V231.08H146.124C146.86 231.08 147.596 231.016 148.332 230.888C149.1 230.728 149.788 230.472 150.396 230.12C151.004 229.736 151.5 229.24 151.884 228.632C152.268 228.024 152.46 227.24 152.46 226.28C152.46 225.512 152.316 224.856 152.028 224.312C151.74 223.768 151.356 223.32 150.876 222.968C150.428 222.616 149.9 222.36 149.292 222.2C148.684 222.04 148.044 221.96 147.372 221.96C145.932 221.96 144.652 222.184 143.532 222.632C142.412 223.048 141.42 223.528 140.556 224.072L138.444 219.752C138.892 219.464 139.436 219.16 140.076 218.84C140.716 218.52 141.42 218.216 142.188 217.928C142.988 217.64 143.836 217.416 144.732 217.256C145.628 217.064 146.572 216.968 147.564 216.968C149.42 216.968 151.02 217.192 152.364 217.64C153.708 218.088 154.812 218.728 155.676 219.56C156.572 220.36 157.228 221.32 157.644 222.44C158.092 223.528 158.316 224.728 158.316 226.04C158.316 227.576 157.884 228.952 157.02 230.168C156.188 231.384 155.1 232.312 153.756 232.952C155.484 233.56 156.908 234.568 158.028 235.976C159.18 237.384 159.756 239.192 159.756 241.4C159.756 242.872 159.5 244.248 158.988 245.528C158.476 246.776 157.692 247.864 156.636 248.792C155.58 249.688 154.236 250.408 152.604 250.952C151.004 251.464 149.084 251.72 146.844 251.72Z" fill="#323232"/>
</g>
<g filter="url(#filter1_d)">
<circle cx="111.661" cy="104.661" r="98.6611" fill="#323232"/>
</g>
<g clip-path="url(#clip0)" filter="url(#filter2_d)">
<path d="M60.3895 47.4097L69.8339 154.076L112.241 165.928L154.634 154.084L164.093 47.4097H60.3895Z" fill="#2196F3"/>
<path d="M143.9 82.2906L142.708 95.6906L139.108 135.861L112.241 143.29L112.219 143.298L85.3672 135.861L83.4931 114.853H96.6486L97.6264 125.75L112.226 129.691L112.234 129.683L126.856 125.742L128.849 107.587L82.8635 107.713L81.5598 95.298L129.952 94.7276L130.93 81.4387L80.2635 81.5795L79.4116 69.2166H112.241H145.071L143.9 82.2906Z" fill="#FAFAFA"/>
</g>
<defs>
<filter id="filter0_d" x="64.3918" y="213.512" width="102.276" height="48.5764" filterUnits="userSpaceOnUse" color-interpolation-filters="sRGB">
<feFlood flood-opacity="0" result="BackgroundImageFix"/>
<feColorMatrix in="SourceAlpha" type="matrix" values="0 0 0 0 0 0 0 0 0 0 0 0 0 0 0 0 0 0 127 0"/>
<feOffset dy="3.45611"/>
<feGaussianBlur stdDeviation="3.45611"/>
<feColorMatrix type="matrix" values="0 0 0 0 0.0583333 0 0 0 0 0.0583333 0 0 0 0 0.0583333 0 0 0 0.5 0"/>
<feBlend mode="normal" in2="BackgroundImageFix" result="effect1_dropShadow"/>
<feBlend mode="normal" in="SourceGraphic" in2="effect1_dropShadow" result="shape"/>
</filter>
<filter id="filter1_d" x="0.8707" y="0.801728" width="221.581" height="221.581" filterUnits="userSpaceOnUse" color-interpolation-filters="sRGB">
<feFlood flood-opacity="0" result="BackgroundImageFix"/>
<feColorMatrix in="SourceAlpha" type="matrix" values="0 0 0 0 0 0 0 0 0 0 0 0 0 0 0 0 0 0 127 0"/>
<feOffset dy="6.93103"/>
<feGaussianBlur stdDeviation="6.06465"/>
<feColorMatrix type="matrix" values="0 0 0 0 0.0583333 0 0 0 0 0.0583333 0 0 0 0 0.0583333 0 0 0 0.5 0"/>
<feBlend mode="normal" in2="BackgroundImageFix" result="effect1_dropShadow"/>
<feBlend mode="normal" in="SourceGraphic" in2="effect1_dropShadow" result="shape"/>
</filter>
<filter id="filter2_d" x="41.3076" y="42.4063" width="141.867" height="141.867" filterUnits="userSpaceOnUse" color-interpolation-filters="sRGB">
<feFlood flood-opacity="0" result="BackgroundImageFix"/>
<feColorMatrix in="SourceAlpha" type="matrix" values="0 0 0 0 0 0 0 0 0 0 0 0 0 0 0 0 0 0 127 0"/>
<feOffset dy="6.6711"/>
<feGaussianBlur stdDeviation="5.83721"/>
<feColorMatrix type="matrix" values="0 0 0 0 0.0583333 0 0 0 0 0.0583333 0 0 0 0 0.0583333 0 0 0 0.5 0"/>
<feBlend mode="normal" in2="BackgroundImageFix" result="effect1_dropShadow"/>
<feBlend mode="normal" in="SourceGraphic" in2="effect1_dropShadow" result="shape"/>
</filter>
<clipPath id="clip0">
<rect width="118.518" height="118.518" fill="white" transform="translate(52.9821 47.4097)"/>
</clipPath>
</defs>
</svg>
