<svg width="225" height="276" viewBox="0 0 225 276" fill="none" xmlns="http://www.w3.org/2000/svg">
<g filter="url(#filter0_d)">
<path d="M56.696 251V214.712L62.504 213.752V226.184C63.144 225.96 63.88 225.768 64.712 225.608C65.576 225.448 66.424 225.368 67.256 225.368C69.272 225.368 70.936 225.656 72.248 226.232C73.592 226.776 74.664 227.56 75.464 228.584C76.264 229.576 76.824 230.776 77.144 232.184C77.496 233.592 77.672 235.16 77.672 236.888V251H71.864V237.8C71.864 236.456 71.768 235.32 71.576 234.392C71.416 233.432 71.128 232.664 70.712 232.088C70.328 231.48 69.8 231.048 69.128 230.792C68.456 230.504 67.624 230.36 66.632 230.36C65.864 230.36 65.08 230.44 64.28 230.6C63.48 230.76 62.888 230.904 62.504 231.032V251H56.696ZM84.3455 219.272L90.1535 218.312V225.896H99.0815V230.744H90.1535V240.968C90.1535 242.984 90.4735 244.424 91.1135 245.288C91.7535 246.152 92.8415 246.584 94.3775 246.584C95.4335 246.584 96.3615 246.472 97.1615 246.248C97.9935 246.024 98.6495 245.816 99.1295 245.624L100.09 250.232C99.4175 250.52 98.5375 250.808 97.4495 251.096C96.3615 251.416 95.0815 251.576 93.6095 251.576C91.8175 251.576 90.3135 251.336 89.0975 250.856C87.9135 250.376 86.9695 249.688 86.2655 248.792C85.5615 247.864 85.0655 246.76 84.7775 245.48C84.4895 244.168 84.3455 242.68 84.3455 241.016V219.272ZM119 237.8C119 235.176 118.664 233.288 117.992 232.136C117.352 230.952 116.136 230.36 114.344 230.36C113.704 230.36 113 230.408 112.232 230.504C111.464 230.6 110.888 230.68 110.504 230.744V251H104.696V226.712C105.816 226.392 107.272 226.088 109.064 225.8C110.888 225.512 112.808 225.368 114.824 225.368C116.552 225.368 117.96 225.592 119.048 226.04C120.168 226.488 121.096 227.08 121.832 227.816C122.184 227.56 122.632 227.288 123.176 227C123.72 226.712 124.328 226.456 125 226.232C125.672 225.976 126.376 225.768 127.112 225.608C127.88 225.448 128.648 225.368 129.416 225.368C131.368 225.368 132.968 225.656 134.216 226.232C135.496 226.776 136.488 227.56 137.192 228.584C137.928 229.576 138.424 230.792 138.68 232.232C138.968 233.64 139.112 235.192 139.112 236.888V251H133.304V237.8C133.304 235.176 132.984 233.288 132.344 232.136C131.704 230.952 130.472 230.36 128.648 230.36C127.72 230.36 126.84 230.52 126.008 230.84C125.176 231.128 124.552 231.416 124.136 231.704C124.392 232.504 124.568 233.352 124.664 234.248C124.76 235.144 124.808 236.104 124.808 237.128V251H119V237.8ZM154.963 251.48C153.235 251.448 151.795 251.256 150.643 250.904C149.523 250.552 148.627 250.056 147.955 249.416C147.283 248.744 146.803 247.928 146.515 246.968C146.259 245.976 146.131 244.856 146.131 243.608V214.712L151.939 213.752V242.504C151.939 243.208 151.987 243.8 152.083 244.28C152.211 244.76 152.419 245.176 152.707 245.528C152.995 245.848 153.379 246.104 153.859 246.296C154.371 246.456 155.011 246.584 155.779 246.68L154.963 251.48ZM175.165 241.496C175.165 240.44 174.957 239.496 174.541 238.664C174.125 237.832 173.389 237.128 172.333 236.552C171.309 235.976 169.917 235.544 168.157 235.256C166.429 234.968 164.237 234.824 161.581 234.824C161.933 231.752 162.205 228.84 162.397 226.088C162.589 223.304 162.749 220.52 162.877 217.736H179.869V222.632H167.821C167.789 223.176 167.741 223.8 167.677 224.504C167.645 225.176 167.597 225.864 167.533 226.568C167.501 227.272 167.453 227.944 167.389 228.584C167.325 229.224 167.261 229.768 167.197 230.216C171.933 230.472 175.421 231.56 177.661 233.48C179.933 235.368 181.069 237.96 181.069 241.256C181.069 242.76 180.813 244.152 180.301 245.432C179.789 246.712 179.005 247.816 177.949 248.744C176.893 249.672 175.565 250.408 173.965 250.952C172.365 251.464 170.493 251.72 168.349 251.72C167.485 251.72 166.605 251.656 165.709 251.528C164.813 251.4 163.949 251.24 163.117 251.048C162.317 250.888 161.597 250.712 160.957 250.52C160.317 250.328 159.837 250.152 159.517 249.992L160.621 245.096C161.293 245.416 162.253 245.768 163.501 246.152C164.781 246.504 166.333 246.68 168.157 246.68C169.405 246.68 170.477 246.552 171.373 246.296C172.269 246.008 172.989 245.624 173.533 245.144C174.109 244.664 174.525 244.12 174.781 243.512C175.037 242.872 175.165 242.2 175.165 241.496Z" fill="#323232"/>
</g>
<g filter="url(#filter1_d)">
<circle cx="112.82" cy="105.82" r="99.8199" fill="#323232"/>
</g>
<g clip-path="url(#clip0)" filter="url(#filter2_d)">
<path d="M60.2656 52.5015L69.9947 161.105L113.68 173.172L157.35 161.113L167.095 52.5015H60.2656Z" fill="#FF5722"/>
<path d="M145.996 88.0168H113.68H94.7943L96.0152 101.66H113.68H144.775L141.105 142.568L113.68 150.132L113.657 150.14L86.248 142.568L84.3327 121.171H97.7626L98.7622 132.273L113.665 136.278L113.68 136.27L128.598 132.265L130.155 114.987H113.68H83.7833L80.1663 74.7053H113.68H147.186L145.996 88.0168Z" fill="white"/>
</g>
<defs>
<filter id="filter0_d" x="49.823" y="210.315" width="138.119" height="51.7141" filterUnits="userSpaceOnUse" color-interpolation-filters="sRGB">
<feFlood flood-opacity="0" result="BackgroundImageFix"/>
<feColorMatrix in="SourceAlpha" type="matrix" values="0 0 0 0 0 0 0 0 0 0 0 0 0 0 0 0 0 0 127 0"/>
<feOffset dy="3.43651"/>
<feGaussianBlur stdDeviation="3.43651"/>
<feColorMatrix type="matrix" values="0 0 0 0 0.0583333 0 0 0 0 0.0583333 0 0 0 0 0.0583333 0 0 0 0.5 0"/>
<feBlend mode="normal" in2="BackgroundImageFix" result="effect1_dropShadow"/>
<feBlend mode="normal" in="SourceGraphic" in2="effect1_dropShadow" result="shape"/>
</filter>
<filter id="filter1_d" x="0.939477" y="0.831203" width="223.761" height="223.761" filterUnits="userSpaceOnUse" color-interpolation-filters="sRGB">
<feFlood flood-opacity="0" result="BackgroundImageFix"/>
<feColorMatrix in="SourceAlpha" type="matrix" values="0 0 0 0 0 0 0 0 0 0 0 0 0 0 0 0 0 0 127 0"/>
<feOffset dy="6.89173"/>
<feGaussianBlur stdDeviation="6.03026"/>
<feColorMatrix type="matrix" values="0 0 0 0 0.0583333 0 0 0 0 0.0583333 0 0 0 0 0.0583333 0 0 0 0.5 0"/>
<feBlend mode="normal" in2="BackgroundImageFix" result="effect1_dropShadow"/>
<feBlend mode="normal" in="SourceGraphic" in2="effect1_dropShadow" result="shape"/>
</filter>
<filter id="filter2_d" x="40.8157" y="47.4361" width="145.729" height="144.309" filterUnits="userSpaceOnUse" color-interpolation-filters="sRGB">
<feFlood flood-opacity="0" result="BackgroundImageFix"/>
<feColorMatrix in="SourceAlpha" type="matrix" values="0 0 0 0 0 0 0 0 0 0 0 0 0 0 0 0 0 0 127 0"/>
<feOffset dy="6.75387"/>
<feGaussianBlur stdDeviation="5.90964"/>
<feColorMatrix type="matrix" values="0 0 0 0 0.0583333 0 0 0 0 0.0583333 0 0 0 0 0.0583333 0 0 0 0.5 0"/>
<feBlend mode="normal" in2="BackgroundImageFix" result="effect1_dropShadow"/>
<feBlend mode="normal" in="SourceGraphic" in2="effect1_dropShadow" result="shape"/>
</filter>
<clipPath id="clip0">
<rect width="122.09" height="120.671" fill="white" transform="translate(52.6349 52.5015)"/>
</clipPath>
</defs>
</svg>
