<svg width="236" height="271" viewBox="0 0 236 271" fill="none" xmlns="http://www.w3.org/2000/svg">
<g filter="url(#filter0_d)">
<g clip-path="url(#clip0)">
<path d="M117.906 221.716C178.843 221.716 228.241 172.755 228.241 112.358C228.241 51.9613 178.843 3 117.906 3C56.9704 3 7.57202 51.9613 7.57202 112.358C7.57202 172.755 56.9704 221.716 117.906 221.716Z" fill="#5E3C16"/>
<path d="M159.096 164.781H135.775L126.504 140.876H84.0609L75.2971 164.781H52.5544L93.9108 59.541H116.581L159.096 164.781ZM119.623 123.144L104.993 84.0919L90.6516 123.144H119.623Z" fill="#DF871E"/>
<path d="M162.906 78.2058V59.541H183.258V78.2058H162.906ZM162.906 164.782V88.5431H183.258V164.781H162.906V164.782Z" fill="#DF871E"/>
</g>
<path d="M27.3633 259H22.2781V237.02H27.3633V259ZM27.9097 230.59C27.9097 231.543 27.6015 232.299 26.9851 232.859C26.3687 233.42 25.6402 233.7 24.7997 233.7C23.9311 233.7 23.1887 233.42 22.5723 232.859C21.9559 232.299 21.6477 231.543 21.6477 230.59C21.6477 229.609 21.9559 228.839 22.5723 228.279C23.1887 227.718 23.9311 227.438 24.7997 227.438C25.6402 227.438 26.3687 227.718 26.9851 228.279C27.6015 228.839 27.9097 229.609 27.9097 230.59ZM41.4997 259.42C39.9867 259.392 38.7259 259.224 37.7173 258.916C36.7367 258.608 35.9522 258.173 35.3638 257.613C34.7754 257.025 34.3552 256.31 34.103 255.47C33.8789 254.601 33.7668 253.621 33.7668 252.528V227.228L38.852 226.387V251.561C38.852 252.178 38.894 252.696 38.9781 253.116C39.0902 253.537 39.2723 253.901 39.5244 254.209C39.7766 254.489 40.1128 254.713 40.5331 254.881C40.9814 255.021 41.5417 255.134 42.2142 255.218L41.4997 259.42ZM53.9764 259.42C52.4634 259.392 51.2026 259.224 50.194 258.916C49.2133 258.608 48.4288 258.173 47.8405 257.613C47.2521 257.025 46.8318 256.31 46.5797 255.47C46.3555 254.601 46.2435 253.621 46.2435 252.528V227.228L51.3287 226.387V251.561C51.3287 252.178 51.3707 252.696 51.4548 253.116C51.5668 253.537 51.749 253.901 52.0011 254.209C52.2533 254.489 52.5895 254.713 53.0098 254.881C53.458 255.021 54.0184 255.134 54.6908 255.218L53.9764 259.42ZM76.8336 258.328C75.853 258.58 74.5782 258.832 73.0092 259.084C71.4402 259.364 69.7171 259.504 67.8399 259.504C66.0748 259.504 64.5898 259.252 63.3851 258.748C62.2083 258.244 61.2557 257.543 60.5273 256.647C59.8268 255.75 59.3225 254.685 59.0143 253.452C58.7061 252.192 58.552 250.819 58.552 249.334V237.02H63.6372V248.535C63.6372 250.889 63.9735 252.57 64.6459 253.579C65.3463 254.587 66.5511 255.092 68.2602 255.092C68.8766 255.092 69.521 255.064 70.1934 255.007C70.8938 254.951 71.4122 254.881 71.7484 254.797V237.02H76.8336V258.328ZM88.8115 255.344C90.1564 255.344 91.137 255.19 91.7534 254.881C92.3698 254.545 92.678 253.985 92.678 253.2C92.678 252.472 92.3418 251.869 91.6694 251.393C91.0249 250.917 89.9463 250.399 88.4333 249.838C87.5087 249.502 86.6542 249.152 85.8697 248.788C85.1132 248.395 84.4548 247.947 83.8944 247.443C83.3341 246.938 82.8858 246.336 82.5496 245.636C82.2414 244.907 82.0873 244.024 82.0873 242.988C82.0873 240.971 82.8297 239.388 84.3147 238.239C85.7996 237.062 87.8169 236.474 90.3665 236.474C91.6553 236.474 92.8881 236.6 94.0649 236.852C95.2416 237.076 96.1242 237.3 96.7126 237.524L95.788 241.643C95.2276 241.391 94.5132 241.167 93.6446 240.971C92.7761 240.746 91.7674 240.634 90.6187 240.634C89.582 240.634 88.7415 240.816 88.0971 241.181C87.4527 241.517 87.1305 242.049 87.1305 242.778C87.1305 243.142 87.1865 243.464 87.2986 243.744C87.4387 244.024 87.6628 244.291 87.971 244.543C88.2792 244.767 88.6855 245.005 89.1898 245.257C89.6941 245.481 90.3105 245.72 91.039 245.972C92.2437 246.42 93.2664 246.868 94.1069 247.317C94.9474 247.737 95.6339 248.227 96.1662 248.788C96.7266 249.32 97.1328 249.936 97.385 250.637C97.6371 251.337 97.7632 252.178 97.7632 253.158C97.7632 255.26 96.9787 256.857 95.4097 257.949C93.8688 259.014 91.6553 259.546 88.7695 259.546C86.8363 259.546 85.2813 259.378 84.1046 259.042C82.9278 258.734 82.1013 258.482 81.625 258.286L82.5075 254.041C83.264 254.349 84.1606 254.643 85.1972 254.923C86.2619 255.204 87.4667 255.344 88.8115 255.344ZM102.261 231.22L107.347 230.38V237.02H115.164V241.265H107.347V250.216C107.347 251.982 107.627 253.242 108.187 253.999C108.748 254.755 109.7 255.134 111.045 255.134C111.97 255.134 112.782 255.035 113.483 254.839C114.211 254.643 114.785 254.461 115.206 254.293L116.046 258.328C115.458 258.58 114.687 258.832 113.735 259.084C112.782 259.364 111.661 259.504 110.373 259.504C108.804 259.504 107.487 259.294 106.422 258.874C105.385 258.454 104.559 257.851 103.942 257.067C103.326 256.254 102.892 255.288 102.64 254.167C102.387 253.018 102.261 251.715 102.261 250.258V231.22ZM132.603 241.601C132.183 241.461 131.595 241.321 130.838 241.181C130.11 241.013 129.255 240.929 128.275 240.929C127.714 240.929 127.112 240.985 126.467 241.097C125.851 241.209 125.417 241.307 125.165 241.391V259H120.079V238.071C121.06 237.706 122.279 237.37 123.736 237.062C125.221 236.726 126.86 236.558 128.653 236.558C128.989 236.558 129.381 236.586 129.83 236.642C130.278 236.67 130.726 236.726 131.174 236.81C131.623 236.866 132.057 236.95 132.477 237.062C132.898 237.146 133.234 237.23 133.486 237.314L132.603 241.601ZM144.762 255.428C146.331 255.428 147.522 255.344 148.335 255.176V249.544C148.055 249.46 147.648 249.376 147.116 249.292C146.584 249.208 145.995 249.166 145.351 249.166C144.791 249.166 144.216 249.208 143.628 249.292C143.067 249.376 142.549 249.53 142.073 249.754C141.625 249.978 141.26 250.3 140.98 250.721C140.7 251.113 140.56 251.617 140.56 252.234C140.56 253.438 140.938 254.279 141.695 254.755C142.451 255.204 143.474 255.428 144.762 255.428ZM144.342 236.474C146.023 236.474 147.438 236.684 148.587 237.104C149.736 237.524 150.646 238.113 151.319 238.869C152.019 239.626 152.509 240.55 152.79 241.643C153.098 242.708 153.252 243.884 153.252 245.173V258.496C152.467 258.664 151.277 258.86 149.68 259.084C148.111 259.336 146.331 259.462 144.342 259.462C143.025 259.462 141.821 259.336 140.728 259.084C139.635 258.832 138.697 258.426 137.912 257.865C137.156 257.305 136.553 256.576 136.105 255.68C135.685 254.783 135.475 253.677 135.475 252.36C135.475 251.099 135.713 250.034 136.189 249.166C136.693 248.297 137.366 247.597 138.206 247.064C139.047 246.504 140.013 246.112 141.106 245.888C142.227 245.636 143.39 245.509 144.594 245.509C145.155 245.509 145.743 245.551 146.36 245.636C146.976 245.692 147.634 245.804 148.335 245.972V245.131C148.335 244.543 148.265 243.982 148.125 243.45C147.985 242.918 147.732 242.456 147.368 242.063C147.032 241.643 146.57 241.321 145.981 241.097C145.421 240.872 144.706 240.76 143.838 240.76C142.661 240.76 141.582 240.844 140.602 241.013C139.621 241.181 138.823 241.377 138.206 241.601L137.576 237.482C138.22 237.258 139.159 237.034 140.392 236.81C141.625 236.586 142.941 236.474 144.342 236.474ZM159.227 231.22L164.312 230.38V237.02H172.129V241.265H164.312V250.216C164.312 251.982 164.593 253.242 165.153 253.999C165.713 254.755 166.666 255.134 168.011 255.134C168.935 255.134 169.748 255.035 170.448 254.839C171.177 254.643 171.751 254.461 172.171 254.293L173.012 258.328C172.424 258.58 171.653 258.832 170.701 259.084C169.748 259.364 168.627 259.504 167.338 259.504C165.769 259.504 164.453 259.294 163.388 258.874C162.351 258.454 161.525 257.851 160.908 257.067C160.292 256.254 159.858 255.288 159.605 254.167C159.353 253.018 159.227 251.715 159.227 250.258V231.22ZM196.431 247.989C196.431 249.726 196.179 251.309 195.675 252.738C195.171 254.167 194.456 255.386 193.531 256.394C192.607 257.403 191.486 258.187 190.169 258.748C188.881 259.308 187.452 259.588 185.883 259.588C184.314 259.588 182.885 259.308 181.596 258.748C180.307 258.187 179.2 257.403 178.276 256.394C177.351 255.386 176.623 254.167 176.09 252.738C175.586 251.309 175.334 249.726 175.334 247.989C175.334 246.252 175.586 244.683 176.09 243.282C176.623 241.853 177.351 240.634 178.276 239.626C179.228 238.617 180.349 237.847 181.638 237.314C182.927 236.754 184.342 236.474 185.883 236.474C187.424 236.474 188.838 236.754 190.127 237.314C191.444 237.847 192.565 238.617 193.489 239.626C194.414 240.634 195.128 241.853 195.633 243.282C196.165 244.683 196.431 246.252 196.431 247.989ZM191.22 247.989C191.22 245.804 190.744 244.081 189.791 242.82C188.867 241.531 187.564 240.887 185.883 240.887C184.202 240.887 182.885 241.531 181.932 242.82C181.008 244.081 180.545 245.804 180.545 247.989C180.545 250.202 181.008 251.954 181.932 253.242C182.885 254.531 184.202 255.176 185.883 255.176C187.564 255.176 188.867 254.531 189.791 253.242C190.744 251.954 191.22 250.202 191.22 247.989ZM214.194 241.601C213.774 241.461 213.186 241.321 212.429 241.181C211.701 241.013 210.846 240.929 209.865 240.929C209.305 240.929 208.703 240.985 208.058 241.097C207.442 241.209 207.008 241.307 206.755 241.391V259H201.67V238.071C202.651 237.706 203.87 237.37 205.327 237.062C206.811 236.726 208.451 236.558 210.244 236.558C210.58 236.558 210.972 236.586 211.42 236.642C211.869 236.67 212.317 236.726 212.765 236.81C213.214 236.866 213.648 236.95 214.068 237.062C214.488 237.146 214.825 237.23 215.077 237.314L214.194 241.601Z" fill="#323232"/>
</g>
<defs>
<filter id="filter0_d" x="0.572021" y="0" width="234.669" height="270.588" filterUnits="userSpaceOnUse" color-interpolation-filters="sRGB">
<feFlood flood-opacity="0" result="BackgroundImageFix"/>
<feColorMatrix in="SourceAlpha" type="matrix" values="0 0 0 0 0 0 0 0 0 0 0 0 0 0 0 0 0 0 127 0"/>
<feOffset dy="4"/>
<feGaussianBlur stdDeviation="3.5"/>
<feColorMatrix type="matrix" values="0 0 0 0 0.0583333 0 0 0 0 0.0583333 0 0 0 0 0.0583333 0 0 0 0.5 0"/>
<feBlend mode="normal" in2="BackgroundImageFix" result="effect1_dropShadow"/>
<feBlend mode="normal" in="SourceGraphic" in2="effect1_dropShadow" result="shape"/>
</filter>
<clipPath id="clip0">
<rect width="220.669" height="218.716" fill="white" transform="translate(7.57202 3)"/>
</clipPath>
</defs>
</svg>
