<svg width="235" height="262" viewBox="0 0 235 262" fill="none" xmlns="http://www.w3.org/2000/svg">
<g clip-path="url(#clip0)" filter="url(#filter0_d)">
<path d="M116.906 202.716C171.156 202.716 215.134 159.127 215.134 105.358C215.134 51.5887 171.156 8 116.906 8C62.657 8 18.6791 51.5887 18.6791 105.358C18.6791 159.127 62.657 202.716 116.906 202.716Z" fill="#5E3C16"/>
<path d="M153.577 152.029H132.814L124.56 130.747H86.7747L78.9726 152.029H58.7255L95.5438 58.3367H115.726L153.577 152.029ZM118.435 114.961L105.41 80.1936L92.6423 114.961H118.435Z" fill="#DF871E"/>
<path d="M156.969 74.9533V58.3367H175.087V74.9533H156.969ZM156.969 152.029V84.1563H175.087V152.029H156.969V152.029Z" fill="#DF871E"/>
</g>
<g filter="url(#filter1_d)">
<path d="M13.552 250H7.744V224.896H13.552V250ZM14.176 217.552C14.176 218.64 13.824 219.504 13.12 220.144C12.416 220.784 11.584 221.104 10.624 221.104C9.632 221.104 8.784 220.784 8.08 220.144C7.376 219.504 7.024 218.64 7.024 217.552C7.024 216.432 7.376 215.552 8.08 214.912C8.784 214.272 9.632 213.952 10.624 213.952C11.584 213.952 12.416 214.272 13.12 214.912C13.824 215.552 14.176 216.432 14.176 217.552ZM29.6976 250.48C27.9696 250.448 26.5296 250.256 25.3776 249.904C24.2576 249.552 23.3616 249.056 22.6896 248.416C22.0176 247.744 21.5376 246.928 21.2496 245.968C20.9936 244.976 20.8656 243.856 20.8656 242.608V213.712L26.6736 212.752V241.504C26.6736 242.208 26.7216 242.8 26.8176 243.28C26.9456 243.76 27.1536 244.176 27.4416 244.528C27.7296 244.848 28.1136 245.104 28.5936 245.296C29.1056 245.456 29.7456 245.584 30.5136 245.68L29.6976 250.48ZM43.9476 250.48C42.2196 250.448 40.7796 250.256 39.6276 249.904C38.5076 249.552 37.6116 249.056 36.9396 248.416C36.2676 247.744 35.7876 246.928 35.4996 245.968C35.2436 244.976 35.1156 243.856 35.1156 242.608V213.712L40.9236 212.752V241.504C40.9236 242.208 40.9716 242.8 41.0676 243.28C41.1956 243.76 41.4036 244.176 41.6916 244.528C41.9796 244.848 42.3636 245.104 42.8436 245.296C43.3556 245.456 43.9956 245.584 44.7636 245.68L43.9476 250.48ZM70.0536 249.232C68.9336 249.52 67.4776 249.808 65.6856 250.096C63.8936 250.416 61.9256 250.576 59.7816 250.576C57.7656 250.576 56.0696 250.288 54.6936 249.712C53.3496 249.136 52.2616 248.336 51.4296 247.312C50.6296 246.288 50.0536 245.072 49.7016 243.664C49.3496 242.224 49.1736 240.656 49.1736 238.96V224.896H54.9816V238.048C54.9816 240.736 55.3656 242.656 56.1336 243.808C56.9336 244.96 58.3096 245.536 60.2616 245.536C60.9656 245.536 61.7016 245.504 62.4696 245.44C63.2696 245.376 63.8616 245.296 64.2456 245.2V224.896H70.0536V249.232ZM83.734 245.824C85.27 245.824 86.39 245.648 87.094 245.296C87.798 244.912 88.15 244.272 88.15 243.376C88.15 242.544 87.766 241.856 86.998 241.312C86.262 240.768 85.03 240.176 83.302 239.536C82.246 239.152 81.27 238.752 80.374 238.336C79.51 237.888 78.758 237.376 78.118 236.8C77.478 236.224 76.966 235.536 76.582 234.736C76.23 233.904 76.054 232.896 76.054 231.712C76.054 229.408 76.902 227.6 78.598 226.288C80.294 224.944 82.598 224.272 85.51 224.272C86.982 224.272 88.39 224.416 89.734 224.704C91.078 224.96 92.086 225.216 92.758 225.472L91.702 230.176C91.062 229.888 90.246 229.632 89.254 229.408C88.262 229.152 87.11 229.024 85.798 229.024C84.614 229.024 83.654 229.232 82.918 229.648C82.182 230.032 81.814 230.64 81.814 231.472C81.814 231.888 81.878 232.256 82.006 232.576C82.166 232.896 82.422 233.2 82.774 233.488C83.126 233.744 83.59 234.016 84.166 234.304C84.742 234.56 85.446 234.832 86.278 235.12C87.654 235.632 88.822 236.144 89.782 236.656C90.742 237.136 91.526 237.696 92.134 238.336C92.774 238.944 93.238 239.648 93.526 240.448C93.814 241.248 93.958 242.208 93.958 243.328C93.958 245.728 93.062 247.552 91.27 248.8C89.51 250.016 86.982 250.624 83.686 250.624C81.478 250.624 79.702 250.432 78.358 250.048C77.014 249.696 76.07 249.408 75.526 249.184L76.534 244.336C77.398 244.688 78.422 245.024 79.606 245.344C80.822 245.664 82.198 245.824 83.734 245.824ZM99.0955 218.272L104.904 217.312V224.896H113.832V229.744H104.904V239.968C104.904 241.984 105.224 243.424 105.864 244.288C106.504 245.152 107.592 245.584 109.128 245.584C110.184 245.584 111.112 245.472 111.912 245.248C112.744 245.024 113.4 244.816 113.88 244.624L114.84 249.232C114.168 249.52 113.288 249.808 112.2 250.096C111.112 250.416 109.832 250.576 108.359 250.576C106.568 250.576 105.064 250.336 103.848 249.856C102.664 249.376 101.72 248.688 101.016 247.792C100.312 246.864 99.8155 245.76 99.5275 244.48C99.2395 243.168 99.0955 241.68 99.0955 240.016V218.272ZM133.75 230.128C133.27 229.968 132.598 229.808 131.734 229.648C130.902 229.456 129.926 229.36 128.806 229.36C128.166 229.36 127.478 229.424 126.742 229.552C126.038 229.68 125.542 229.792 125.254 229.888V250H119.446V226.096C120.566 225.68 121.958 225.296 123.622 224.944C125.318 224.56 127.19 224.368 129.238 224.368C129.622 224.368 130.07 224.4 130.582 224.464C131.094 224.496 131.606 224.56 132.118 224.656C132.63 224.72 133.126 224.816 133.606 224.944C134.086 225.04 134.47 225.136 134.758 225.232L133.75 230.128ZM147.637 245.92C149.429 245.92 150.789 245.824 151.717 245.632V239.2C151.397 239.104 150.933 239.008 150.325 238.912C149.717 238.816 149.045 238.768 148.309 238.768C147.669 238.768 147.013 238.816 146.341 238.912C145.701 239.008 145.109 239.184 144.565 239.44C144.053 239.696 143.637 240.064 143.317 240.544C142.997 240.992 142.837 241.568 142.837 242.272C142.837 243.648 143.269 244.608 144.133 245.152C144.997 245.664 146.165 245.92 147.637 245.92ZM147.157 224.272C149.077 224.272 150.693 224.512 152.005 224.992C153.317 225.472 154.357 226.144 155.125 227.008C155.925 227.872 156.485 228.928 156.805 230.176C157.157 231.392 157.333 232.736 157.333 234.208V249.424C156.437 249.616 155.077 249.84 153.253 250.096C151.461 250.384 149.429 250.528 147.157 250.528C145.653 250.528 144.277 250.384 143.029 250.096C141.781 249.808 140.709 249.344 139.813 248.704C138.949 248.064 138.261 247.232 137.749 246.208C137.269 245.184 137.029 243.92 137.029 242.416C137.029 240.976 137.301 239.76 137.845 238.768C138.421 237.776 139.189 236.976 140.149 236.368C141.109 235.728 142.213 235.28 143.461 235.024C144.741 234.736 146.069 234.592 147.445 234.592C148.085 234.592 148.757 234.64 149.461 234.736C150.165 234.8 150.917 234.928 151.717 235.12V234.16C151.717 233.488 151.637 232.848 151.477 232.24C151.317 231.632 151.029 231.104 150.613 230.656C150.229 230.176 149.701 229.808 149.029 229.552C148.389 229.296 147.573 229.168 146.581 229.168C145.237 229.168 144.005 229.264 142.885 229.456C141.765 229.648 140.853 229.872 140.149 230.128L139.429 225.424C140.165 225.168 141.237 224.912 142.645 224.656C144.053 224.4 145.557 224.272 147.157 224.272ZM164.158 218.272L169.966 217.312V224.896H178.894V229.744H169.966V239.968C169.966 241.984 170.286 243.424 170.926 244.288C171.566 245.152 172.654 245.584 174.19 245.584C175.246 245.584 176.174 245.472 176.974 245.248C177.806 245.024 178.462 244.816 178.942 244.624L179.902 249.232C179.23 249.52 178.35 249.808 177.262 250.096C176.174 250.416 174.894 250.576 173.422 250.576C171.63 250.576 170.126 250.336 168.91 249.856C167.726 249.376 166.782 248.688 166.078 247.792C165.374 246.864 164.878 245.76 164.59 244.48C164.302 243.168 164.158 241.68 164.158 240.016V218.272ZM206.65 237.424C206.65 239.408 206.362 241.216 205.786 242.848C205.21 244.48 204.394 245.872 203.338 247.024C202.282 248.176 201.002 249.072 199.498 249.712C198.026 250.352 196.394 250.672 194.602 250.672C192.81 250.672 191.178 250.352 189.706 249.712C188.234 249.072 186.97 248.176 185.914 247.024C184.858 245.872 184.026 244.48 183.418 242.848C182.842 241.216 182.554 239.408 182.554 237.424C182.554 235.44 182.842 233.648 183.418 232.048C184.026 230.416 184.858 229.024 185.914 227.872C187.002 226.72 188.282 225.84 189.754 225.232C191.226 224.592 192.842 224.272 194.602 224.272C196.362 224.272 197.978 224.592 199.45 225.232C200.954 225.84 202.234 226.72 203.29 227.872C204.346 229.024 205.162 230.416 205.738 232.048C206.346 233.648 206.65 235.44 206.65 237.424ZM200.698 237.424C200.698 234.928 200.154 232.96 199.066 231.52C198.01 230.048 196.522 229.312 194.602 229.312C192.682 229.312 191.178 230.048 190.09 231.52C189.034 232.96 188.506 234.928 188.506 237.424C188.506 239.952 189.034 241.952 190.09 243.424C191.178 244.896 192.682 245.632 194.602 245.632C196.522 245.632 198.01 244.896 199.066 243.424C200.154 241.952 200.698 239.952 200.698 237.424ZM226.938 230.128C226.458 229.968 225.786 229.808 224.922 229.648C224.09 229.456 223.114 229.36 221.994 229.36C221.354 229.36 220.666 229.424 219.93 229.552C219.226 229.68 218.73 229.792 218.442 229.888V250H212.634V226.096C213.754 225.68 215.146 225.296 216.81 224.944C218.506 224.56 220.378 224.368 222.426 224.368C222.81 224.368 223.258 224.4 223.77 224.464C224.282 224.496 224.794 224.56 225.306 224.656C225.818 224.72 226.314 224.816 226.794 224.944C227.274 225.04 227.658 225.136 227.946 225.232L226.938 230.128Z" fill="#323232"/>
</g>
<defs>
<filter id="filter0_d" x="0.424475" y="0.176585" width="232.964" height="231.225" filterUnits="userSpaceOnUse" color-interpolation-filters="sRGB">
<feFlood flood-opacity="0" result="BackgroundImageFix"/>
<feColorMatrix in="SourceAlpha" type="matrix" values="0 0 0 0 0 0 0 0 0 0 0 0 0 0 0 0 0 0 127 0"/>
<feOffset dy="10.4312"/>
<feGaussianBlur stdDeviation="9.12732"/>
<feColorMatrix type="matrix" values="0 0 0 0 0.0583333 0 0 0 0 0.0583333 0 0 0 0 0.0583333 0 0 0 0.5 0"/>
<feBlend mode="normal" in2="BackgroundImageFix" result="effect1_dropShadow"/>
<feBlend mode="normal" in="SourceGraphic" in2="effect1_dropShadow" result="shape"/>
</filter>
<filter id="filter1_d" x="0.0698404" y="209.275" width="234.83" height="51.8283" filterUnits="userSpaceOnUse" color-interpolation-filters="sRGB">
<feFlood flood-opacity="0" result="BackgroundImageFix"/>
<feColorMatrix in="SourceAlpha" type="matrix" values="0 0 0 0 0 0 0 0 0 0 0 0 0 0 0 0 0 0 127 0"/>
<feOffset dy="3.47707"/>
<feGaussianBlur stdDeviation="3.47707"/>
<feColorMatrix type="matrix" values="0 0 0 0 0.0583333 0 0 0 0 0.0583333 0 0 0 0 0.0583333 0 0 0 0.5 0"/>
<feBlend mode="normal" in2="BackgroundImageFix" result="effect1_dropShadow"/>
<feBlend mode="normal" in="SourceGraphic" in2="effect1_dropShadow" result="shape"/>
</filter>
<clipPath id="clip0">
<rect width="196.455" height="194.716" fill="white" transform="translate(18.6791 8)"/>
</clipPath>
</defs>
</svg>
