<svg width="233" height="270" viewBox="0 0 233 270" fill="none" xmlns="http://www.w3.org/2000/svg">
<g filter="url(#filter0_d)">
<path d="M11.48 257.928C11.064 257.928 10.488 257.88 9.752 257.784C8.984 257.72 8.312 257.576 7.736 257.352L8.504 252.6C9.208 252.824 10.056 252.936 11.048 252.936C12.392 252.936 13.336 252.536 13.88 251.736C14.424 250.968 14.696 249.8 14.696 248.232V223.896H20.504V248.328C20.504 251.592 19.72 254.008 18.152 255.576C16.616 257.144 14.392 257.928 11.48 257.928ZM21.128 216.552C21.128 217.64 20.776 218.504 20.072 219.144C19.368 219.784 18.536 220.104 17.576 220.104C16.584 220.104 15.736 219.784 15.032 219.144C14.328 218.504 13.976 217.64 13.976 216.552C13.976 215.432 14.328 214.552 15.032 213.912C15.736 213.272 16.584 212.952 17.576 212.952C18.536 212.952 19.368 213.272 20.072 213.912C20.776 214.552 21.128 215.432 21.128 216.552ZM36.7468 244.92C38.5388 244.92 39.8988 244.824 40.8268 244.632V238.2C40.5068 238.104 40.0428 238.008 39.4348 237.912C38.8268 237.816 38.1548 237.768 37.4188 237.768C36.7788 237.768 36.1228 237.816 35.4508 237.912C34.8108 238.008 34.2188 238.184 33.6748 238.44C33.1628 238.696 32.7468 239.064 32.4268 239.544C32.1068 239.992 31.9468 240.568 31.9468 241.272C31.9468 242.648 32.3788 243.608 33.2428 244.152C34.1068 244.664 35.2748 244.92 36.7468 244.92ZM36.2668 223.272C38.1868 223.272 39.8028 223.512 41.1148 223.992C42.4268 224.472 43.4668 225.144 44.2348 226.008C45.0348 226.872 45.5948 227.928 45.9148 229.176C46.2668 230.392 46.4428 231.736 46.4428 233.208V248.424C45.5468 248.616 44.1868 248.84 42.3628 249.096C40.5708 249.384 38.5388 249.528 36.2668 249.528C34.7628 249.528 33.3868 249.384 32.1388 249.096C30.8908 248.808 29.8188 248.344 28.9228 247.704C28.0588 247.064 27.3708 246.232 26.8588 245.208C26.3788 244.184 26.1388 242.92 26.1388 241.416C26.1388 239.976 26.4108 238.76 26.9548 237.768C27.5308 236.776 28.2988 235.976 29.2588 235.368C30.2188 234.728 31.3228 234.28 32.5708 234.024C33.8508 233.736 35.1788 233.592 36.5547 233.592C37.1948 233.592 37.8668 233.64 38.5708 233.736C39.2748 233.8 40.0268 233.928 40.8268 234.12V233.16C40.8268 232.488 40.7468 231.848 40.5868 231.24C40.4268 230.632 40.1388 230.104 39.7228 229.656C39.3388 229.176 38.8108 228.808 38.1388 228.552C37.4988 228.296 36.6828 228.168 35.6908 228.168C34.3468 228.168 33.1148 228.264 31.9948 228.456C30.8748 228.648 29.9628 228.872 29.2588 229.128L28.5388 224.424C29.2748 224.168 30.3468 223.912 31.7548 223.656C33.1628 223.4 34.6668 223.272 36.2668 223.272ZM59.378 249C57.778 245.704 56.13 241.928 54.434 237.672C52.77 233.384 51.25 228.792 49.874 223.896H56.066C56.418 225.304 56.818 226.824 57.266 228.456C57.746 230.056 58.242 231.672 58.754 233.304C59.298 234.904 59.842 236.472 60.386 238.008C60.962 239.512 61.49 240.872 61.97 242.088C62.45 240.872 62.962 239.512 63.506 238.008C64.05 236.472 64.578 234.904 65.09 233.304C65.634 231.672 66.146 230.056 66.626 228.456C67.106 226.824 67.522 225.304 67.874 223.896H73.874C72.498 228.792 70.962 233.384 69.266 237.672C67.602 241.928 65.97 245.704 64.37 249H59.378ZM87.0436 244.92C88.8356 244.92 90.1956 244.824 91.1236 244.632V238.2C90.8036 238.104 90.3396 238.008 89.7316 237.912C89.1236 237.816 88.4516 237.768 87.7156 237.768C87.0756 237.768 86.4196 237.816 85.7476 237.912C85.1076 238.008 84.5156 238.184 83.9716 238.44C83.4596 238.696 83.0436 239.064 82.7236 239.544C82.4036 239.992 82.2436 240.568 82.2436 241.272C82.2436 242.648 82.6756 243.608 83.5396 244.152C84.4036 244.664 85.5716 244.92 87.0436 244.92ZM86.5636 223.272C88.4836 223.272 90.0996 223.512 91.4116 223.992C92.7236 224.472 93.7636 225.144 94.5316 226.008C95.3316 226.872 95.8916 227.928 96.2116 229.176C96.5636 230.392 96.7396 231.736 96.7396 233.208V248.424C95.8436 248.616 94.4836 248.84 92.6596 249.096C90.8676 249.384 88.8356 249.528 86.5636 249.528C85.0596 249.528 83.6836 249.384 82.4356 249.096C81.1876 248.808 80.1156 248.344 79.2196 247.704C78.3556 247.064 77.6676 246.232 77.1556 245.208C76.6756 244.184 76.4356 242.92 76.4356 241.416C76.4356 239.976 76.7076 238.76 77.2516 237.768C77.8276 236.776 78.5956 235.976 79.5556 235.368C80.5156 234.728 81.6196 234.28 82.8676 234.024C84.1476 233.736 85.4756 233.592 86.8516 233.592C87.4916 233.592 88.1636 233.64 88.8676 233.736C89.5716 233.8 90.3236 233.928 91.1236 234.12V233.16C91.1236 232.488 91.0436 231.848 90.8836 231.24C90.7236 230.632 90.4356 230.104 90.0196 229.656C89.6356 229.176 89.1076 228.808 88.4356 228.552C87.7956 228.296 86.9796 228.168 85.9876 228.168C84.6436 228.168 83.4116 228.264 82.2916 228.456C81.1716 228.648 80.2596 228.872 79.5556 229.128L78.8356 224.424C79.5716 224.168 80.6436 223.912 82.0516 223.656C83.4596 223.4 84.9636 223.272 86.5636 223.272ZM110.14 244.824C111.676 244.824 112.796 244.648 113.5 244.296C114.204 243.912 114.556 243.272 114.556 242.376C114.556 241.544 114.172 240.856 113.404 240.312C112.668 239.768 111.436 239.176 109.708 238.536C108.652 238.152 107.676 237.752 106.78 237.336C105.916 236.888 105.164 236.376 104.524 235.8C103.884 235.224 103.372 234.536 102.988 233.736C102.636 232.904 102.46 231.896 102.46 230.712C102.46 228.408 103.308 226.6 105.004 225.288C106.7 223.944 109.004 223.272 111.916 223.272C113.388 223.272 114.796 223.416 116.14 223.704C117.484 223.96 118.492 224.216 119.164 224.472L118.108 229.176C117.468 228.888 116.652 228.632 115.66 228.408C114.668 228.152 113.516 228.024 112.204 228.024C111.02 228.024 110.06 228.232 109.324 228.648C108.588 229.032 108.22 229.64 108.22 230.472C108.22 230.888 108.284 231.256 108.412 231.576C108.572 231.896 108.828 232.2 109.18 232.488C109.532 232.744 109.996 233.016 110.572 233.304C111.148 233.56 111.852 233.832 112.684 234.12C114.06 234.632 115.228 235.144 116.188 235.656C117.148 236.136 117.932 236.696 118.54 237.336C119.18 237.944 119.644 238.648 119.932 239.448C120.22 240.248 120.364 241.208 120.364 242.328C120.364 244.728 119.468 246.552 117.676 247.8C115.916 249.016 113.388 249.624 110.092 249.624C107.884 249.624 106.108 249.432 104.764 249.048C103.42 248.696 102.476 248.408 101.932 248.184L102.94 243.336C103.804 243.688 104.828 244.024 106.012 244.344C107.228 244.664 108.604 244.824 110.14 244.824ZM124.398 236.472C124.398 234.616 124.686 232.888 125.262 231.288C125.838 229.656 126.654 228.248 127.71 227.064C128.798 225.88 130.11 224.952 131.646 224.28C133.182 223.608 134.91 223.272 136.83 223.272C139.198 223.272 141.438 223.704 143.55 224.568L142.302 229.32C141.63 229.032 140.862 228.792 139.998 228.6C139.166 228.408 138.27 228.312 137.31 228.312C135.038 228.312 133.31 229.032 132.126 230.472C130.942 231.88 130.35 233.88 130.35 236.472C130.35 238.968 130.91 240.952 132.03 242.424C133.15 243.864 135.038 244.584 137.694 244.584C138.686 244.584 139.662 244.488 140.622 244.296C141.582 244.104 142.414 243.864 143.118 243.576L143.934 248.376C143.294 248.696 142.318 248.984 141.006 249.24C139.726 249.496 138.398 249.624 137.022 249.624C134.878 249.624 133.006 249.304 131.406 248.664C129.838 247.992 128.526 247.08 127.47 245.928C126.446 244.744 125.678 243.352 125.166 241.752C124.654 240.12 124.398 238.36 124.398 236.472ZM162.734 229.128C162.254 228.968 161.582 228.808 160.718 228.648C159.886 228.456 158.91 228.36 157.79 228.36C157.15 228.36 156.462 228.424 155.726 228.552C155.022 228.68 154.526 228.792 154.238 228.888V249H148.43V225.096C149.55 224.68 150.942 224.296 152.606 223.944C154.302 223.56 156.174 223.368 158.222 223.368C158.606 223.368 159.054 223.4 159.566 223.464C160.078 223.496 160.59 223.56 161.102 223.656C161.614 223.72 162.11 223.816 162.59 223.944C163.07 224.04 163.454 224.136 163.742 224.232L162.734 229.128ZM173.646 249H167.838V223.896H173.646V249ZM174.27 216.552C174.27 217.64 173.918 218.504 173.214 219.144C172.51 219.784 171.678 220.104 170.718 220.104C169.726 220.104 168.878 219.784 168.174 219.144C167.47 218.504 167.118 217.64 167.118 216.552C167.118 215.432 167.47 214.552 168.174 213.912C168.878 213.272 169.726 212.952 170.718 212.952C171.678 212.952 172.51 213.272 173.214 213.912C173.918 214.552 174.27 215.432 174.27 216.552ZM197.711 236.568C197.711 233.976 197.119 231.96 195.935 230.52C194.783 229.08 192.911 228.36 190.319 228.36C189.775 228.36 189.199 228.392 188.591 228.456C188.015 228.488 187.439 228.584 186.863 228.744V243.096C187.375 243.448 188.047 243.784 188.879 244.104C189.743 244.392 190.655 244.536 191.615 244.536C193.727 244.536 195.263 243.816 196.223 242.376C197.215 240.936 197.711 239 197.711 236.568ZM203.663 236.472C203.663 238.392 203.407 240.152 202.895 241.752C202.415 243.352 201.711 244.728 200.783 245.88C199.855 247.032 198.687 247.928 197.279 248.568C195.903 249.208 194.335 249.528 192.575 249.528C191.391 249.528 190.303 249.384 189.311 249.096C188.319 248.808 187.503 248.488 186.863 248.136V257.88H181.055V224.712C182.239 224.392 183.695 224.088 185.423 223.8C187.151 223.512 188.975 223.368 190.895 223.368C192.879 223.368 194.655 223.672 196.223 224.28C197.791 224.888 199.119 225.768 200.207 226.92C201.327 228.04 202.175 229.416 202.751 231.048C203.359 232.648 203.663 234.456 203.663 236.472ZM209.361 217.272L215.169 216.312V223.896H224.097V228.744H215.169V238.968C215.169 240.984 215.489 242.424 216.129 243.288C216.769 244.152 217.857 244.584 219.393 244.584C220.449 244.584 221.377 244.472 222.177 244.248C223.009 244.024 223.665 243.816 224.145 243.624L225.105 248.232C224.433 248.52 223.553 248.808 222.465 249.096C221.377 249.416 220.097 249.576 218.625 249.576C216.833 249.576 215.329 249.336 214.113 248.856C212.929 248.376 211.985 247.688 211.281 246.792C210.577 245.864 210.081 244.76 209.793 243.48C209.505 242.168 209.361 240.68 209.361 239.016V217.272Z" fill="#323232"/>
</g>
<g filter="url(#filter1_d)">
<path d="M213.515 98.8922C213.515 111.07 211.187 122.703 206.948 133.374C204.682 139.082 201.87 144.515 198.574 149.604C194.469 155.953 189.612 161.771 184.133 166.93C180.924 169.955 177.506 172.752 173.897 175.3C158.674 186.051 140.098 192.366 120.041 192.366C99.9844 192.366 81.4081 186.051 66.185 175.3C61.6676 172.111 57.4482 168.536 53.5756 164.614C36.8763 147.731 26.5676 124.512 26.5676 98.8922C26.5676 73.2728 36.8763 50.0534 53.5756 33.1708C57.6771 29.02 62.1675 25.2541 66.9861 21.9274C82.0565 11.5153 100.335 5.4187 120.041 5.4187C139.747 5.4187 158.026 11.5153 173.096 21.9274C176.778 24.4647 180.265 27.2648 183.534 30.298C189.261 35.5935 194.32 41.6024 198.574 48.1799C201.871 53.2695 204.682 58.7022 206.949 64.41C211.187 75.0813 213.515 86.714 213.515 98.8922Z" fill="#E4BA42"/>
<g filter="url(#filter2_d)">
<path d="M156.667 85.4423C153.915 77.4593 142.628 77.4593 140.426 84.0659C138.224 90.6724 145.656 94.526 157.218 98.3804C168.78 102.234 175.937 112.42 174.561 121.504C173.184 130.587 169.33 142.425 146.482 142.425C132.203 142.425 124.267 133.499 120.323 126.806L133.269 119.026C133.269 119.026 137.673 128.386 145.931 128.386C154.19 128.386 157.493 125.633 157.493 119.302C157.493 111.594 130.791 108.841 126.662 95.6278C122.533 82.4143 128.038 63.6956 147.308 65.0717C159.351 65.9321 166.126 71.846 169.513 76.1605L156.667 85.4423Z" fill="#323232"/>
<path d="M96.6567 66.449C96.6567 66.449 96.6567 112.971 96.6567 119.302C96.6567 125.633 91.1512 128.937 85.6457 127.836C80.1401 126.735 77.6626 120.128 77.6626 120.128L65 128.662C65 128.662 67.7526 141.324 85.0951 142.426C102.438 143.527 112.347 133.066 112.347 124.257C112.347 115.448 112.347 66.449 112.347 66.449H96.6567Z" fill="#323232"/>
</g>
</g>
<defs>
<filter id="filter0_d" x="0.790154" y="209.479" width="231.261" height="58.8677" filterUnits="userSpaceOnUse" color-interpolation-filters="sRGB">
<feFlood flood-opacity="0" result="BackgroundImageFix"/>
<feColorMatrix in="SourceAlpha" type="matrix" values="0 0 0 0 0 0 0 0 0 0 0 0 0 0 0 0 0 0 127 0"/>
<feOffset dy="3.47292"/>
<feGaussianBlur stdDeviation="3.47292"/>
<feColorMatrix type="matrix" values="0 0 0 0 0.0583333 0 0 0 0 0.0583333 0 0 0 0 0.0583333 0 0 0 0.5 0"/>
<feBlend mode="normal" in2="BackgroundImageFix" result="effect1_dropShadow"/>
<feBlend mode="normal" in="SourceGraphic" in2="effect1_dropShadow" result="shape"/>
</filter>
<filter id="filter1_d" x="8.80215" y="-5.20938" width="222.11" height="222.11" filterUnits="userSpaceOnUse" color-interpolation-filters="sRGB">
<feFlood flood-opacity="0" result="BackgroundImageFix"/>
<feColorMatrix in="SourceAlpha" type="matrix" values="0 0 0 0 0 0 0 0 0 0 0 0 0 0 0 0 0 0 127 0"/>
<feOffset dy="6.94584"/>
<feGaussianBlur stdDeviation="6.07761"/>
<feColorMatrix type="matrix" values="0 0 0 0 0.0583333 0 0 0 0 0.0583333 0 0 0 0 0.0583333 0 0 0 0.5 0"/>
<feBlend mode="normal" in2="BackgroundImageFix" result="effect1_dropShadow"/>
<feBlend mode="normal" in="SourceGraphic" in2="effect1_dropShadow" result="shape"/>
</filter>
<filter id="filter2_d" x="58.0542" y="61.5271" width="123.621" height="91.3976" filterUnits="userSpaceOnUse" color-interpolation-filters="sRGB">
<feFlood flood-opacity="0" result="BackgroundImageFix"/>
<feColorMatrix in="SourceAlpha" type="matrix" values="0 0 0 0 0 0 0 0 0 0 0 0 0 0 0 0 0 0 127 0"/>
<feOffset dy="3.47292"/>
<feGaussianBlur stdDeviation="3.47292"/>
<feColorMatrix type="matrix" values="0 0 0 0 0.225 0 0 0 0 0.225 0 0 0 0 0.225 0 0 0 0.5 0"/>
<feBlend mode="normal" in2="BackgroundImageFix" result="effect1_dropShadow"/>
<feBlend mode="normal" in="SourceGraphic" in2="effect1_dropShadow" result="shape"/>
</filter>
</defs>
</svg>
