<svg width="143" height="172" viewBox="0 0 143 172" fill="none" xmlns="http://www.w3.org/2000/svg">
<g filter="url(#filter0_d)">
<path d="M7.2951 165.489C7.03935 165.489 6.68523 165.459 6.23274 165.4C5.76058 165.361 5.34744 165.272 4.99332 165.135L5.46548 162.213C5.89829 162.351 6.41964 162.42 7.02951 162.42C7.85579 162.42 8.43615 162.174 8.7706 161.682C9.10505 161.21 9.27227 160.492 9.27227 159.528V144.566H12.843V159.587C12.843 161.594 12.361 163.079 11.397 164.043C10.4527 165.007 9.08537 165.489 7.2951 165.489ZM13.2266 140.051C13.2266 140.72 13.0102 141.251 12.5774 141.645C12.1446 142.038 11.6331 142.235 11.0429 142.235C10.433 142.235 9.91165 142.038 9.47884 141.645C9.04603 141.251 8.82962 140.72 8.82962 140.051C8.82962 139.363 9.04603 138.822 9.47884 138.428C9.91165 138.035 10.433 137.838 11.0429 137.838C11.6331 137.838 12.1446 138.035 12.5774 138.428C13.0102 138.822 13.2266 139.363 13.2266 140.051ZM22.8289 157.492C23.9306 157.492 24.7667 157.433 25.3372 157.315V153.36C25.1405 153.301 24.8552 153.242 24.4814 153.183C24.1077 153.124 23.6945 153.095 23.242 153.095C22.8486 153.095 22.4453 153.124 22.0321 153.183C21.6387 153.242 21.2747 153.35 20.9402 153.508C20.6255 153.665 20.3697 153.891 20.173 154.187C19.9763 154.462 19.8779 154.816 19.8779 155.249C19.8779 156.095 20.1435 156.685 20.6747 157.019C21.2058 157.334 21.9239 157.492 22.8289 157.492ZM22.5338 144.183C23.7142 144.183 24.7077 144.33 25.5143 144.625C26.3209 144.92 26.9603 145.334 27.4324 145.865C27.9243 146.396 28.2686 147.045 28.4653 147.812C28.6817 148.56 28.7899 149.386 28.7899 150.291V159.646C28.2391 159.764 27.4029 159.902 26.2816 160.059C25.1799 160.236 23.9306 160.325 22.5338 160.325C21.6091 160.325 20.7632 160.236 19.9959 160.059C19.2287 159.882 18.5696 159.597 18.0188 159.203C17.4876 158.81 17.0646 158.298 16.7498 157.669C16.4547 157.039 16.3072 156.262 16.3072 155.337C16.3072 154.452 16.4744 153.705 16.8088 153.095C17.163 152.485 17.6351 151.993 18.2253 151.619C18.8155 151.226 19.4943 150.95 20.2615 150.793C21.0485 150.616 21.8649 150.527 22.7108 150.527C23.1043 150.527 23.5175 150.557 23.9503 150.616C24.3831 150.655 24.8454 150.734 25.3372 150.852V150.262C25.3372 149.849 25.2881 149.455 25.1897 149.081C25.0913 148.708 24.9143 148.383 24.6585 148.107C24.4224 147.812 24.0978 147.586 23.6847 147.429C23.2912 147.271 22.7895 147.193 22.1797 147.193C21.3534 147.193 20.596 147.252 19.9074 147.37C19.2188 147.488 18.6581 147.625 18.2253 147.783L17.7827 144.891C18.2352 144.733 18.8942 144.576 19.7598 144.419C20.6255 144.261 21.5501 144.183 22.5338 144.183ZM36.7424 160C35.7587 157.974 34.7455 155.652 33.7029 153.036C32.6798 150.399 31.7454 147.576 30.8994 144.566H34.7062C34.9226 145.432 35.1685 146.366 35.444 147.37C35.7391 148.353 36.044 149.347 36.3588 150.35C36.6932 151.334 37.0277 152.298 37.3621 153.242C37.7162 154.167 38.0408 155.003 38.3359 155.751C38.631 155.003 38.9458 154.167 39.2803 153.242C39.6147 152.298 39.9393 151.334 40.2541 150.35C40.5885 149.347 40.9033 148.353 41.1984 147.37C41.4935 146.366 41.7493 145.432 41.9657 144.566H45.6544C44.8085 147.576 43.8641 150.399 42.8215 153.036C41.7984 155.652 40.7951 157.974 39.8114 160H36.7424ZM53.751 157.492C54.8527 157.492 55.6888 157.433 56.2593 157.315V153.36C56.0626 153.301 55.7773 153.242 55.4035 153.183C55.0298 153.124 54.6166 153.095 54.1641 153.095C53.7707 153.095 53.3674 153.124 52.9542 153.183C52.5608 153.242 52.1968 153.35 51.8623 153.508C51.5476 153.665 51.2918 153.891 51.0951 154.187C50.8984 154.462 50.8 154.816 50.8 155.249C50.8 156.095 51.0656 156.685 51.5968 157.019C52.1279 157.334 52.846 157.492 53.751 157.492ZM53.4559 144.183C54.6363 144.183 55.6298 144.33 56.4364 144.625C57.243 144.92 57.8824 145.334 58.3545 145.865C58.8464 146.396 59.1907 147.045 59.3874 147.812C59.6038 148.56 59.712 149.386 59.712 150.291V159.646C59.1612 159.764 58.325 159.902 57.2037 160.059C56.102 160.236 54.8527 160.325 53.4559 160.325C52.5312 160.325 51.6853 160.236 50.918 160.059C50.1508 159.882 49.4917 159.597 48.9409 159.203C48.4097 158.81 47.9867 158.298 47.6719 157.669C47.3768 157.039 47.2293 156.262 47.2293 155.337C47.2293 154.452 47.3965 153.705 47.7309 153.095C48.0851 152.485 48.5572 151.993 49.1474 151.619C49.7376 151.226 50.4164 150.95 51.1836 150.793C51.9706 150.616 52.787 150.527 53.6329 150.527C54.0264 150.527 54.4396 150.557 54.8724 150.616C55.3052 150.655 55.7675 150.734 56.2593 150.852V150.262C56.2593 149.849 56.2102 149.455 56.1118 149.081C56.0134 148.708 55.8364 148.383 55.5806 148.107C55.3445 147.812 55.0199 147.586 54.6068 147.429C54.2133 147.271 53.7116 147.193 53.1018 147.193C52.2755 147.193 51.5181 147.252 50.8295 147.37C50.1409 147.488 49.5802 147.625 49.1474 147.783L48.7048 144.891C49.1573 144.733 49.8163 144.576 50.6819 144.419C51.5476 144.261 52.4722 144.183 53.4559 144.183ZM67.9506 157.433C68.8949 157.433 69.5835 157.324 70.0163 157.108C70.4491 156.872 70.6655 156.478 70.6655 155.928C70.6655 155.416 70.4294 154.993 69.9573 154.659C69.5048 154.324 68.7474 153.96 67.685 153.567C67.0358 153.331 66.4358 153.085 65.8849 152.829C65.3537 152.554 64.8914 152.239 64.4979 151.885C64.1045 151.531 63.7897 151.108 63.5536 150.616C63.3372 150.104 63.229 149.485 63.229 148.757C63.229 147.34 63.7503 146.229 64.793 145.422C65.8357 144.596 67.2522 144.183 69.0425 144.183C69.9474 144.183 70.8131 144.271 71.6393 144.448C72.4656 144.606 73.0853 144.763 73.4985 144.92L72.8493 147.812C72.4558 147.635 71.9541 147.478 71.3442 147.34C70.7344 147.183 70.0261 147.104 69.2195 147.104C68.4916 147.104 67.9014 147.232 67.4489 147.488C66.9964 147.724 66.7702 148.098 66.7702 148.609C66.7702 148.865 66.8095 149.091 66.8882 149.288C66.9866 149.485 67.144 149.671 67.3604 149.849C67.5768 150.006 67.8621 150.173 68.2162 150.35C68.5703 150.508 69.0031 150.675 69.5146 150.852C70.3606 151.167 71.0787 151.481 71.6689 151.796C72.2591 152.091 72.7411 152.436 73.1148 152.829C73.5083 153.203 73.7936 153.636 73.9706 154.128C74.1477 154.619 74.2362 155.21 74.2362 155.898C74.2362 157.374 73.6854 158.495 72.5837 159.262C71.5016 160.01 69.9474 160.384 67.9211 160.384C66.5636 160.384 65.4718 160.266 64.6455 160.03C63.8192 159.813 63.2388 159.636 62.9044 159.498L63.5241 156.518C64.0553 156.734 64.6848 156.941 65.4127 157.138C66.1603 157.334 67.0063 157.433 67.9506 157.433ZM76.716 152.298C76.716 151.157 76.8931 150.094 77.2472 149.111C77.6013 148.107 78.103 147.242 78.7522 146.514C79.4211 145.786 80.2277 145.215 81.172 144.802C82.1163 144.389 83.1787 144.183 84.3591 144.183C85.8149 144.183 87.192 144.448 88.4905 144.979L87.7232 147.901C87.3101 147.724 86.8379 147.576 86.3067 147.458C85.7952 147.34 85.2444 147.281 84.6542 147.281C83.2574 147.281 82.195 147.724 81.4671 148.609C80.7392 149.475 80.3752 150.704 80.3752 152.298C80.3752 153.832 80.7195 155.052 81.4081 155.957C82.0967 156.842 83.2574 157.285 84.8903 157.285C85.5001 157.285 86.1002 157.226 86.6904 157.108C87.2806 156.99 87.7921 156.842 88.2249 156.665L88.7266 159.616C88.3331 159.813 87.7331 159.99 86.9265 160.148C86.1395 160.305 85.3231 160.384 84.4771 160.384C83.159 160.384 82.0081 160.187 81.0245 159.793C80.0605 159.38 79.2539 158.82 78.6046 158.111C77.9751 157.383 77.5029 156.528 77.1882 155.544C76.8734 154.541 76.716 153.459 76.716 152.298ZM100.285 147.783C99.9899 147.684 99.5768 147.586 99.0456 147.488C98.5341 147.37 97.9341 147.311 97.2455 147.311C96.852 147.311 96.4291 147.35 95.9766 147.429C95.5438 147.507 95.2388 147.576 95.0618 147.635V160H91.4911V145.304C92.1796 145.048 93.0354 144.812 94.0584 144.596C95.1011 144.36 96.252 144.242 97.5111 144.242C97.7472 144.242 98.0226 144.261 98.3374 144.301C98.6521 144.32 98.9669 144.36 99.2817 144.419C99.5965 144.458 99.9014 144.517 100.197 144.596C100.492 144.655 100.728 144.714 100.905 144.773L100.285 147.783ZM106.993 160H103.423V144.566H106.993V160ZM107.377 140.051C107.377 140.72 107.16 141.251 106.728 141.645C106.295 142.038 105.783 142.235 105.193 142.235C104.583 142.235 104.062 142.038 103.629 141.645C103.196 141.251 102.98 140.72 102.98 140.051C102.98 139.363 103.196 138.822 103.629 138.428C104.062 138.035 104.583 137.838 105.193 137.838C105.783 137.838 106.295 138.035 106.728 138.428C107.16 138.822 107.377 139.363 107.377 140.051ZM121.789 152.357C121.789 150.763 121.425 149.524 120.697 148.639C119.988 147.753 118.838 147.311 117.244 147.311C116.91 147.311 116.555 147.33 116.182 147.37C115.828 147.389 115.473 147.448 115.119 147.547V156.37C115.434 156.587 115.847 156.793 116.359 156.99C116.89 157.167 117.451 157.256 118.041 157.256C119.339 157.256 120.284 156.813 120.874 155.928C121.484 155.042 121.789 153.852 121.789 152.357ZM125.448 152.298C125.448 153.478 125.29 154.56 124.976 155.544C124.681 156.528 124.248 157.374 123.677 158.082C123.107 158.79 122.389 159.341 121.523 159.734C120.677 160.128 119.713 160.325 118.631 160.325C117.903 160.325 117.234 160.236 116.624 160.059C116.014 159.882 115.513 159.685 115.119 159.469V165.459H111.549V145.068C112.277 144.871 113.172 144.684 114.234 144.507C115.296 144.33 116.418 144.242 117.598 144.242C118.818 144.242 119.91 144.429 120.874 144.802C121.838 145.176 122.654 145.717 123.323 146.425C124.012 147.114 124.533 147.96 124.887 148.963C125.261 149.947 125.448 151.058 125.448 152.298ZM128.951 140.494L132.521 139.904V144.566H138.01V147.547H132.521V153.832C132.521 155.072 132.718 155.957 133.112 156.488C133.505 157.019 134.174 157.285 135.118 157.285C135.768 157.285 136.338 157.216 136.83 157.079C137.341 156.941 137.745 156.813 138.04 156.695L138.63 159.528C138.217 159.705 137.676 159.882 137.007 160.059C136.338 160.256 135.551 160.354 134.646 160.354C133.544 160.354 132.62 160.207 131.872 159.911C131.144 159.616 130.564 159.193 130.131 158.643C129.698 158.072 129.393 157.393 129.216 156.606C129.039 155.8 128.951 154.885 128.951 153.862V140.494Z" fill="#323232"/>
</g>
<g filter="url(#filter1_d)">
<path d="M133.502 65.9954C133.502 74.1225 131.949 81.8855 129.12 89.0069C127.607 92.8159 125.731 96.4415 123.531 99.8379C120.792 104.075 117.55 107.957 113.894 111.4C111.753 113.419 109.472 115.285 107.063 116.986C96.9044 124.161 84.5075 128.374 71.1229 128.374C57.7382 128.374 45.3414 124.161 35.1824 116.986C32.1677 114.857 29.3519 112.472 26.7675 109.854C15.6234 98.5877 8.74393 83.0924 8.74393 65.9954C8.74393 48.8985 15.6234 33.4031 26.7675 22.1367C29.5047 19.3667 32.5013 16.8535 35.717 14.6334C45.7741 7.68498 57.9724 3.61646 71.1229 3.61646C84.2734 3.61646 96.4716 7.68498 106.529 14.6334C108.986 16.3267 111.313 18.1953 113.495 20.2195C117.316 23.7534 120.692 27.7634 123.531 32.1529C125.731 35.5494 127.608 39.1749 129.12 42.9839C131.949 50.1053 133.502 57.8684 133.502 65.9954Z" fill="#E4BA42"/>
<g filter="url(#filter2_d)">
<path d="M95.565 57.0193C93.7281 51.6918 86.1959 51.6918 84.7266 56.1007C83.2571 60.5095 88.2171 63.0812 95.9327 65.6534C103.648 68.2253 108.425 75.0226 107.506 81.0845C106.588 87.1465 104.016 95.0461 88.7683 95.0461C79.2388 95.0461 73.9428 89.0899 71.3108 84.623L79.9503 79.4312C79.9503 79.4312 82.8897 85.6772 88.4007 85.6772C93.9119 85.6772 96.1162 83.8403 96.1162 79.615C96.1162 74.4714 78.2967 72.6345 75.5412 63.8165C72.7857 54.9985 76.4598 42.5067 89.319 43.4251C97.3563 43.9992 101.877 47.9458 104.138 50.8251L95.565 57.0193Z" fill="#323232"/>
<path d="M55.5175 44.3445C55.5175 44.3445 55.5175 75.3905 55.5175 79.6158C55.5175 83.8408 51.8434 86.0456 48.1693 85.3106C44.4952 84.5759 42.8419 80.167 42.8419 80.167L34.3916 85.8618C34.3916 85.8618 36.2285 94.3121 47.8019 95.0472C59.3754 95.7819 65.9886 88.8011 65.9886 82.9225C65.9886 77.0439 65.9886 44.3445 65.9886 44.3445H55.5175Z" fill="#323232"/>
</g>
</g>
<defs>
<filter id="filter0_d" x="0.905888" y="135.794" width="141.812" height="35.8257" filterUnits="userSpaceOnUse" color-interpolation-filters="sRGB">
<feFlood flood-opacity="0" result="BackgroundImageFix"/>
<feColorMatrix in="SourceAlpha" type="matrix" values="0 0 0 0 0 0 0 0 0 0 0 0 0 0 0 0 0 0 127 0"/>
<feOffset dy="2.04371"/>
<feGaussianBlur stdDeviation="2.04371"/>
<feColorMatrix type="matrix" values="0 0 0 0 0.0583333 0 0 0 0 0.0583333 0 0 0 0 0.0583333 0 0 0 0.5 0"/>
<feBlend mode="normal" in2="BackgroundImageFix" result="effect1_dropShadow"/>
<feBlend mode="normal" in="SourceGraphic" in2="effect1_dropShadow" result="shape"/>
</filter>
<filter id="filter1_d" x="-2.4884" y="-3.20932" width="146.977" height="146.977" filterUnits="userSpaceOnUse" color-interpolation-filters="sRGB">
<feFlood flood-opacity="0" result="BackgroundImageFix"/>
<feColorMatrix in="SourceAlpha" type="matrix" values="0 0 0 0 0 0 0 0 0 0 0 0 0 0 0 0 0 0 127 0"/>
<feOffset dy="4.27909"/>
<feGaussianBlur stdDeviation="3.7442"/>
<feColorMatrix type="matrix" values="0 0 0 0 0.0583333 0 0 0 0 0.0583333 0 0 0 0 0.0583333 0 0 0 0.5 0"/>
<feBlend mode="normal" in2="BackgroundImageFix" result="effect1_dropShadow"/>
<feBlend mode="normal" in="SourceGraphic" in2="effect1_dropShadow" result="shape"/>
</filter>
<filter id="filter2_d" x="30.1125" y="41.2377" width="81.7853" height="60.2816" filterUnits="userSpaceOnUse" color-interpolation-filters="sRGB">
<feFlood flood-opacity="0" result="BackgroundImageFix"/>
<feColorMatrix in="SourceAlpha" type="matrix" values="0 0 0 0 0 0 0 0 0 0 0 0 0 0 0 0 0 0 127 0"/>
<feOffset dy="2.13954"/>
<feGaussianBlur stdDeviation="2.13954"/>
<feColorMatrix type="matrix" values="0 0 0 0 0.225 0 0 0 0 0.225 0 0 0 0 0.225 0 0 0 0.5 0"/>
<feBlend mode="normal" in2="BackgroundImageFix" result="effect1_dropShadow"/>
<feBlend mode="normal" in="SourceGraphic" in2="effect1_dropShadow" result="shape"/>
</filter>
</defs>
</svg>
