<svg width="215" height="266" viewBox="0 0 215 266" fill="none" xmlns="http://www.w3.org/2000/svg">
<g filter="url(#filter0_d)">
<path d="M206 103.5C206 117.712 202.989 131.225 197.569 143.427C196.689 145.421 195.736 147.379 194.727 149.301C178.239 180.636 145.364 202 107.5 202C67.6056 202 33.251 178.283 17.7646 144.179C15.0628 138.229 12.9362 131.965 11.4567 125.455C9.84841 118.395 9 111.046 9 103.5C9 49.0999 53.0999 5 107.5 5C151.753 5 189.187 34.1802 201.618 74.3521C202.012 75.6307 202.382 76.925 202.728 78.2278V78.2317C203.371 80.668 203.926 83.1324 204.384 85.6373C204.597 86.8031 204.79 87.9732 204.959 89.1509C205.075 89.9389 205.184 90.7269 205.276 91.523C205.453 92.9463 205.594 94.3814 205.706 95.8247C205.9 98.358 206 100.919 206 103.5Z" fill="#F2F2F2"/>
<path d="M150.579 34.8631C150.579 34.8631 153.434 37.7996 153.923 40.0016C153.923 40.0016 155.962 38.4518 154.575 36.005C153.188 33.5579 150.579 34.8631 150.579 34.8631Z" fill="#5181A2"/>
<path d="M202.728 78.2282C200.163 76.9377 197.831 76.1739 196.005 75.7234C193.537 75.1123 191.539 73.2951 190.674 70.903C189.565 67.8353 187.498 62.866 183.695 55.3362C176.189 40.4927 167.871 35.9255 162.407 32.0902C158.821 29.5734 154.109 29.0628 151.295 29.0066C149.876 28.9786 148.509 28.4599 147.419 27.5472C144.553 25.1351 138.916 22.3006 137.123 23.3621C134.92 24.6688 137.123 27.688 140.219 31.5195C143.318 35.3549 143.973 39.5965 146.173 45.3057C147.19 47.939 148.416 49.5312 149.438 50.48C150.507 51.477 150.857 53.0249 150.29 54.3677C148.223 59.2527 147.532 65.4397 148.702 71.1608C150.089 77.9311 153.269 77.8507 153.269 77.8507C152.944 68.7968 157.675 64.881 157.675 64.881C161.997 78.092 171.867 87.9624 171.867 87.9624C163.875 85.1078 157.921 72.0577 157.921 72.0577C157.921 72.0577 157.269 72.7091 156.698 77.035C156.127 81.3571 150.905 83.9662 147.074 74.5063C143.238 65.0423 148.215 53.1338 148.215 53.1338C146.012 51.9918 141.445 41.4707 141.445 39.8382C141.445 38.2099 139.648 34.6196 137.449 32.4164C135.245 30.2171 130.923 23.8531 135.981 20.9181C141.035 17.9793 151.07 25.8912 151.07 25.8912C166.894 25.3202 183.205 44.57 185.814 51.4208C188.423 58.2715 195.764 71.9773 195.764 71.9773C197.847 72.6087 199.805 73.4248 201.618 74.3532C202.012 75.631 202.382 76.9254 202.728 78.2282Z" fill="#5181A2"/>
<path d="M205.706 95.825C205.626 95.7889 205.549 95.7485 205.473 95.7123C200.415 93.264 198.377 88.1259 198.377 88.1259C199.688 86.8154 202.012 86.0635 204.384 85.6372C204.597 86.803 204.79 87.9731 204.959 89.1509C204.074 89.3236 203.516 89.4283 203.516 89.4283C203.516 89.927 204.211 90.6707 205.277 91.523C205.453 92.9462 205.594 94.3818 205.706 95.825Z" fill="#5181A2"/>
<path d="M60.3165 149.156H52.6093C52.6093 149.156 52.6093 131.543 50.0402 110.621L37.9266 149.156H31.6873L19.3929 110.806C19.3929 110.806 17.9615 122.075 17.7645 144.179C15.0627 138.229 12.9361 131.965 11.4567 125.456C12.0234 117.274 12.8195 108.357 13.8892 101.08H23.92L35.3579 136.681L47.4715 101.08H56.6463C56.6459 101.08 60.3165 132.46 60.3165 149.156Z" fill="#FFA600"/>
<path d="M64.5689 114.063L72.5213 113.941C72.5213 113.941 81.4524 140.735 80.5963 144.038C80.5963 144.038 86.3466 128.01 87.8149 113.941H95.6449C95.6449 113.941 91.4848 142.325 78.7614 157.251C73.9999 162.837 68.6567 162.906 63.8329 160.805V156.518C63.8329 156.518 70.442 158.842 73.8679 153.948C76.6259 150.008 73.9918 143.214 71.5832 135.991C70.9991 134.242 64.5689 114.063 64.5689 114.063Z" fill="#FFA600"/>
<path d="M100.539 145.627L102.618 141.467C102.618 141.467 116.933 147.829 120.603 141.467C124.273 135.105 120.726 131.679 113.507 127.886C106.289 124.093 98.7035 119.322 102.007 108.922C105.31 98.5229 122.806 99.2571 127.822 104.273L126.109 108.311C126.109 108.311 113.141 102.805 109.593 110.023C106.045 117.241 115.465 120.667 117.668 121.646C119.87 122.625 132.105 127.641 130.759 136.572C129.414 145.504 123.908 151.009 111.306 149.908C106.778 148.808 104.209 148.074 100.539 145.627Z" fill="#5181A2"/>
<path d="M165.004 146.209C170.411 141.863 172.731 134.132 172.731 125.319C172.731 111.726 168.819 100.706 153.365 100.706C140.057 100.706 133.998 111.726 133.998 125.319C133.998 138.912 138.429 149.932 153.365 149.932C155.528 149.932 157.49 149.663 159.259 149.156L170.765 155.906L173.579 150.399L165.004 146.209ZM153.365 144.038C144.705 144.038 142.136 135.655 142.136 125.319C142.136 114.979 144.584 106.6 153.365 106.6C162.322 106.6 164.59 114.979 164.59 125.319C164.59 135.655 162.322 144.038 153.365 144.038Z" fill="#5181A2"/>
<path d="M197.569 143.427C196.689 145.421 195.736 147.379 194.727 149.301H179.574V101.337H187.16V143.426H197.569V143.427Z" fill="#5181A2"/>
<path d="M60 230.8C60 228.176 59.664 226.288 58.992 225.136C58.352 223.952 57.136 223.36 55.344 223.36C54.704 223.36 54 223.408 53.232 223.504C52.464 223.6 51.888 223.68 51.504 223.744V244H45.696V219.712C46.816 219.392 48.272 219.088 50.064 218.8C51.888 218.512 53.808 218.368 55.824 218.368C57.552 218.368 58.96 218.592 60.048 219.04C61.168 219.488 62.096 220.08 62.832 220.816C63.184 220.56 63.632 220.288 64.176 220C64.72 219.712 65.328 219.456 66 219.232C66.672 218.976 67.376 218.768 68.112 218.608C68.88 218.448 69.648 218.368 70.416 218.368C72.368 218.368 73.968 218.656 75.216 219.232C76.496 219.776 77.488 220.56 78.192 221.584C78.928 222.576 79.424 223.792 79.68 225.232C79.968 226.64 80.112 228.192 80.112 229.888V244H74.304V230.8C74.304 228.176 73.984 226.288 73.344 225.136C72.704 223.952 71.472 223.36 69.648 223.36C68.72 223.36 67.84 223.52 67.008 223.84C66.176 224.128 65.552 224.416 65.136 224.704C65.392 225.504 65.568 226.352 65.664 227.248C65.76 228.144 65.808 229.104 65.808 230.128V244H60V230.8ZM106.973 218.896C104.381 228.432 101.373 237.072 97.9493 244.816C97.3093 246.256 96.6533 247.488 95.9813 248.512C95.3093 249.536 94.5573 250.384 93.7253 251.056C92.8933 251.728 91.9653 252.208 90.9413 252.496C89.9173 252.816 88.7333 252.976 87.3893 252.976C86.4933 252.976 85.5973 252.88 84.7013 252.688C83.8373 252.496 83.1813 252.288 82.7332 252.064L83.7893 247.408C84.9413 247.856 86.0773 248.08 87.1973 248.08C88.7013 248.08 89.8693 247.712 90.7013 246.976C91.5653 246.272 92.3173 245.168 92.9573 243.664C91.1333 240.144 89.3733 236.304 87.6773 232.144C86.0133 227.984 84.5253 223.568 83.2133 218.896H89.4053C89.7253 220.24 90.1093 221.696 90.5573 223.264C91.0373 224.832 91.5493 226.432 92.0933 228.064C92.6373 229.664 93.2133 231.264 93.8213 232.864C94.4293 234.464 95.0373 235.952 95.6453 237.328C96.6693 234.48 97.6293 231.456 98.5253 228.256C99.4213 225.024 100.237 221.904 100.973 218.896H106.973ZM117.656 239.824C119.192 239.824 120.312 239.648 121.016 239.296C121.72 238.912 122.072 238.272 122.072 237.376C122.072 236.544 121.688 235.856 120.92 235.312C120.184 234.768 118.952 234.176 117.224 233.536C116.168 233.152 115.192 232.752 114.296 232.336C113.432 231.888 112.68 231.376 112.04 230.8C111.4 230.224 110.888 229.536 110.504 228.736C110.152 227.904 109.976 226.896 109.976 225.712C109.976 223.408 110.824 221.6 112.52 220.288C114.216 218.944 116.52 218.272 119.432 218.272C120.904 218.272 122.312 218.416 123.656 218.704C125 218.96 126.008 219.216 126.68 219.472L125.624 224.176C124.984 223.888 124.168 223.632 123.176 223.408C122.184 223.152 121.032 223.024 119.72 223.024C118.536 223.024 117.576 223.232 116.84 223.648C116.104 224.032 115.736 224.64 115.736 225.472C115.736 225.888 115.8 226.256 115.928 226.576C116.088 226.896 116.344 227.2 116.696 227.488C117.048 227.744 117.512 228.016 118.088 228.304C118.664 228.56 119.368 228.832 120.2 229.12C121.576 229.632 122.744 230.144 123.704 230.656C124.664 231.136 125.448 231.696 126.056 232.336C126.696 232.944 127.16 233.648 127.448 234.448C127.736 235.248 127.88 236.208 127.88 237.328C127.88 239.728 126.984 241.552 125.192 242.8C123.432 244.016 120.904 244.624 117.608 244.624C115.4 244.624 113.624 244.432 112.28 244.048C110.936 243.696 109.992 243.408 109.448 243.184L110.456 238.336C111.32 238.688 112.344 239.024 113.528 239.344C114.744 239.664 116.12 239.824 117.656 239.824ZM137.865 231.568C137.865 234 138.345 235.936 139.305 237.376C140.297 238.816 141.849 239.536 143.961 239.536C144.921 239.536 145.817 239.392 146.649 239.104C147.513 238.784 148.201 238.448 148.713 238.096V223.744C148.297 223.648 147.769 223.568 147.129 223.504C146.521 223.408 145.721 223.36 144.729 223.36C142.585 223.36 140.905 224.096 139.689 225.568C138.473 227.008 137.865 229.008 137.865 231.568ZM131.913 231.472C131.913 229.488 132.201 227.696 132.777 226.096C133.385 224.464 134.233 223.088 135.321 221.968C136.441 220.816 137.785 219.936 139.353 219.328C140.921 218.688 142.697 218.368 144.681 218.368C146.665 218.368 148.521 218.512 150.249 218.8C151.977 219.088 153.401 219.392 154.521 219.712V252.88H148.713V243.136C148.041 243.488 147.209 243.808 146.217 244.096C145.257 244.384 144.185 244.528 143.001 244.528C141.209 244.528 139.625 244.224 138.249 243.616C136.873 242.976 135.721 242.08 134.793 240.928C133.865 239.776 133.145 238.4 132.633 236.8C132.153 235.2 131.913 233.424 131.913 231.472ZM170.635 244.48C168.907 244.448 167.467 244.256 166.315 243.904C165.195 243.552 164.299 243.056 163.627 242.416C162.955 241.744 162.475 240.928 162.187 239.968C161.931 238.976 161.803 237.856 161.803 236.608V207.712L167.611 206.752V235.504C167.611 236.208 167.659 236.8 167.755 237.28C167.883 237.76 168.091 238.176 168.379 238.528C168.667 238.848 169.051 239.104 169.531 239.296C170.043 239.456 170.683 239.584 171.451 239.68L170.635 244.48Z" fill="#323232"/>
</g>
<defs>
<filter id="filter0_d" x="0" y="0" width="215" height="265.976" filterUnits="userSpaceOnUse" color-interpolation-filters="sRGB">
<feFlood flood-opacity="0" result="BackgroundImageFix"/>
<feColorMatrix in="SourceAlpha" type="matrix" values="0 0 0 0 0 0 0 0 0 0 0 0 0 0 0 0 0 0 127 0"/>
<feOffset dy="4"/>
<feGaussianBlur stdDeviation="4.5"/>
<feColorMatrix type="matrix" values="0 0 0 0 0.233333 0 0 0 0 0.233333 0 0 0 0 0.233333 0 0 0 0.5 0"/>
<feBlend mode="normal" in2="BackgroundImageFix" result="effect1_dropShadow"/>
<feBlend mode="normal" in="SourceGraphic" in2="effect1_dropShadow" result="shape"/>
</filter>
</defs>
</svg>
