<svg width="223" height="275" viewBox="0 0 223 275" fill="none" xmlns="http://www.w3.org/2000/svg">
<g clip-path="url(#clip0)" filter="url(#filter0_d)">
<path d="M210 104.5C210 118.712 206.989 132.225 201.569 144.427C200.689 146.421 199.736 148.379 198.727 150.301C182.239 181.636 149.364 203 111.5 203C71.6056 203 37.251 179.283 21.7646 145.179C19.0628 139.229 16.9362 132.965 15.4567 126.455C13.8484 119.395 13 112.046 13 104.5C13 50.0999 57.0999 6 111.5 6C155.753 6 193.187 35.1802 205.618 75.3521C206.012 76.6307 206.382 77.925 206.728 79.2278V79.2317C207.371 81.668 207.926 84.1324 208.384 86.6373C208.597 87.8031 208.79 88.9732 208.959 90.1509C209.075 90.9389 209.184 91.7269 209.276 92.523C209.453 93.9463 209.594 95.3814 209.706 96.8247C209.9 99.358 210 101.919 210 104.5Z" fill="#F2F2F2"/>
<g filter="url(#filter1_d)">
<path d="M154.579 35.8631C154.579 35.8631 157.434 38.7996 157.923 41.0016C157.923 41.0016 159.962 39.4518 158.575 37.005C157.188 34.5579 154.579 35.8631 154.579 35.8631Z" fill="#5181A2"/>
<path d="M206.728 79.2282C204.163 77.9377 201.831 77.1739 200.005 76.7234C197.537 76.1123 195.539 74.2951 194.674 71.903C193.565 68.8353 191.498 63.866 187.695 56.3362C180.189 41.4927 171.871 36.9255 166.407 33.0902C162.821 30.5734 158.109 30.0628 155.295 30.0066C153.876 29.9786 152.509 29.4599 151.419 28.5472C148.553 26.1351 142.916 23.3006 141.123 24.3621C138.92 25.6688 141.123 28.688 144.219 32.5195C147.318 36.3549 147.973 40.5965 150.173 46.3057C151.19 48.939 152.416 50.5312 153.438 51.48C154.507 52.477 154.857 54.0249 154.29 55.3677C152.223 60.2527 151.532 66.4397 152.702 72.1608C154.089 78.9311 157.269 78.8507 157.269 78.8507C156.944 69.7968 161.675 65.881 161.675 65.881C165.997 79.092 175.867 88.9624 175.867 88.9624C167.875 86.1078 161.921 73.0577 161.921 73.0577C161.921 73.0577 161.269 73.7091 160.698 78.035C160.127 82.3571 154.905 84.9662 151.074 75.5063C147.238 66.0423 152.215 54.1338 152.215 54.1338C150.012 52.9918 145.445 42.4707 145.445 40.8382C145.445 39.2099 143.648 35.6196 141.449 33.4164C139.245 31.2171 134.923 24.8531 139.981 21.9181C145.035 18.9793 155.07 26.8912 155.07 26.8912C170.894 26.3202 187.205 45.57 189.814 52.4208C192.423 59.2715 199.764 72.9773 199.764 72.9773C201.847 73.6087 203.805 74.4248 205.618 75.3532C206.012 76.631 206.382 77.9254 206.728 79.2282Z" fill="#5181A2"/>
<path d="M209.706 96.825C209.626 96.7889 209.549 96.7485 209.473 96.7123C204.415 94.264 202.377 89.1259 202.377 89.1259C203.688 87.8154 206.012 87.0635 208.384 86.6372C208.597 87.803 208.79 88.9731 208.959 90.1509C208.074 90.3236 207.516 90.4283 207.516 90.4283C207.516 90.927 208.211 91.6707 209.277 92.523C209.453 93.9462 209.594 95.3818 209.706 96.825Z" fill="#5181A2"/>
</g>
<g filter="url(#filter2_d)">
<path d="M64.3165 150.156H56.6093C56.6093 150.156 56.6093 132.543 54.0402 111.621L41.9266 150.156H35.6873L23.3929 111.806C23.3929 111.806 21.9615 123.075 21.7645 145.179C19.0627 139.229 16.9361 132.965 15.4567 126.456C16.0234 118.274 16.8195 109.357 17.8892 102.08H27.92L39.3579 137.681L51.4715 102.08H60.6463C60.6459 102.08 64.3165 133.46 64.3165 150.156Z" fill="#FFA600"/>
<path d="M68.5689 115.063L76.5213 114.941C76.5213 114.941 85.4524 141.735 84.5963 145.038C84.5963 145.038 90.3466 129.01 91.8149 114.941H99.6449C99.6449 114.941 95.4848 143.325 82.7614 158.251C77.9999 163.837 72.6567 163.906 67.8329 161.805V157.518C67.8329 157.518 74.442 159.842 77.8679 154.948C80.6259 151.008 77.9918 144.214 75.5832 136.991C74.9991 135.242 68.5689 115.063 68.5689 115.063Z" fill="#FFA600"/>
</g>
<g filter="url(#filter3_d)">
<path d="M104.539 146.627L106.618 142.467C106.618 142.467 120.933 148.829 124.603 142.467C128.273 136.105 124.726 132.679 117.507 128.886C110.289 125.093 102.703 120.322 106.007 109.922C109.31 99.5229 126.806 100.257 131.822 105.273L130.109 109.311C130.109 109.311 117.141 103.805 113.593 111.023C110.045 118.241 119.465 121.667 121.668 122.646C123.87 123.625 136.105 128.641 134.759 137.572C133.414 146.504 127.908 152.009 115.306 150.908C110.778 149.808 108.209 149.074 104.539 146.627Z" fill="#5181A2"/>
<path d="M169.004 147.209C174.411 142.863 176.731 135.132 176.731 126.319C176.731 112.726 172.819 101.706 157.365 101.706C144.057 101.706 137.998 112.726 137.998 126.319C137.998 139.912 142.429 150.932 157.365 150.932C159.528 150.932 161.49 150.663 163.259 150.156L174.765 156.906L177.579 151.399L169.004 147.209ZM157.365 145.038C148.705 145.038 146.136 136.655 146.136 126.319C146.136 115.979 148.584 107.6 157.365 107.6C166.322 107.6 168.59 115.979 168.59 126.319C168.59 136.655 166.322 145.038 157.365 145.038Z" fill="#5181A2"/>
<path d="M201.569 144.427C200.689 146.421 199.736 148.379 198.727 150.301H183.574V102.337H191.16V144.426H201.569V144.427Z" fill="#5181A2"/>
</g>
</g>
<g filter="url(#filter4_d)">
<path d="M61 241.8C61 239.176 60.664 237.288 59.992 236.136C59.352 234.952 58.136 234.36 56.344 234.36C55.704 234.36 55 234.408 54.232 234.504C53.464 234.6 52.888 234.68 52.504 234.744V255H46.696V230.712C47.816 230.392 49.272 230.088 51.064 229.8C52.888 229.512 54.808 229.368 56.824 229.368C58.552 229.368 59.96 229.592 61.048 230.04C62.168 230.488 63.096 231.08 63.832 231.816C64.184 231.56 64.632 231.288 65.176 231C65.72 230.712 66.328 230.456 67 230.232C67.672 229.976 68.376 229.768 69.112 229.608C69.88 229.448 70.648 229.368 71.416 229.368C73.368 229.368 74.968 229.656 76.216 230.232C77.496 230.776 78.488 231.56 79.192 232.584C79.928 233.576 80.424 234.792 80.68 236.232C80.968 237.64 81.112 239.192 81.112 240.888V255H75.304V241.8C75.304 239.176 74.984 237.288 74.344 236.136C73.704 234.952 72.472 234.36 70.648 234.36C69.72 234.36 68.84 234.52 68.008 234.84C67.176 235.128 66.552 235.416 66.136 235.704C66.392 236.504 66.568 237.352 66.664 238.248C66.76 239.144 66.808 240.104 66.808 241.128V255H61V241.8ZM107.973 229.896C105.381 239.432 102.373 248.072 98.9493 255.816C98.3093 257.256 97.6533 258.488 96.9813 259.512C96.3093 260.536 95.5573 261.384 94.7253 262.056C93.8933 262.728 92.9653 263.208 91.9413 263.496C90.9173 263.816 89.7333 263.976 88.3893 263.976C87.4933 263.976 86.5973 263.88 85.7013 263.688C84.8373 263.496 84.1813 263.288 83.7332 263.064L84.7893 258.408C85.9413 258.856 87.0773 259.08 88.1973 259.08C89.7013 259.08 90.8693 258.712 91.7013 257.976C92.5653 257.272 93.3173 256.168 93.9573 254.664C92.1333 251.144 90.3733 247.304 88.6773 243.144C87.0133 238.984 85.5253 234.568 84.2133 229.896H90.4053C90.7253 231.24 91.1093 232.696 91.5573 234.264C92.0373 235.832 92.5493 237.432 93.0933 239.064C93.6373 240.664 94.2133 242.264 94.8213 243.864C95.4293 245.464 96.0373 246.952 96.6453 248.328C97.6693 245.48 98.6293 242.456 99.5253 239.256C100.421 236.024 101.237 232.904 101.973 229.896H107.973ZM118.656 250.824C120.192 250.824 121.312 250.648 122.016 250.296C122.72 249.912 123.072 249.272 123.072 248.376C123.072 247.544 122.688 246.856 121.92 246.312C121.184 245.768 119.952 245.176 118.224 244.536C117.168 244.152 116.192 243.752 115.296 243.336C114.432 242.888 113.68 242.376 113.04 241.8C112.4 241.224 111.888 240.536 111.504 239.736C111.152 238.904 110.976 237.896 110.976 236.712C110.976 234.408 111.824 232.6 113.52 231.288C115.216 229.944 117.52 229.272 120.432 229.272C121.904 229.272 123.312 229.416 124.656 229.704C126 229.96 127.008 230.216 127.68 230.472L126.624 235.176C125.984 234.888 125.168 234.632 124.176 234.408C123.184 234.152 122.032 234.024 120.72 234.024C119.536 234.024 118.576 234.232 117.84 234.648C117.104 235.032 116.736 235.64 116.736 236.472C116.736 236.888 116.8 237.256 116.928 237.576C117.088 237.896 117.344 238.2 117.696 238.488C118.048 238.744 118.512 239.016 119.088 239.304C119.664 239.56 120.368 239.832 121.2 240.12C122.576 240.632 123.744 241.144 124.704 241.656C125.664 242.136 126.448 242.696 127.056 243.336C127.696 243.944 128.16 244.648 128.448 245.448C128.736 246.248 128.88 247.208 128.88 248.328C128.88 250.728 127.984 252.552 126.192 253.8C124.432 255.016 121.904 255.624 118.608 255.624C116.4 255.624 114.624 255.432 113.28 255.048C111.936 254.696 110.992 254.408 110.448 254.184L111.456 249.336C112.32 249.688 113.344 250.024 114.528 250.344C115.744 250.664 117.12 250.824 118.656 250.824ZM138.865 242.568C138.865 245 139.345 246.936 140.305 248.376C141.297 249.816 142.849 250.536 144.961 250.536C145.921 250.536 146.817 250.392 147.649 250.104C148.513 249.784 149.201 249.448 149.713 249.096V234.744C149.297 234.648 148.769 234.568 148.129 234.504C147.521 234.408 146.721 234.36 145.729 234.36C143.585 234.36 141.905 235.096 140.689 236.568C139.473 238.008 138.865 240.008 138.865 242.568ZM132.913 242.472C132.913 240.488 133.201 238.696 133.777 237.096C134.385 235.464 135.233 234.088 136.321 232.968C137.441 231.816 138.785 230.936 140.353 230.328C141.921 229.688 143.697 229.368 145.681 229.368C147.665 229.368 149.521 229.512 151.249 229.8C152.977 230.088 154.401 230.392 155.521 230.712V263.88H149.713V254.136C149.041 254.488 148.209 254.808 147.217 255.096C146.257 255.384 145.185 255.528 144.001 255.528C142.209 255.528 140.625 255.224 139.249 254.616C137.873 253.976 136.721 253.08 135.793 251.928C134.865 250.776 134.145 249.4 133.633 247.8C133.153 246.2 132.913 244.424 132.913 242.472ZM171.635 255.48C169.907 255.448 168.467 255.256 167.315 254.904C166.195 254.552 165.299 254.056 164.627 253.416C163.955 252.744 163.475 251.928 163.187 250.968C162.931 249.976 162.803 248.856 162.803 247.608V218.712L168.611 217.752V246.504C168.611 247.208 168.659 247.8 168.755 248.28C168.883 248.76 169.091 249.176 169.379 249.528C169.667 249.848 170.051 250.104 170.531 250.296C171.043 250.456 171.683 250.584 172.451 250.68L171.635 255.48Z" fill="#323232"/>
</g>
<defs>
<filter id="filter0_d" x="0.463637" y="0.627274" width="222.073" height="222.073" filterUnits="userSpaceOnUse" color-interpolation-filters="sRGB">
<feFlood flood-opacity="0" result="BackgroundImageFix"/>
<feColorMatrix in="SourceAlpha" type="matrix" values="0 0 0 0 0 0 0 0 0 0 0 0 0 0 0 0 0 0 127 0"/>
<feOffset dy="7.16364"/>
<feGaussianBlur stdDeviation="6.26818"/>
<feColorMatrix type="matrix" values="0 0 0 0 0.0583333 0 0 0 0 0.0583333 0 0 0 0 0.0583333 0 0 0 0.5 0"/>
<feBlend mode="normal" in2="BackgroundImageFix" result="effect1_dropShadow"/>
<feBlend mode="normal" in="SourceGraphic" in2="effect1_dropShadow" result="shape"/>
</filter>
<filter id="filter1_d" x="132.25" y="19.4728" width="82.8287" height="86.3068" filterUnits="userSpaceOnUse" color-interpolation-filters="sRGB">
<feFlood flood-opacity="0" result="BackgroundImageFix"/>
<feColorMatrix in="SourceAlpha" type="matrix" values="0 0 0 0 0 0 0 0 0 0 0 0 0 0 0 0 0 0 127 0"/>
<feOffset dy="3.58182"/>
<feGaussianBlur stdDeviation="2.68636"/>
<feColorMatrix type="matrix" values="0 0 0 0 0.441667 0 0 0 0 0.441667 0 0 0 0 0.441667 0 0 0 0.5 0"/>
<feBlend mode="normal" in2="BackgroundImageFix" result="effect1_dropShadow"/>
<feBlend mode="normal" in="SourceGraphic" in2="effect1_dropShadow" result="shape"/>
</filter>
<filter id="filter2_d" x="10.084" y="100.289" width="94.9337" height="71.7417" filterUnits="userSpaceOnUse" color-interpolation-filters="sRGB">
<feFlood flood-opacity="0" result="BackgroundImageFix"/>
<feColorMatrix in="SourceAlpha" type="matrix" values="0 0 0 0 0 0 0 0 0 0 0 0 0 0 0 0 0 0 127 0"/>
<feOffset dy="3.58182"/>
<feGaussianBlur stdDeviation="2.68636"/>
<feColorMatrix type="matrix" values="0 0 0 0 0.441667 0 0 0 0 0.441667 0 0 0 0 0.441667 0 0 0 0.5 0"/>
<feBlend mode="normal" in2="BackgroundImageFix" result="effect1_dropShadow"/>
<feBlend mode="normal" in="SourceGraphic" in2="effect1_dropShadow" result="shape"/>
</filter>
<filter id="filter3_d" x="99.1661" y="99.9151" width="107.776" height="65.9459" filterUnits="userSpaceOnUse" color-interpolation-filters="sRGB">
<feFlood flood-opacity="0" result="BackgroundImageFix"/>
<feColorMatrix in="SourceAlpha" type="matrix" values="0 0 0 0 0 0 0 0 0 0 0 0 0 0 0 0 0 0 127 0"/>
<feOffset dy="3.58182"/>
<feGaussianBlur stdDeviation="2.68636"/>
<feColorMatrix type="matrix" values="0 0 0 0 0.441667 0 0 0 0 0.441667 0 0 0 0 0.441667 0 0 0 0.5 0"/>
<feBlend mode="normal" in2="BackgroundImageFix" result="effect1_dropShadow"/>
<feBlend mode="normal" in="SourceGraphic" in2="effect1_dropShadow" result="shape"/>
</filter>
<filter id="filter4_d" x="39.5324" y="214.17" width="140.082" height="60.5513" filterUnits="userSpaceOnUse" color-interpolation-filters="sRGB">
<feFlood flood-opacity="0" result="BackgroundImageFix"/>
<feColorMatrix in="SourceAlpha" type="matrix" values="0 0 0 0 0 0 0 0 0 0 0 0 0 0 0 0 0 0 127 0"/>
<feOffset dy="3.58182"/>
<feGaussianBlur stdDeviation="3.58182"/>
<feColorMatrix type="matrix" values="0 0 0 0 0.0583333 0 0 0 0 0.0583333 0 0 0 0 0.0583333 0 0 0 0.5 0"/>
<feBlend mode="normal" in2="BackgroundImageFix" result="effect1_dropShadow"/>
<feBlend mode="normal" in="SourceGraphic" in2="effect1_dropShadow" result="shape"/>
</filter>
<clipPath id="clip0">
<rect width="197" height="197" fill="white" transform="translate(13 6)"/>
</clipPath>
</defs>
</svg>
