<svg width="250" height="263" viewBox="0 0 250 263" fill="none" xmlns="http://www.w3.org/2000/svg">
<g clip-path="url(#clip0)" filter="url(#filter0_d)">
<path d="M123.47 197.66C176.804 197.66 220.04 155.203 220.04 102.83C220.04 50.4568 176.804 8 123.47 8C70.1357 8 26.8998 50.4568 26.8998 102.83C26.8998 155.203 70.1357 197.66 123.47 197.66Z" fill="#2A4997"/>
<path d="M62.2772 142.876V61.1052C89.8592 61.1052 103.528 60.8259 109.252 62.332C114.023 63.5593 118.018 66.2278 121.237 70.3363C127.473 78.2983 127.196 91.703 123.282 98.9227C119.741 105.451 113.766 109.517 107.491 110.859C100.103 112.296 89.1647 112.031 79.0902 112.031V142.876H62.2772ZM79.0905 74.9385V98.1422C96.1276 98.1422 102.771 98.6838 106.838 92.8432C109.538 88.9652 109.481 82.8275 106.071 79.1217C101.81 74.4947 97.1536 74.9385 79.0905 74.9385Z" fill="#76C8DA"/>
<path d="M128.315 125.975L144.333 123.576C145.824 130.246 150.405 132.891 157.227 132.891C162.432 132.891 168.644 131.609 168.644 126.476C168.644 123.026 165.705 122.266 162.168 121.457C149.293 118.668 141.132 116.121 137.687 113.815C132.916 110.618 130.53 106.174 130.53 100.484C130.53 95.3526 132.594 91.0393 136.721 87.5436C140.848 84.0486 147.248 82.3005 155.92 82.3005C169.1 82.3005 178.933 85.4088 182.617 97.9741L167.565 100.708C166.92 98.4027 165.699 96.6358 163.901 95.4085C159.789 92.6037 150.352 93.2815 147.173 95.2971C144.904 96.8284 144.647 99.6281 146.946 101.321C151.567 104.667 171.316 105.886 179.663 112.7C182.995 115.489 184.662 119.375 184.662 124.357C184.662 129.787 182.352 134.453 177.732 138.358C173.112 142.262 166.277 144.214 157.227 144.214C149.009 144.214 142.506 142.579 137.716 139.306C132.925 136.034 129.792 131.59 128.315 125.975Z" fill="#76C8DA"/>
</g>
<g filter="url(#filter1_d)">
<path d="M24.352 230.568C24.352 227.976 23.76 225.96 22.576 224.52C21.424 223.08 19.552 222.36 16.96 222.36C16.416 222.36 15.84 222.392 15.232 222.456C14.656 222.488 14.08 222.584 13.504 222.744V237.096C14.016 237.448 14.688 237.784 15.52 238.104C16.384 238.392 17.296 238.536 18.256 238.536C20.368 238.536 21.904 237.816 22.864 236.376C23.856 234.936 24.352 233 24.352 230.568ZM30.304 230.472C30.304 232.392 30.048 234.152 29.536 235.752C29.056 237.352 28.352 238.728 27.424 239.88C26.496 241.032 25.328 241.928 23.92 242.568C22.544 243.208 20.976 243.528 19.216 243.528C18.032 243.528 16.944 243.384 15.952 243.096C14.96 242.808 14.144 242.488 13.504 242.136V251.88H7.696V218.712C8.88 218.392 10.336 218.088 12.064 217.8C13.792 217.512 15.616 217.368 17.536 217.368C19.52 217.368 21.296 217.672 22.864 218.28C24.432 218.888 25.76 219.768 26.848 220.92C27.968 222.04 28.816 223.416 29.392 225.048C30 226.648 30.304 228.456 30.304 230.472ZM36.2898 243V206.712L42.0978 205.752V218.184C42.7378 217.96 43.4738 217.768 44.3058 217.608C45.1698 217.448 46.0178 217.368 46.8498 217.368C48.8658 217.368 50.5298 217.656 51.8418 218.232C53.1858 218.776 54.2578 219.56 55.0578 220.584C55.8578 221.576 56.4178 222.776 56.7378 224.184C57.0898 225.592 57.2657 227.16 57.2657 228.888V243H51.4578V229.8C51.4578 228.456 51.3618 227.32 51.1698 226.392C51.0098 225.432 50.7218 224.664 50.3058 224.088C49.9218 223.48 49.3938 223.048 48.7218 222.792C48.0498 222.504 47.2178 222.36 46.2258 222.36C45.4578 222.36 44.6738 222.44 43.8738 222.6C43.0738 222.76 42.4818 222.904 42.0978 223.032V243H36.2898ZM86.9313 230.424C86.9313 232.408 86.6433 234.216 86.0673 235.848C85.4913 237.48 84.6753 238.872 83.6193 240.024C82.5633 241.176 81.2833 242.072 79.7793 242.712C78.3073 243.352 76.6753 243.672 74.8833 243.672C73.0913 243.672 71.4593 243.352 69.9873 242.712C68.5153 242.072 67.2513 241.176 66.1953 240.024C65.1393 238.872 64.3073 237.48 63.6992 235.848C63.1233 234.216 62.8353 232.408 62.8353 230.424C62.8353 228.44 63.1233 226.648 63.6992 225.048C64.3073 223.416 65.1393 222.024 66.1953 220.872C67.2833 219.72 68.5633 218.84 70.0353 218.232C71.5073 217.592 73.1233 217.272 74.8833 217.272C76.6433 217.272 78.2593 217.592 79.7313 218.232C81.2353 218.84 82.5153 219.72 83.5713 220.872C84.6273 222.024 85.4433 223.416 86.0193 225.048C86.6273 226.648 86.9313 228.44 86.9313 230.424ZM80.9793 230.424C80.9793 227.928 80.4353 225.96 79.3473 224.52C78.2913 223.048 76.8033 222.312 74.8833 222.312C72.9633 222.312 71.4593 223.048 70.3713 224.52C69.3153 225.96 68.7873 227.928 68.7873 230.424C68.7873 232.952 69.3153 234.952 70.3713 236.424C71.4593 237.896 72.9633 238.632 74.8833 238.632C76.8033 238.632 78.2913 237.896 79.3473 236.424C80.4353 234.952 80.9793 232.952 80.9793 230.424ZM92.6268 211.272L98.4348 210.312V217.896H107.363V222.744H98.4348V232.968C98.4348 234.984 98.7548 236.424 99.3948 237.288C100.035 238.152 101.123 238.584 102.659 238.584C103.715 238.584 104.643 238.472 105.443 238.248C106.275 238.024 106.931 237.816 107.411 237.624L108.371 242.232C107.699 242.52 106.819 242.808 105.731 243.096C104.643 243.416 103.363 243.576 101.891 243.576C100.099 243.576 98.5948 243.336 97.3788 242.856C96.1948 242.376 95.2508 241.688 94.5468 240.792C93.8428 239.864 93.3468 238.76 93.0588 237.48C92.7708 236.168 92.6268 234.68 92.6268 233.016V211.272ZM135.119 230.424C135.119 232.408 134.831 234.216 134.255 235.848C133.679 237.48 132.863 238.872 131.807 240.024C130.751 241.176 129.471 242.072 127.967 242.712C126.495 243.352 124.863 243.672 123.071 243.672C121.279 243.672 119.647 243.352 118.175 242.712C116.703 242.072 115.439 241.176 114.383 240.024C113.327 238.872 112.495 237.48 111.887 235.848C111.311 234.216 111.023 232.408 111.023 230.424C111.023 228.44 111.311 226.648 111.887 225.048C112.495 223.416 113.327 222.024 114.383 220.872C115.471 219.72 116.751 218.84 118.223 218.232C119.695 217.592 121.311 217.272 123.071 217.272C124.831 217.272 126.447 217.592 127.919 218.232C129.423 218.84 130.703 219.72 131.759 220.872C132.815 222.024 133.631 223.416 134.207 225.048C134.815 226.648 135.119 228.44 135.119 230.424ZM129.167 230.424C129.167 227.928 128.623 225.96 127.535 224.52C126.479 223.048 124.991 222.312 123.071 222.312C121.151 222.312 119.647 223.048 118.559 224.52C117.503 225.96 116.975 227.928 116.975 230.424C116.975 232.952 117.503 234.952 118.559 236.424C119.647 237.896 121.151 238.632 123.071 238.632C124.991 238.632 126.479 237.896 127.535 236.424C128.623 234.952 129.167 232.952 129.167 230.424ZM147.39 238.824C148.926 238.824 150.046 238.648 150.75 238.296C151.454 237.912 151.806 237.272 151.806 236.376C151.806 235.544 151.422 234.856 150.654 234.312C149.918 233.768 148.686 233.176 146.958 232.536C145.902 232.152 144.926 231.752 144.03 231.336C143.166 230.888 142.414 230.376 141.774 229.8C141.134 229.224 140.622 228.536 140.238 227.736C139.886 226.904 139.71 225.896 139.71 224.712C139.71 222.408 140.558 220.6 142.254 219.288C143.95 217.944 146.254 217.272 149.166 217.272C150.638 217.272 152.046 217.416 153.39 217.704C154.734 217.96 155.742 218.216 156.414 218.472L155.358 223.176C154.718 222.888 153.902 222.632 152.91 222.408C151.918 222.152 150.766 222.024 149.454 222.024C148.27 222.024 147.31 222.232 146.574 222.648C145.838 223.032 145.47 223.64 145.47 224.472C145.47 224.888 145.534 225.256 145.662 225.576C145.822 225.896 146.078 226.2 146.43 226.488C146.782 226.744 147.246 227.016 147.822 227.304C148.398 227.56 149.102 227.832 149.934 228.12C151.31 228.632 152.478 229.144 153.438 229.656C154.398 230.136 155.182 230.696 155.79 231.336C156.43 231.944 156.894 232.648 157.182 233.448C157.47 234.248 157.614 235.208 157.614 236.328C157.614 238.728 156.718 240.552 154.926 241.8C153.166 243.016 150.638 243.624 147.342 243.624C145.134 243.624 143.358 243.432 142.014 243.048C140.67 242.696 139.726 242.408 139.182 242.184L140.19 237.336C141.054 237.688 142.078 238.024 143.262 238.344C144.478 238.664 145.854 238.824 147.39 238.824ZM163.04 243V206.712L168.848 205.752V218.184C169.488 217.96 170.224 217.768 171.056 217.608C171.92 217.448 172.768 217.368 173.6 217.368C175.616 217.368 177.28 217.656 178.592 218.232C179.936 218.776 181.008 219.56 181.808 220.584C182.608 221.576 183.168 222.776 183.488 224.184C183.84 225.592 184.016 227.16 184.016 228.888V243H178.208V229.8C178.208 228.456 178.112 227.32 177.92 226.392C177.76 225.432 177.472 224.664 177.056 224.088C176.672 223.48 176.144 223.048 175.472 222.792C174.8 222.504 173.968 222.36 172.976 222.36C172.208 222.36 171.424 222.44 170.624 222.6C169.824 222.76 169.232 222.904 168.848 223.032V243H163.04ZM213.681 230.424C213.681 232.408 213.393 234.216 212.817 235.848C212.241 237.48 211.425 238.872 210.369 240.024C209.313 241.176 208.033 242.072 206.529 242.712C205.057 243.352 203.425 243.672 201.633 243.672C199.841 243.672 198.209 243.352 196.737 242.712C195.265 242.072 194.001 241.176 192.945 240.024C191.889 238.872 191.057 237.48 190.449 235.848C189.873 234.216 189.585 232.408 189.585 230.424C189.585 228.44 189.873 226.648 190.449 225.048C191.057 223.416 191.889 222.024 192.945 220.872C194.033 219.72 195.313 218.84 196.785 218.232C198.257 217.592 199.873 217.272 201.633 217.272C203.393 217.272 205.009 217.592 206.481 218.232C207.985 218.84 209.265 219.72 210.321 220.872C211.377 222.024 212.193 223.416 212.769 225.048C213.377 226.648 213.681 228.44 213.681 230.424ZM207.729 230.424C207.729 227.928 207.185 225.96 206.097 224.52C205.041 223.048 203.553 222.312 201.633 222.312C199.713 222.312 198.209 223.048 197.121 224.52C196.065 225.96 195.537 227.928 195.537 230.424C195.537 232.952 196.065 234.952 197.121 236.424C198.209 237.896 199.713 238.632 201.633 238.632C203.553 238.632 205.041 237.896 206.097 236.424C207.185 234.952 207.729 232.952 207.729 230.424ZM236.321 230.568C236.321 227.976 235.729 225.96 234.545 224.52C233.393 223.08 231.521 222.36 228.929 222.36C228.385 222.36 227.809 222.392 227.201 222.456C226.625 222.488 226.049 222.584 225.473 222.744V237.096C225.985 237.448 226.657 237.784 227.489 238.104C228.353 238.392 229.265 238.536 230.225 238.536C232.337 238.536 233.873 237.816 234.833 236.376C235.825 234.936 236.321 233 236.321 230.568ZM242.273 230.472C242.273 232.392 242.017 234.152 241.505 235.752C241.025 237.352 240.321 238.728 239.393 239.88C238.465 241.032 237.297 241.928 235.889 242.568C234.513 243.208 232.945 243.528 231.185 243.528C230.001 243.528 228.913 243.384 227.921 243.096C226.929 242.808 226.113 242.488 225.473 242.136V251.88H219.665V218.712C220.849 218.392 222.305 218.088 224.033 217.8C225.761 217.512 227.585 217.368 229.505 217.368C231.489 217.368 233.265 217.672 234.833 218.28C236.401 218.888 237.729 219.768 238.817 220.92C239.937 222.04 240.785 223.416 241.361 225.048C241.969 226.648 242.273 228.456 242.273 230.472Z" fill="#323232"/>
</g>
<defs>
<filter id="filter0_d" x="8.62986" y="0.170006" width="229.68" height="226.2" filterUnits="userSpaceOnUse" color-interpolation-filters="sRGB">
<feFlood flood-opacity="0" result="BackgroundImageFix"/>
<feColorMatrix in="SourceAlpha" type="matrix" values="0 0 0 0 0 0 0 0 0 0 0 0 0 0 0 0 0 0 127 0"/>
<feOffset dy="10.44"/>
<feGaussianBlur stdDeviation="9.13499"/>
<feColorMatrix type="matrix" values="0 0 0 0 0.0583333 0 0 0 0 0.0583333 0 0 0 0 0.0583333 0 0 0 0.5 0"/>
<feBlend mode="normal" in2="BackgroundImageFix" result="effect1_dropShadow"/>
<feBlend mode="normal" in="SourceGraphic" in2="effect1_dropShadow" result="shape"/>
</filter>
<filter id="filter1_d" x="0.736021" y="202.272" width="248.497" height="60.048" filterUnits="userSpaceOnUse" color-interpolation-filters="sRGB">
<feFlood flood-opacity="0" result="BackgroundImageFix"/>
<feColorMatrix in="SourceAlpha" type="matrix" values="0 0 0 0 0 0 0 0 0 0 0 0 0 0 0 0 0 0 127 0"/>
<feOffset dy="3.48"/>
<feGaussianBlur stdDeviation="3.48"/>
<feColorMatrix type="matrix" values="0 0 0 0 0.0583333 0 0 0 0 0.0583333 0 0 0 0 0.0583333 0 0 0 0.5 0"/>
<feBlend mode="normal" in2="BackgroundImageFix" result="effect1_dropShadow"/>
<feBlend mode="normal" in="SourceGraphic" in2="effect1_dropShadow" result="shape"/>
</filter>
<clipPath id="clip0">
<rect width="193.14" height="189.66" fill="white" transform="translate(26.8998 8)"/>
</clipPath>
</defs>
</svg>
