<svg width="250" height="297" viewBox="0 0 250 297" fill="none" xmlns="http://www.w3.org/2000/svg">
<g filter="url(#filter0_d)">
<g clip-path="url(#clip0)">
<path d="M123.47 222.041C185.066 222.041 235 173.007 235 112.521C235 52.0341 185.066 3 123.47 3C61.8733 3 11.9395 52.0341 11.9395 112.521C11.9395 173.007 61.8733 222.041 123.47 222.041Z" fill="#2A4997"/>
<path d="M52.7974 158.77V64.332C84.6524 64.332 100.439 64.0094 107.049 65.7489C112.56 67.1662 117.173 70.2482 120.891 74.9931C128.093 84.1886 127.774 99.6699 123.253 108.008C119.163 115.548 112.263 120.243 105.016 121.794C96.4833 123.453 83.8503 123.147 72.215 123.147V158.77H52.7974ZM72.2154 80.3083V107.107C91.8918 107.107 99.5639 107.732 104.261 100.987C107.38 96.508 107.313 89.4195 103.376 85.1396C98.4542 79.7958 93.0768 80.3083 72.2154 80.3083Z" fill="#76C8DA"/>
<path d="M129.065 139.251L147.565 136.481C149.287 144.184 154.578 147.239 162.456 147.239C168.467 147.239 175.642 145.758 175.642 139.83C175.642 135.846 172.248 134.968 168.163 134.033C153.294 130.812 143.868 127.871 139.89 125.208C134.379 121.515 131.624 116.382 131.624 109.811C131.624 103.885 134.007 98.9034 138.774 94.8661C143.54 90.8297 150.932 88.8108 160.947 88.8108C176.169 88.8108 187.526 92.4006 191.78 106.913L174.396 110.069C173.651 107.407 172.241 105.367 170.164 103.949C165.415 100.71 154.517 101.493 150.845 103.821C148.225 105.589 147.927 108.823 150.583 110.778C155.92 114.642 178.728 116.05 188.369 123.919C192.217 127.14 194.142 131.629 194.142 137.383C194.142 143.654 191.474 149.042 186.138 153.552C180.802 158.061 172.908 160.316 162.457 160.316C152.966 160.316 145.455 158.427 139.923 154.647C134.389 150.868 130.771 145.736 129.065 139.251Z" fill="#76C8DA"/>
</g>
<path d="M24.352 264.568C24.352 261.976 23.76 259.96 22.576 258.52C21.424 257.08 19.552 256.36 16.96 256.36C16.416 256.36 15.84 256.392 15.232 256.456C14.656 256.488 14.08 256.584 13.504 256.744V271.096C14.016 271.448 14.688 271.784 15.52 272.104C16.384 272.392 17.296 272.536 18.256 272.536C20.368 272.536 21.904 271.816 22.864 270.376C23.856 268.936 24.352 267 24.352 264.568ZM30.304 264.472C30.304 266.392 30.048 268.152 29.536 269.752C29.056 271.352 28.352 272.728 27.424 273.88C26.496 275.032 25.328 275.928 23.92 276.568C22.544 277.208 20.976 277.528 19.216 277.528C18.032 277.528 16.944 277.384 15.952 277.096C14.96 276.808 14.144 276.488 13.504 276.136V285.88H7.696V252.712C8.88 252.392 10.336 252.088 12.064 251.8C13.792 251.512 15.616 251.368 17.536 251.368C19.52 251.368 21.296 251.672 22.864 252.28C24.432 252.888 25.76 253.768 26.848 254.92C27.968 256.04 28.816 257.416 29.392 259.048C30 260.648 30.304 262.456 30.304 264.472ZM36.2898 277V240.712L42.0978 239.752V252.184C42.7378 251.96 43.4738 251.768 44.3058 251.608C45.1698 251.448 46.0178 251.368 46.8498 251.368C48.8658 251.368 50.5298 251.656 51.8418 252.232C53.1858 252.776 54.2578 253.56 55.0578 254.584C55.8578 255.576 56.4178 256.776 56.7378 258.184C57.0898 259.592 57.2657 261.16 57.2657 262.888V277H51.4578V263.8C51.4578 262.456 51.3618 261.32 51.1698 260.392C51.0098 259.432 50.7218 258.664 50.3058 258.088C49.9218 257.48 49.3938 257.048 48.7218 256.792C48.0498 256.504 47.2178 256.36 46.2258 256.36C45.4578 256.36 44.6738 256.44 43.8738 256.6C43.0738 256.76 42.4818 256.904 42.0978 257.032V277H36.2898ZM86.9313 264.424C86.9313 266.408 86.6433 268.216 86.0673 269.848C85.4913 271.48 84.6753 272.872 83.6193 274.024C82.5633 275.176 81.2833 276.072 79.7793 276.712C78.3073 277.352 76.6753 277.672 74.8833 277.672C73.0913 277.672 71.4593 277.352 69.9873 276.712C68.5153 276.072 67.2513 275.176 66.1953 274.024C65.1393 272.872 64.3073 271.48 63.6992 269.848C63.1233 268.216 62.8353 266.408 62.8353 264.424C62.8353 262.44 63.1233 260.648 63.6992 259.048C64.3073 257.416 65.1393 256.024 66.1953 254.872C67.2833 253.72 68.5633 252.84 70.0353 252.232C71.5073 251.592 73.1233 251.272 74.8833 251.272C76.6433 251.272 78.2593 251.592 79.7313 252.232C81.2353 252.84 82.5153 253.72 83.5713 254.872C84.6273 256.024 85.4433 257.416 86.0193 259.048C86.6273 260.648 86.9313 262.44 86.9313 264.424ZM80.9793 264.424C80.9793 261.928 80.4353 259.96 79.3473 258.52C78.2913 257.048 76.8033 256.312 74.8833 256.312C72.9633 256.312 71.4593 257.048 70.3713 258.52C69.3153 259.96 68.7873 261.928 68.7873 264.424C68.7873 266.952 69.3153 268.952 70.3713 270.424C71.4593 271.896 72.9633 272.632 74.8833 272.632C76.8033 272.632 78.2913 271.896 79.3473 270.424C80.4353 268.952 80.9793 266.952 80.9793 264.424ZM92.6268 245.272L98.4348 244.312V251.896H107.363V256.744H98.4348V266.968C98.4348 268.984 98.7548 270.424 99.3948 271.288C100.035 272.152 101.123 272.584 102.659 272.584C103.715 272.584 104.643 272.472 105.443 272.248C106.275 272.024 106.931 271.816 107.411 271.624L108.371 276.232C107.699 276.52 106.819 276.808 105.731 277.096C104.643 277.416 103.363 277.576 101.891 277.576C100.099 277.576 98.5948 277.336 97.3788 276.856C96.1948 276.376 95.2508 275.688 94.5468 274.792C93.8428 273.864 93.3468 272.76 93.0588 271.48C92.7708 270.168 92.6268 268.68 92.6268 267.016V245.272ZM135.119 264.424C135.119 266.408 134.831 268.216 134.255 269.848C133.679 271.48 132.863 272.872 131.807 274.024C130.751 275.176 129.471 276.072 127.967 276.712C126.495 277.352 124.863 277.672 123.071 277.672C121.279 277.672 119.647 277.352 118.175 276.712C116.703 276.072 115.439 275.176 114.383 274.024C113.327 272.872 112.495 271.48 111.887 269.848C111.311 268.216 111.023 266.408 111.023 264.424C111.023 262.44 111.311 260.648 111.887 259.048C112.495 257.416 113.327 256.024 114.383 254.872C115.471 253.72 116.751 252.84 118.223 252.232C119.695 251.592 121.311 251.272 123.071 251.272C124.831 251.272 126.447 251.592 127.919 252.232C129.423 252.84 130.703 253.72 131.759 254.872C132.815 256.024 133.631 257.416 134.207 259.048C134.815 260.648 135.119 262.44 135.119 264.424ZM129.167 264.424C129.167 261.928 128.623 259.96 127.535 258.52C126.479 257.048 124.991 256.312 123.071 256.312C121.151 256.312 119.647 257.048 118.559 258.52C117.503 259.96 116.975 261.928 116.975 264.424C116.975 266.952 117.503 268.952 118.559 270.424C119.647 271.896 121.151 272.632 123.071 272.632C124.991 272.632 126.479 271.896 127.535 270.424C128.623 268.952 129.167 266.952 129.167 264.424ZM147.39 272.824C148.926 272.824 150.046 272.648 150.75 272.296C151.454 271.912 151.806 271.272 151.806 270.376C151.806 269.544 151.422 268.856 150.654 268.312C149.918 267.768 148.686 267.176 146.958 266.536C145.902 266.152 144.926 265.752 144.03 265.336C143.166 264.888 142.414 264.376 141.774 263.8C141.134 263.224 140.622 262.536 140.238 261.736C139.886 260.904 139.71 259.896 139.71 258.712C139.71 256.408 140.558 254.6 142.254 253.288C143.95 251.944 146.254 251.272 149.166 251.272C150.638 251.272 152.046 251.416 153.39 251.704C154.734 251.96 155.742 252.216 156.414 252.472L155.358 257.176C154.718 256.888 153.902 256.632 152.91 256.408C151.918 256.152 150.766 256.024 149.454 256.024C148.27 256.024 147.31 256.232 146.574 256.648C145.838 257.032 145.47 257.64 145.47 258.472C145.47 258.888 145.534 259.256 145.662 259.576C145.822 259.896 146.078 260.2 146.43 260.488C146.782 260.744 147.246 261.016 147.822 261.304C148.398 261.56 149.102 261.832 149.934 262.12C151.31 262.632 152.478 263.144 153.438 263.656C154.398 264.136 155.182 264.696 155.79 265.336C156.43 265.944 156.894 266.648 157.182 267.448C157.47 268.248 157.614 269.208 157.614 270.328C157.614 272.728 156.718 274.552 154.926 275.8C153.166 277.016 150.638 277.624 147.342 277.624C145.134 277.624 143.358 277.432 142.014 277.048C140.67 276.696 139.726 276.408 139.182 276.184L140.19 271.336C141.054 271.688 142.078 272.024 143.262 272.344C144.478 272.664 145.854 272.824 147.39 272.824ZM163.04 277V240.712L168.848 239.752V252.184C169.488 251.96 170.224 251.768 171.056 251.608C171.92 251.448 172.768 251.368 173.6 251.368C175.616 251.368 177.28 251.656 178.592 252.232C179.936 252.776 181.008 253.56 181.808 254.584C182.608 255.576 183.168 256.776 183.488 258.184C183.84 259.592 184.016 261.16 184.016 262.888V277H178.208V263.8C178.208 262.456 178.112 261.32 177.92 260.392C177.76 259.432 177.472 258.664 177.056 258.088C176.672 257.48 176.144 257.048 175.472 256.792C174.8 256.504 173.968 256.36 172.976 256.36C172.208 256.36 171.424 256.44 170.624 256.6C169.824 256.76 169.232 256.904 168.848 257.032V277H163.04ZM213.681 264.424C213.681 266.408 213.393 268.216 212.817 269.848C212.241 271.48 211.425 272.872 210.369 274.024C209.313 275.176 208.033 276.072 206.529 276.712C205.057 277.352 203.425 277.672 201.633 277.672C199.841 277.672 198.209 277.352 196.737 276.712C195.265 276.072 194.001 275.176 192.945 274.024C191.889 272.872 191.057 271.48 190.449 269.848C189.873 268.216 189.585 266.408 189.585 264.424C189.585 262.44 189.873 260.648 190.449 259.048C191.057 257.416 191.889 256.024 192.945 254.872C194.033 253.72 195.313 252.84 196.785 252.232C198.257 251.592 199.873 251.272 201.633 251.272C203.393 251.272 205.009 251.592 206.481 252.232C207.985 252.84 209.265 253.72 210.321 254.872C211.377 256.024 212.193 257.416 212.769 259.048C213.377 260.648 213.681 262.44 213.681 264.424ZM207.729 264.424C207.729 261.928 207.185 259.96 206.097 258.52C205.041 257.048 203.553 256.312 201.633 256.312C199.713 256.312 198.209 257.048 197.121 258.52C196.065 259.96 195.537 261.928 195.537 264.424C195.537 266.952 196.065 268.952 197.121 270.424C198.209 271.896 199.713 272.632 201.633 272.632C203.553 272.632 205.041 271.896 206.097 270.424C207.185 268.952 207.729 266.952 207.729 264.424ZM236.321 264.568C236.321 261.976 235.729 259.96 234.545 258.52C233.393 257.08 231.521 256.36 228.929 256.36C228.385 256.36 227.809 256.392 227.201 256.456C226.625 256.488 226.049 256.584 225.473 256.744V271.096C225.985 271.448 226.657 271.784 227.489 272.104C228.353 272.392 229.265 272.536 230.225 272.536C232.337 272.536 233.873 271.816 234.833 270.376C235.825 268.936 236.321 267 236.321 264.568ZM242.273 264.472C242.273 266.392 242.017 268.152 241.505 269.752C241.025 271.352 240.321 272.728 239.393 273.88C238.465 275.032 237.297 275.928 235.889 276.568C234.513 277.208 232.945 277.528 231.185 277.528C230.001 277.528 228.913 277.384 227.921 277.096C226.929 276.808 226.113 276.488 225.473 276.136V285.88H219.665V252.712C220.849 252.392 222.305 252.088 224.033 251.8C225.761 251.512 227.585 251.368 229.505 251.368C231.489 251.368 233.265 251.672 234.833 252.28C236.401 252.888 237.729 253.768 238.817 254.92C239.937 256.04 240.785 257.416 241.361 259.048C241.969 260.648 242.273 262.456 242.273 264.472Z" fill="#323232"/>
</g>
<defs>
<filter id="filter0_d" x="0.696014" y="0" width="248.577" height="296.88" filterUnits="userSpaceOnUse" color-interpolation-filters="sRGB">
<feFlood flood-opacity="0" result="BackgroundImageFix"/>
<feColorMatrix in="SourceAlpha" type="matrix" values="0 0 0 0 0 0 0 0 0 0 0 0 0 0 0 0 0 0 127 0"/>
<feOffset dy="4"/>
<feGaussianBlur stdDeviation="3.5"/>
<feColorMatrix type="matrix" values="0 0 0 0 0 0 0 0 0 0 0 0 0 0 0 0 0 0 0.5 0"/>
<feBlend mode="normal" in2="BackgroundImageFix" result="effect1_dropShadow"/>
<feBlend mode="normal" in="SourceGraphic" in2="effect1_dropShadow" result="shape"/>
</filter>
<clipPath id="clip0">
<rect width="223.06" height="219.041" fill="white" transform="translate(11.9395 3)"/>
</clipPath>
</defs>
</svg>
