<svg width="161" height="196" viewBox="0 0 161 196" fill="none" xmlns="http://www.w3.org/2000/svg">
<g filter="url(#filter0_d)">
<path d="M64.5218 169.129C64.5218 167.28 64.0994 165.841 63.2546 164.814C62.4326 163.786 61.0968 163.273 59.2474 163.273C58.8592 163.273 58.4482 163.296 58.0144 163.341C57.6034 163.364 57.1924 163.433 56.7814 163.547V173.787C57.1467 174.038 57.6262 174.278 58.2199 174.507C58.8364 174.712 59.4871 174.815 60.1721 174.815C61.6791 174.815 62.7751 174.301 63.4601 173.274C64.1679 172.246 64.5218 170.865 64.5218 169.129ZM68.7687 169.061C68.7687 170.431 68.5861 171.687 68.2207 172.828C67.8782 173.97 67.3759 174.952 66.7138 175.774C66.0516 176.596 65.2182 177.235 64.2135 177.692C63.2317 178.148 62.1129 178.377 60.8571 178.377C60.0123 178.377 59.236 178.274 58.5281 178.068C57.8203 177.863 57.2381 177.635 56.7814 177.384V184.336H52.6372V160.67C53.482 160.441 54.5209 160.225 55.7539 160.019C56.9869 159.814 58.2884 159.711 59.6584 159.711C61.074 159.711 62.3412 159.928 63.4601 160.361C64.5789 160.795 65.5264 161.423 66.3028 162.245C67.1019 163.044 67.707 164.026 68.118 165.191C68.5518 166.332 68.7687 167.622 68.7687 169.061ZM73.0398 178V152.107L77.1839 151.422V160.293C77.6406 160.133 78.1658 159.996 78.7594 159.882C79.3759 159.768 79.981 159.711 80.5747 159.711C82.0131 159.711 83.2004 159.916 84.1366 160.327C85.0956 160.715 85.8605 161.275 86.4313 162.005C87.0021 162.713 87.4017 163.57 87.6301 164.574C87.8812 165.579 88.0068 166.698 88.0068 167.931V178H83.8626V168.581C83.8626 167.622 83.7941 166.812 83.6571 166.15C83.5429 165.465 83.3374 164.917 83.0406 164.506C82.7666 164.072 82.3899 163.764 81.9104 163.581C81.4309 163.375 80.8372 163.273 80.1294 163.273C79.5814 163.273 79.022 163.33 78.4512 163.444C77.8804 163.558 77.4579 163.661 77.1839 163.752V178H73.0398ZM104.859 169.129C104.859 167.28 104.436 165.841 103.591 164.814C102.769 163.786 101.434 163.273 99.5842 163.273C99.196 163.273 98.785 163.296 98.3512 163.341C97.9402 163.364 97.5292 163.433 97.1182 163.547V173.787C97.4836 174.038 97.9631 174.278 98.5567 174.507C99.1732 174.712 99.8239 174.815 100.509 174.815C102.016 174.815 103.112 174.301 103.797 173.274C104.505 172.246 104.859 170.865 104.859 169.129ZM109.106 169.061C109.106 170.431 108.923 171.687 108.558 172.828C108.215 173.97 107.713 174.952 107.051 175.774C106.388 176.596 105.555 177.235 104.55 177.692C103.569 178.148 102.45 178.377 101.194 178.377C100.349 178.377 99.5728 178.274 98.865 178.068C98.1571 177.863 97.5749 177.635 97.1182 177.384V184.336H92.974V160.67C93.8189 160.441 94.8578 160.225 96.0907 160.019C97.3237 159.814 98.6252 159.711 99.9952 159.711C101.411 159.711 102.678 159.928 103.797 160.361C104.916 160.795 105.863 161.423 106.64 162.245C107.439 163.044 108.044 164.026 108.455 165.191C108.889 166.332 109.106 167.622 109.106 169.061Z" fill="#323232"/>
<path d="M154 74.5C154 78.8249 153.604 83.0596 152.848 87.1714C146.701 120.616 116.647 146 80.5 146C53.266 146 29.491 131.592 16.795 110.183C13.696 104.962 11.2601 99.3267 9.59202 93.3819C7.90009 87.3672 7 81.0342 7 74.5C7 35.0116 39.907 3 80.5 3C114.004 3 142.27 24.8061 151.123 54.6258C152.995 60.9354 154 67.6039 154 74.5Z" fill="#8F9ED1"/>
<path d="M44.3739 52.782H17.3049L9.59201 93.3823C11.2601 99.3271 13.696 104.962 16.795 110.183H19.3061L22.294 94.4592H37.168C55.2789 94.4592 60.1479 78.6418 61.315 70.8729C62.485 63.107 56.6441 52.782 44.3739 52.782ZM48.3009 72.1831C47.638 76.587 44.2929 85.555 34.027 85.555H23.9859L28.474 61.925H38.6951C48.6581 61.925 48.9639 67.7794 48.3009 72.1831Z" fill="#F2F2F2"/>
<path d="M151.123 54.6262C148.822 53.4705 146.08 52.7817 142.912 52.7817H115.843L104.938 110.183H117.844L120.832 94.4592H135.706C143.761 94.4592 149.197 91.3308 152.848 87.1721C153.604 83.06 154 78.8253 154 74.5004C154 67.6043 152.995 60.9358 151.123 54.6262ZM146.839 72.1831C146.176 76.587 142.831 85.555 132.562 85.555H122.524L127.012 61.9251H137.233C147.196 61.9251 147.502 67.7794 146.839 72.1831Z" fill="#F2F2F2"/>
<path d="M95.7851 52.9722C90.5325 52.9722 83.5244 52.9722 80.1098 52.9722L83.0521 37.4849H70.1994L59.2941 94.8848H72.1468L78.4182 61.8759C80.7351 61.8759 83.8129 61.8759 86.6324 61.8759C92.0849 61.8759 95.7851 63.0126 95.0059 67.938C94.227 72.8634 89.7481 94.6488 89.7481 94.6488H102.795C102.795 94.6488 107.859 70.4008 108.638 63.5807C109.417 56.7608 102.99 52.9722 95.7851 52.9722Z" fill="#F2F2F2"/>
</g>
<defs>
<filter id="filter0_d" x="0" y="0" width="161" height="195.336" filterUnits="userSpaceOnUse" color-interpolation-filters="sRGB">
<feFlood flood-opacity="0" result="BackgroundImageFix"/>
<feColorMatrix in="SourceAlpha" type="matrix" values="0 0 0 0 0 0 0 0 0 0 0 0 0 0 0 0 0 0 127 0"/>
<feOffset dy="4"/>
<feGaussianBlur stdDeviation="3.5"/>
<feColorMatrix type="matrix" values="0 0 0 0 0.0583333 0 0 0 0 0.0583333 0 0 0 0 0.0583333 0 0 0 0.5 0"/>
<feBlend mode="normal" in2="BackgroundImageFix" result="effect1_dropShadow"/>
<feBlend mode="normal" in="SourceGraphic" in2="effect1_dropShadow" result="shape"/>
</filter>
</defs>
</svg>
