<svg width="234" height="283" viewBox="0 0 234 283" fill="none" xmlns="http://www.w3.org/2000/svg">
<g filter="url(#filter0_d)">
<path d="M87.352 244.568C87.352 241.976 86.76 239.96 85.576 238.52C84.424 237.08 82.552 236.36 79.96 236.36C79.416 236.36 78.84 236.392 78.232 236.456C77.656 236.488 77.08 236.584 76.504 236.744V251.096C77.016 251.448 77.688 251.784 78.52 252.104C79.384 252.392 80.296 252.536 81.256 252.536C83.368 252.536 84.904 251.816 85.864 250.376C86.856 248.936 87.352 247 87.352 244.568ZM93.304 244.472C93.304 246.392 93.048 248.152 92.536 249.752C92.056 251.352 91.352 252.728 90.424 253.88C89.496 255.032 88.328 255.928 86.92 256.568C85.544 257.208 83.976 257.528 82.216 257.528C81.032 257.528 79.944 257.384 78.952 257.096C77.96 256.808 77.144 256.488 76.504 256.136V265.88H70.696V232.712C71.88 232.392 73.336 232.088 75.064 231.8C76.792 231.512 78.616 231.368 80.536 231.368C82.52 231.368 84.296 231.672 85.864 232.28C87.432 232.888 88.76 233.768 89.848 234.92C90.968 236.04 91.816 237.416 92.392 239.048C93 240.648 93.304 242.456 93.304 244.472ZM99.2898 257V220.712L105.098 219.752V232.184C105.738 231.96 106.474 231.768 107.306 231.608C108.17 231.448 109.018 231.368 109.85 231.368C111.866 231.368 113.53 231.656 114.842 232.232C116.186 232.776 117.258 233.56 118.058 234.584C118.858 235.576 119.418 236.776 119.738 238.184C120.09 239.592 120.266 241.16 120.266 242.888V257H114.458V243.8C114.458 242.456 114.362 241.32 114.17 240.392C114.01 239.432 113.722 238.664 113.306 238.088C112.922 237.48 112.394 237.048 111.722 236.792C111.05 236.504 110.218 236.36 109.226 236.36C108.458 236.36 107.674 236.44 106.874 236.6C106.074 236.76 105.482 236.904 105.098 237.032V257H99.2898ZM143.883 244.568C143.883 241.976 143.291 239.96 142.107 238.52C140.955 237.08 139.083 236.36 136.491 236.36C135.947 236.36 135.371 236.392 134.763 236.456C134.187 236.488 133.611 236.584 133.035 236.744V251.096C133.547 251.448 134.219 251.784 135.051 252.104C135.915 252.392 136.827 252.536 137.787 252.536C139.899 252.536 141.435 251.816 142.395 250.376C143.387 248.936 143.883 247 143.883 244.568ZM149.835 244.472C149.835 246.392 149.579 248.152 149.067 249.752C148.587 251.352 147.883 252.728 146.955 253.88C146.027 255.032 144.859 255.928 143.451 256.568C142.075 257.208 140.507 257.528 138.747 257.528C137.563 257.528 136.475 257.384 135.483 257.096C134.491 256.808 133.675 256.488 133.035 256.136V265.88H127.227V232.712C128.411 232.392 129.867 232.088 131.595 231.8C133.323 231.512 135.147 231.368 137.067 231.368C139.051 231.368 140.827 231.672 142.395 232.28C143.963 232.888 145.291 233.768 146.379 234.92C147.499 236.04 148.347 237.416 148.923 239.048C149.531 240.648 149.835 242.456 149.835 244.472Z" fill="#323232"/>
</g>
<g clip-path="url(#clip0)" filter="url(#filter1_d)">
<path d="M215.62 103.7C215.62 109.489 215.09 115.157 214.079 120.66C205.857 165.425 165.658 199.4 117.31 199.4C80.883 199.4 49.0828 180.115 32.1013 151.46C27.9562 144.472 24.6981 136.93 22.467 128.973C20.2039 120.922 19 112.446 19 103.7C19 50.8463 63.0148 8 117.31 8C162.123 8 199.93 37.1866 211.772 77.0991C214.276 85.5442 215.62 94.4698 215.62 103.7Z" fill="#8F9ED1"/>
<g filter="url(#filter2_d)">
<path d="M68.9894 74.6311H32.7833L22.4669 128.973C24.6981 136.93 27.9561 144.473 32.1013 151.461H35.46L39.4565 130.414H59.3512C83.5754 130.414 90.088 109.243 91.6491 98.8451C93.214 88.4508 85.4014 74.6311 68.9894 74.6311ZM74.2421 100.599C73.3554 106.493 68.8811 118.496 55.15 118.496H41.7195L47.7226 86.8687H61.3938C74.7198 86.8687 75.1288 94.7045 74.2421 100.599Z" fill="#F2F2F2"/>
<path d="M211.772 77.0996C208.694 75.5527 205.026 74.6309 200.789 74.6309H164.583L149.997 151.461H167.259L171.256 130.415H191.15C201.924 130.415 209.195 126.227 214.078 120.661C215.09 115.157 215.62 109.489 215.62 103.7C215.62 94.4703 214.276 85.5448 211.772 77.0996ZM206.042 100.599C205.155 106.493 200.681 118.497 186.945 118.497H173.519L179.522 86.8689H193.193C206.519 86.8689 206.928 94.7047 206.042 100.599Z" fill="#F2F2F2"/>
<path d="M137.755 74.8859C130.729 74.8859 121.355 74.8859 116.788 74.8859L120.723 54.1567H103.532L88.946 130.984H106.137L114.525 86.8031C117.624 86.8031 121.741 86.8031 125.512 86.8031C132.805 86.8031 137.755 88.3246 136.712 94.9171C135.67 101.51 129.68 130.668 129.68 130.668H147.131C147.131 130.668 153.903 98.2135 154.945 89.085C155.988 79.9568 147.392 74.8859 137.755 74.8859Z" fill="#F2F2F2"/>
</g>
</g>
<defs>
<filter id="filter0_d" x="63.736" y="216.272" width="93.0592" height="60.048" filterUnits="userSpaceOnUse" color-interpolation-filters="sRGB">
<feFlood flood-opacity="0" result="BackgroundImageFix"/>
<feColorMatrix in="SourceAlpha" type="matrix" values="0 0 0 0 0 0 0 0 0 0 0 0 0 0 0 0 0 0 127 0"/>
<feOffset dy="3.48"/>
<feGaussianBlur stdDeviation="3.48"/>
<feColorMatrix type="matrix" values="0 0 0 0 0.0583333 0 0 0 0 0.0583333 0 0 0 0 0.0583333 0 0 0 0.5 0"/>
<feBlend mode="normal" in2="BackgroundImageFix" result="effect1_dropShadow"/>
<feBlend mode="normal" in="SourceGraphic" in2="effect1_dropShadow" result="shape"/>
</filter>
<filter id="filter1_d" x="0.730011" y="0.170003" width="233.16" height="227.94" filterUnits="userSpaceOnUse" color-interpolation-filters="sRGB">
<feFlood flood-opacity="0" result="BackgroundImageFix"/>
<feColorMatrix in="SourceAlpha" type="matrix" values="0 0 0 0 0 0 0 0 0 0 0 0 0 0 0 0 0 0 127 0"/>
<feOffset dy="10.44"/>
<feGaussianBlur stdDeviation="9.13499"/>
<feColorMatrix type="matrix" values="0 0 0 0 0.0583333 0 0 0 0 0.0583333 0 0 0 0 0.0583333 0 0 0 0.5 0"/>
<feBlend mode="normal" in2="BackgroundImageFix" result="effect1_dropShadow"/>
<feBlend mode="normal" in="SourceGraphic" in2="effect1_dropShadow" result="shape"/>
</filter>
<filter id="filter2_d" x="13.7669" y="48.9367" width="210.553" height="114.704" filterUnits="userSpaceOnUse" color-interpolation-filters="sRGB">
<feFlood flood-opacity="0" result="BackgroundImageFix"/>
<feColorMatrix in="SourceAlpha" type="matrix" values="0 0 0 0 0 0 0 0 0 0 0 0 0 0 0 0 0 0 127 0"/>
<feOffset dy="3.48"/>
<feGaussianBlur stdDeviation="4.35"/>
<feColorMatrix type="matrix" values="0 0 0 0 0.25 0 0 0 0 0.25 0 0 0 0 0.25 0 0 0 0.5 0"/>
<feBlend mode="normal" in2="BackgroundImageFix" result="effect1_dropShadow"/>
<feBlend mode="normal" in="SourceGraphic" in2="effect1_dropShadow" result="shape"/>
</filter>
<clipPath id="clip0">
<rect width="196.62" height="191.4" fill="white" transform="translate(19 8)"/>
</clipPath>
</defs>
</svg>
