<svg width="262" height="311" viewBox="0 0 262 311" fill="none" xmlns="http://www.w3.org/2000/svg">
<g filter="url(#filter0_d)">
<circle cx="130.918" cy="121.409" r="113.233" fill="#323232"/>
<path d="M208.5 122.178C208.497 120.606 207.68 119.147 206.342 118.322L190.59 108.612L206.359 98.797C207.689 97.9693 208.498 96.5148 208.5 94.9486C208.502 93.3823 207.698 91.9254 206.37 91.0936L133.412 45.3811C131.937 44.4573 130.064 44.4573 128.589 45.3811L55.6311 91.0936C54.3038 91.9254 53.4989 93.3823 53.501 94.9486C53.5034 96.515 54.3126 97.9697 55.6426 98.797L71.3035 108.544L55.6356 118.337C54.3066 119.168 53.4997 120.625 53.5014 122.192C53.5028 123.76 54.3124 125.215 55.6428 126.044L71.3037 135.791L55.6356 145.583C54.3087 146.413 53.5022 147.867 53.5014 149.432C53.5004 150.996 54.3054 152.451 55.6313 153.282L128.59 198.995C129.327 199.457 130.164 199.687 131.001 199.687C131.838 199.687 132.674 199.457 133.412 198.995L206.37 153.282C207.7 152.449 208.506 150.987 208.5 149.417C208.494 147.848 207.678 146.392 206.342 145.568L190.59 135.858L206.359 126.043C207.693 125.212 208.503 123.75 208.5 122.178ZM66.6153 94.9296L131.001 54.5885L195.386 94.9296C194.767 95.3147 132.846 133.855 131.001 135.003L66.6153 94.9296ZM195.356 149.466L131.001 189.788L66.6027 149.439L79.8893 141.135L128.601 171.453C129.336 171.91 130.168 172.139 131.001 172.139C131.833 172.139 132.666 171.91 133.4 171.453L181.978 141.218L195.356 149.466ZM131.001 162.249L66.6229 122.18L79.8893 113.889L128.601 144.207C129.336 144.664 130.168 144.893 131.001 144.893C131.833 144.893 132.666 144.664 133.4 144.207L181.978 113.972L195.336 122.207C194.967 122.436 132.705 161.188 131.001 162.249Z" fill="#D5DBD5"/>
</g>
<g filter="url(#filter1_d)">
<path d="M31.352 278.568C31.352 275.976 30.76 273.96 29.576 272.52C28.424 271.08 26.552 270.36 23.96 270.36C23.416 270.36 22.84 270.392 22.232 270.456C21.656 270.488 21.08 270.584 20.504 270.744V285.096C21.016 285.448 21.688 285.784 22.52 286.104C23.384 286.392 24.296 286.536 25.256 286.536C27.368 286.536 28.904 285.816 29.864 284.376C30.856 282.936 31.352 281 31.352 278.568ZM37.304 278.472C37.304 280.392 37.048 282.152 36.536 283.752C36.056 285.352 35.352 286.728 34.424 287.88C33.496 289.032 32.328 289.928 30.92 290.568C29.544 291.208 27.976 291.528 26.216 291.528C25.032 291.528 23.944 291.384 22.952 291.096C21.96 290.808 21.144 290.488 20.504 290.136V299.88H14.696V266.712C15.88 266.392 17.336 266.088 19.064 265.8C20.792 265.512 22.616 265.368 24.536 265.368C26.52 265.368 28.296 265.672 29.864 266.28C31.432 266.888 32.76 267.768 33.848 268.92C34.968 270.04 35.816 271.416 36.392 273.048C37 274.648 37.304 276.456 37.304 278.472ZM57.5938 271.128C57.1138 270.968 56.4418 270.808 55.5778 270.648C54.7458 270.456 53.7698 270.36 52.6498 270.36C52.0098 270.36 51.3218 270.424 50.5858 270.552C49.8818 270.68 49.3858 270.792 49.0978 270.888V291H43.2898V267.096C44.4098 266.68 45.8018 266.296 47.4658 265.944C49.1618 265.56 51.0338 265.368 53.0818 265.368C53.4658 265.368 53.9138 265.4 54.4258 265.464C54.9378 265.496 55.4498 265.56 55.9618 265.656C56.4738 265.72 56.9698 265.816 57.4498 265.944C57.9298 266.04 58.3138 266.136 58.6018 266.232L57.5938 271.128ZM85.3531 278.424C85.3531 280.408 85.0651 282.216 84.4891 283.848C83.9131 285.48 83.0971 286.872 82.0411 288.024C80.9851 289.176 79.7051 290.072 78.2011 290.712C76.7291 291.352 75.0971 291.672 73.3051 291.672C71.5131 291.672 69.8811 291.352 68.4091 290.712C66.9371 290.072 65.6731 289.176 64.6171 288.024C63.5611 286.872 62.7291 285.48 62.1211 283.848C61.5451 282.216 61.2571 280.408 61.2571 278.424C61.2571 276.44 61.5451 274.648 62.1211 273.048C62.7291 271.416 63.5611 270.024 64.6171 268.872C65.7051 267.72 66.9851 266.84 68.4571 266.232C69.9291 265.592 71.5451 265.272 73.3051 265.272C75.0651 265.272 76.6811 265.592 78.1531 266.232C79.6571 266.84 80.9371 267.72 81.9931 268.872C83.0491 270.024 83.8651 271.416 84.4411 273.048C85.0491 274.648 85.3531 276.44 85.3531 278.424ZM79.4011 278.424C79.4011 275.928 78.8571 273.96 77.7691 272.52C76.7131 271.048 75.2251 270.312 73.3051 270.312C71.3851 270.312 69.8811 271.048 68.7931 272.52C67.7371 273.96 67.2091 275.928 67.2091 278.424C67.2091 280.952 67.7371 282.952 68.7931 284.424C69.8811 285.896 71.3851 286.632 73.3051 286.632C75.2251 286.632 76.7131 285.896 77.7691 284.424C78.8571 282.952 79.4011 280.952 79.4011 278.424ZM91.0486 259.272L96.8566 258.312V265.896H105.785V270.744H96.8566V280.968C96.8566 282.984 97.1766 284.424 97.8166 285.288C98.4566 286.152 99.5446 286.584 101.081 286.584C102.137 286.584 103.065 286.472 103.865 286.248C104.697 286.024 105.353 285.816 105.833 285.624L106.793 290.232C106.121 290.52 105.241 290.808 104.153 291.096C103.065 291.416 101.785 291.576 100.313 291.576C98.5206 291.576 97.0166 291.336 95.8006 290.856C94.6166 290.376 93.6726 289.688 92.9686 288.792C92.2646 287.864 91.7686 286.76 91.4806 285.48C91.1926 284.168 91.0486 282.68 91.0486 281.016V259.272ZM133.541 278.424C133.541 280.408 133.253 282.216 132.677 283.848C132.101 285.48 131.285 286.872 130.229 288.024C129.173 289.176 127.893 290.072 126.389 290.712C124.917 291.352 123.285 291.672 121.493 291.672C119.701 291.672 118.069 291.352 116.597 290.712C115.125 290.072 113.861 289.176 112.805 288.024C111.749 286.872 110.917 285.48 110.309 283.848C109.733 282.216 109.445 280.408 109.445 278.424C109.445 276.44 109.733 274.648 110.309 273.048C110.917 271.416 111.749 270.024 112.805 268.872C113.893 267.72 115.173 266.84 116.645 266.232C118.117 265.592 119.733 265.272 121.493 265.272C123.253 265.272 124.869 265.592 126.341 266.232C127.845 266.84 129.125 267.72 130.181 268.872C131.237 270.024 132.053 271.416 132.629 273.048C133.237 274.648 133.541 276.44 133.541 278.424ZM127.589 278.424C127.589 275.928 127.045 273.96 125.957 272.52C124.901 271.048 123.413 270.312 121.493 270.312C119.573 270.312 118.069 271.048 116.981 272.52C115.925 273.96 115.397 275.928 115.397 278.424C115.397 280.952 115.925 282.952 116.981 284.424C118.069 285.896 119.573 286.632 121.493 286.632C123.413 286.632 124.901 285.896 125.957 284.424C127.045 282.952 127.589 280.952 127.589 278.424ZM127.781 255.624L119.957 263.208L117.077 260.616L124.133 252.216L127.781 255.624ZM139.236 259.272L145.044 258.312V265.896H153.972V270.744H145.044V280.968C145.044 282.984 145.364 284.424 146.004 285.288C146.644 286.152 147.732 286.584 149.268 286.584C150.324 286.584 151.252 286.472 152.052 286.248C152.884 286.024 153.54 285.816 154.02 285.624L154.98 290.232C154.308 290.52 153.428 290.808 152.34 291.096C151.252 291.416 149.972 291.576 148.5 291.576C146.708 291.576 145.204 291.336 143.988 290.856C142.804 290.376 141.86 289.688 141.156 288.792C140.452 287.864 139.956 286.76 139.668 285.48C139.38 284.168 139.236 282.68 139.236 281.016V259.272ZM165.443 291H159.635V265.896H165.443V291ZM166.067 258.552C166.067 259.64 165.715 260.504 165.011 261.144C164.307 261.784 163.475 262.104 162.515 262.104C161.523 262.104 160.675 261.784 159.971 261.144C159.267 260.504 158.915 259.64 158.915 258.552C158.915 257.432 159.267 256.552 159.971 255.912C160.675 255.272 161.523 254.952 162.515 254.952C163.475 254.952 164.307 255.272 165.011 255.912C165.715 256.552 166.067 257.432 166.067 258.552ZM189.508 278.568C189.508 275.976 188.916 273.96 187.732 272.52C186.58 271.08 184.708 270.36 182.116 270.36C181.572 270.36 180.996 270.392 180.388 270.456C179.812 270.488 179.236 270.584 178.66 270.744V285.096C179.172 285.448 179.844 285.784 180.676 286.104C181.54 286.392 182.452 286.536 183.412 286.536C185.524 286.536 187.06 285.816 188.02 284.376C189.012 282.936 189.508 281 189.508 278.568ZM195.46 278.472C195.46 280.392 195.204 282.152 194.692 283.752C194.212 285.352 193.508 286.728 192.58 287.88C191.652 289.032 190.484 289.928 189.076 290.568C187.7 291.208 186.132 291.528 184.372 291.528C183.188 291.528 182.1 291.384 181.108 291.096C180.116 290.808 179.3 290.488 178.66 290.136V299.88H172.852V266.712C174.036 266.392 175.492 266.088 177.22 265.8C178.948 265.512 180.772 265.368 182.692 265.368C184.676 265.368 186.452 265.672 188.02 266.28C189.588 266.888 190.916 267.768 192.004 268.92C193.124 270.04 193.972 271.416 194.548 273.048C195.156 274.648 195.46 276.456 195.46 278.472ZM224.15 278.424C224.15 280.408 223.862 282.216 223.286 283.848C222.71 285.48 221.894 286.872 220.838 288.024C219.782 289.176 218.502 290.072 216.998 290.712C215.526 291.352 213.894 291.672 212.102 291.672C210.31 291.672 208.678 291.352 207.206 290.712C205.734 290.072 204.47 289.176 203.414 288.024C202.358 286.872 201.526 285.48 200.918 283.848C200.342 282.216 200.054 280.408 200.054 278.424C200.054 276.44 200.342 274.648 200.918 273.048C201.526 271.416 202.358 270.024 203.414 268.872C204.502 267.72 205.782 266.84 207.254 266.232C208.726 265.592 210.342 265.272 212.102 265.272C213.862 265.272 215.478 265.592 216.95 266.232C218.454 266.84 219.734 267.72 220.79 268.872C221.846 270.024 222.662 271.416 223.238 273.048C223.846 274.648 224.15 276.44 224.15 278.424ZM218.198 278.424C218.198 275.928 217.654 273.96 216.566 272.52C215.51 271.048 214.022 270.312 212.102 270.312C210.182 270.312 208.678 271.048 207.59 272.52C206.534 273.96 206.006 275.928 206.006 278.424C206.006 280.952 206.534 282.952 207.59 284.424C208.678 285.896 210.182 286.632 212.102 286.632C214.022 286.632 215.51 285.896 216.566 284.424C217.654 282.952 218.198 280.952 218.198 278.424ZM236.422 286.824C237.958 286.824 239.078 286.648 239.782 286.296C240.486 285.912 240.838 285.272 240.838 284.376C240.838 283.544 240.454 282.856 239.686 282.312C238.95 281.768 237.718 281.176 235.99 280.536C234.934 280.152 233.958 279.752 233.062 279.336C232.198 278.888 231.446 278.376 230.806 277.8C230.166 277.224 229.654 276.536 229.27 275.736C228.918 274.904 228.742 273.896 228.742 272.712C228.742 270.408 229.59 268.6 231.286 267.288C232.982 265.944 235.286 265.272 238.198 265.272C239.67 265.272 241.078 265.416 242.422 265.704C243.766 265.96 244.774 266.216 245.446 266.472L244.39 271.176C243.75 270.888 242.934 270.632 241.942 270.408C240.95 270.152 239.798 270.024 238.486 270.024C237.302 270.024 236.342 270.232 235.606 270.648C234.87 271.032 234.502 271.64 234.502 272.472C234.502 272.888 234.566 273.256 234.694 273.576C234.854 273.896 235.11 274.2 235.462 274.488C235.814 274.744 236.278 275.016 236.854 275.304C237.43 275.56 238.134 275.832 238.966 276.12C240.342 276.632 241.51 277.144 242.47 277.656C243.43 278.136 244.214 278.696 244.822 279.336C245.462 279.944 245.926 280.648 246.214 281.448C246.502 282.248 246.646 283.208 246.646 284.328C246.646 286.728 245.75 288.552 243.958 289.8C242.198 291.016 239.67 291.624 236.374 291.624C234.166 291.624 232.39 291.432 231.046 291.048C229.702 290.696 228.758 290.408 228.214 290.184L229.222 285.336C230.086 285.688 231.11 286.024 232.294 286.344C233.51 286.664 234.886 286.824 236.422 286.824Z" fill="#323232"/>
</g>
<defs>
<filter id="filter0_d" x="-6.49882" y="-5.15011" width="274.999" height="274.999" filterUnits="userSpaceOnUse" color-interpolation-filters="sRGB">
<feFlood flood-opacity="0" result="BackgroundImageFix"/>
<feColorMatrix in="SourceAlpha" type="matrix" values="0 0 0 0 0 0 0 0 0 0 0 0 0 0 0 0 0 0 127 0"/>
<feOffset dy="9.99995"/>
<feGaussianBlur stdDeviation="8.74996"/>
<feColorMatrix type="matrix" values="0 0 0 0 0.0583333 0 0 0 0 0.0583333 0 0 0 0 0.0583333 0 0 0 0.5 0"/>
<feBlend mode="normal" in2="BackgroundImageFix" result="effect1_dropShadow"/>
<feBlend mode="normal" in="SourceGraphic" in2="effect1_dropShadow" result="shape"/>
</filter>
<filter id="filter1_d" x="7.68764" y="248.712" width="245.966" height="61.6807" filterUnits="userSpaceOnUse" color-interpolation-filters="sRGB">
<feFlood flood-opacity="0" result="BackgroundImageFix"/>
<feColorMatrix in="SourceAlpha" type="matrix" values="0 0 0 0 0 0 0 0 0 0 0 0 0 0 0 0 0 0 127 0"/>
<feOffset dy="3.50417"/>
<feGaussianBlur stdDeviation="3.50417"/>
<feColorMatrix type="matrix" values="0 0 0 0 0.0583333 0 0 0 0 0.0583333 0 0 0 0 0.0583333 0 0 0 0.5 0"/>
<feBlend mode="normal" in2="BackgroundImageFix" result="effect1_dropShadow"/>
<feBlend mode="normal" in="SourceGraphic" in2="effect1_dropShadow" result="shape"/>
</filter>
</defs>
</svg>
