<svg width="247" height="271" viewBox="0 0 247 271" fill="none" xmlns="http://www.w3.org/2000/svg">
<g filter="url(#filter0_d)">
<circle cx="123.929" cy="104.54" r="97.5215" fill="#323232"/>
<path d="M190.747 105.202C190.744 103.848 190.041 102.592 188.888 101.881L175.322 93.518L188.903 85.0649C190.048 84.3521 190.745 83.0994 190.747 81.7505C190.749 80.4016 190.056 79.1468 188.912 78.4304L126.077 39.0606C124.807 38.265 123.194 38.265 121.924 39.0606L59.0887 78.4304C57.9456 79.1468 57.2524 80.4016 57.2542 81.7505C57.2563 83.0996 57.9532 84.3524 59.0987 85.0649L72.5866 93.4598L59.0926 101.894C57.9481 102.609 57.2532 103.864 57.2546 105.214C57.2558 106.564 57.953 107.818 59.0988 108.531L72.5868 116.926L59.0926 125.36C57.9499 126.074 57.2553 127.326 57.2546 128.674C57.2537 130.022 57.947 131.275 59.0889 131.99L121.924 171.36C122.559 171.758 123.28 171.957 124.001 171.957C124.721 171.957 125.442 171.758 126.077 171.36L188.912 131.99C190.058 131.272 190.752 130.013 190.747 128.662C190.742 127.31 190.039 126.056 188.888 125.347L175.322 116.984L188.903 108.531C190.052 107.815 190.75 106.556 190.747 105.202ZM68.5489 81.7342L124.001 46.9905L179.452 81.7342C178.92 82.0658 125.59 115.259 124.001 116.248L68.5489 81.7342ZM179.427 128.703L124.001 163.431L68.5381 128.68L79.9811 121.528L121.934 147.64C122.567 148.034 123.284 148.231 124.001 148.231C124.718 148.231 125.435 148.034 126.067 147.64L167.905 121.6L179.427 128.703ZM124.001 139.713L68.5554 105.204L79.9811 98.0627L121.934 124.175C122.567 124.568 123.284 124.765 124.001 124.765C124.718 124.765 125.435 124.568 126.067 124.175L167.905 98.1347L179.409 105.226C179.091 105.424 125.469 138.799 124.001 139.713Z" fill="#D5DBD5"/>
</g>
<g filter="url(#filter1_d)">
<path d="M24.352 238.568C24.352 235.976 23.76 233.96 22.576 232.52C21.424 231.08 19.552 230.36 16.96 230.36C16.416 230.36 15.84 230.392 15.232 230.456C14.656 230.488 14.08 230.584 13.504 230.744V245.096C14.016 245.448 14.688 245.784 15.52 246.104C16.384 246.392 17.296 246.536 18.256 246.536C20.368 246.536 21.904 245.816 22.864 244.376C23.856 242.936 24.352 241 24.352 238.568ZM30.304 238.472C30.304 240.392 30.048 242.152 29.536 243.752C29.056 245.352 28.352 246.728 27.424 247.88C26.496 249.032 25.328 249.928 23.92 250.568C22.544 251.208 20.976 251.528 19.216 251.528C18.032 251.528 16.944 251.384 15.952 251.096C14.96 250.808 14.144 250.488 13.504 250.136V259.88H7.696V226.712C8.88 226.392 10.336 226.088 12.064 225.8C13.792 225.512 15.616 225.368 17.536 225.368C19.52 225.368 21.296 225.672 22.864 226.28C24.432 226.888 25.76 227.768 26.848 228.92C27.968 230.04 28.816 231.416 29.392 233.048C30 234.648 30.304 236.456 30.304 238.472ZM50.5938 231.128C50.1138 230.968 49.4418 230.808 48.5778 230.648C47.7458 230.456 46.7698 230.36 45.6498 230.36C45.0098 230.36 44.3218 230.424 43.5858 230.552C42.8818 230.68 42.3858 230.792 42.0978 230.888V251H36.2898V227.096C37.4098 226.68 38.8018 226.296 40.4658 225.944C42.1618 225.56 44.0338 225.368 46.0818 225.368C46.4658 225.368 46.9138 225.4 47.4258 225.464C47.9378 225.496 48.4498 225.56 48.9618 225.656C49.4738 225.72 49.9698 225.816 50.4498 225.944C50.9298 226.04 51.3138 226.136 51.6018 226.232L50.5938 231.128ZM78.3531 238.424C78.3531 240.408 78.0651 242.216 77.4891 243.848C76.9131 245.48 76.0971 246.872 75.0411 248.024C73.9851 249.176 72.7051 250.072 71.2011 250.712C69.7291 251.352 68.0971 251.672 66.3051 251.672C64.5131 251.672 62.8811 251.352 61.4091 250.712C59.9371 250.072 58.6731 249.176 57.6171 248.024C56.5611 246.872 55.7291 245.48 55.1211 243.848C54.5451 242.216 54.2571 240.408 54.2571 238.424C54.2571 236.44 54.5451 234.648 55.1211 233.048C55.7291 231.416 56.5611 230.024 57.6171 228.872C58.7051 227.72 59.9851 226.84 61.4571 226.232C62.9291 225.592 64.5451 225.272 66.3051 225.272C68.0651 225.272 69.6811 225.592 71.1531 226.232C72.6571 226.84 73.9371 227.72 74.9931 228.872C76.0491 230.024 76.8651 231.416 77.4411 233.048C78.0491 234.648 78.3531 236.44 78.3531 238.424ZM72.4011 238.424C72.4011 235.928 71.8571 233.96 70.7691 232.52C69.7131 231.048 68.2251 230.312 66.3051 230.312C64.3851 230.312 62.8811 231.048 61.7931 232.52C60.7371 233.96 60.2091 235.928 60.2091 238.424C60.2091 240.952 60.7371 242.952 61.7931 244.424C62.8811 245.896 64.3851 246.632 66.3051 246.632C68.2251 246.632 69.7131 245.896 70.7691 244.424C71.8571 242.952 72.4011 240.952 72.4011 238.424ZM84.0486 219.272L89.8566 218.312V225.896H98.7846V230.744H89.8566V240.968C89.8566 242.984 90.1766 244.424 90.8166 245.288C91.4566 246.152 92.5446 246.584 94.0806 246.584C95.1366 246.584 96.0646 246.472 96.8646 246.248C97.6966 246.024 98.3526 245.816 98.8326 245.624L99.7926 250.232C99.1206 250.52 98.2406 250.808 97.1526 251.096C96.0646 251.416 94.7846 251.576 93.3126 251.576C91.5206 251.576 90.0166 251.336 88.8006 250.856C87.6166 250.376 86.6726 249.688 85.9686 248.792C85.2646 247.864 84.7686 246.76 84.4806 245.48C84.1926 244.168 84.0486 242.68 84.0486 241.016V219.272ZM126.541 238.424C126.541 240.408 126.253 242.216 125.677 243.848C125.101 245.48 124.285 246.872 123.229 248.024C122.173 249.176 120.893 250.072 119.389 250.712C117.917 251.352 116.285 251.672 114.493 251.672C112.701 251.672 111.069 251.352 109.597 250.712C108.125 250.072 106.861 249.176 105.805 248.024C104.749 246.872 103.917 245.48 103.309 243.848C102.733 242.216 102.445 240.408 102.445 238.424C102.445 236.44 102.733 234.648 103.309 233.048C103.917 231.416 104.749 230.024 105.805 228.872C106.893 227.72 108.173 226.84 109.645 226.232C111.117 225.592 112.733 225.272 114.493 225.272C116.253 225.272 117.869 225.592 119.341 226.232C120.845 226.84 122.125 227.72 123.181 228.872C124.237 230.024 125.053 231.416 125.629 233.048C126.237 234.648 126.541 236.44 126.541 238.424ZM120.589 238.424C120.589 235.928 120.045 233.96 118.957 232.52C117.901 231.048 116.413 230.312 114.493 230.312C112.573 230.312 111.069 231.048 109.981 232.52C108.925 233.96 108.397 235.928 108.397 238.424C108.397 240.952 108.925 242.952 109.981 244.424C111.069 245.896 112.573 246.632 114.493 246.632C116.413 246.632 117.901 245.896 118.957 244.424C120.045 242.952 120.589 240.952 120.589 238.424ZM120.781 215.624L112.957 223.208L110.077 220.616L117.133 212.216L120.781 215.624ZM132.236 219.272L138.044 218.312V225.896H146.972V230.744H138.044V240.968C138.044 242.984 138.364 244.424 139.004 245.288C139.644 246.152 140.732 246.584 142.268 246.584C143.324 246.584 144.252 246.472 145.052 246.248C145.884 246.024 146.54 245.816 147.02 245.624L147.98 250.232C147.308 250.52 146.428 250.808 145.34 251.096C144.252 251.416 142.972 251.576 141.5 251.576C139.708 251.576 138.204 251.336 136.988 250.856C135.804 250.376 134.86 249.688 134.156 248.792C133.452 247.864 132.956 246.76 132.668 245.48C132.38 244.168 132.236 242.68 132.236 241.016V219.272ZM158.443 251H152.635V225.896H158.443V251ZM159.067 218.552C159.067 219.64 158.715 220.504 158.011 221.144C157.307 221.784 156.475 222.104 155.515 222.104C154.523 222.104 153.675 221.784 152.971 221.144C152.267 220.504 151.915 219.64 151.915 218.552C151.915 217.432 152.267 216.552 152.971 215.912C153.675 215.272 154.523 214.952 155.515 214.952C156.475 214.952 157.307 215.272 158.011 215.912C158.715 216.552 159.067 217.432 159.067 218.552ZM182.508 238.568C182.508 235.976 181.916 233.96 180.732 232.52C179.58 231.08 177.708 230.36 175.116 230.36C174.572 230.36 173.996 230.392 173.388 230.456C172.812 230.488 172.236 230.584 171.66 230.744V245.096C172.172 245.448 172.844 245.784 173.676 246.104C174.54 246.392 175.452 246.536 176.412 246.536C178.524 246.536 180.06 245.816 181.02 244.376C182.012 242.936 182.508 241 182.508 238.568ZM188.46 238.472C188.46 240.392 188.204 242.152 187.692 243.752C187.212 245.352 186.508 246.728 185.58 247.88C184.652 249.032 183.484 249.928 182.076 250.568C180.7 251.208 179.132 251.528 177.372 251.528C176.188 251.528 175.1 251.384 174.108 251.096C173.116 250.808 172.3 250.488 171.66 250.136V259.88H165.852V226.712C167.036 226.392 168.492 226.088 170.22 225.8C171.948 225.512 173.772 225.368 175.692 225.368C177.676 225.368 179.452 225.672 181.02 226.28C182.588 226.888 183.916 227.768 185.004 228.92C186.124 230.04 186.972 231.416 187.548 233.048C188.156 234.648 188.46 236.456 188.46 238.472ZM217.15 238.424C217.15 240.408 216.862 242.216 216.286 243.848C215.71 245.48 214.894 246.872 213.838 248.024C212.782 249.176 211.502 250.072 209.998 250.712C208.526 251.352 206.894 251.672 205.102 251.672C203.31 251.672 201.678 251.352 200.206 250.712C198.734 250.072 197.47 249.176 196.414 248.024C195.358 246.872 194.526 245.48 193.918 243.848C193.342 242.216 193.054 240.408 193.054 238.424C193.054 236.44 193.342 234.648 193.918 233.048C194.526 231.416 195.358 230.024 196.414 228.872C197.502 227.72 198.782 226.84 200.254 226.232C201.726 225.592 203.342 225.272 205.102 225.272C206.862 225.272 208.478 225.592 209.95 226.232C211.454 226.84 212.734 227.72 213.79 228.872C214.846 230.024 215.662 231.416 216.238 233.048C216.846 234.648 217.15 236.44 217.15 238.424ZM211.198 238.424C211.198 235.928 210.654 233.96 209.566 232.52C208.51 231.048 207.022 230.312 205.102 230.312C203.182 230.312 201.678 231.048 200.59 232.52C199.534 233.96 199.006 235.928 199.006 238.424C199.006 240.952 199.534 242.952 200.59 244.424C201.678 245.896 203.182 246.632 205.102 246.632C207.022 246.632 208.51 245.896 209.566 244.424C210.654 242.952 211.198 240.952 211.198 238.424ZM229.422 246.824C230.958 246.824 232.078 246.648 232.782 246.296C233.486 245.912 233.838 245.272 233.838 244.376C233.838 243.544 233.454 242.856 232.686 242.312C231.95 241.768 230.718 241.176 228.99 240.536C227.934 240.152 226.958 239.752 226.062 239.336C225.198 238.888 224.446 238.376 223.806 237.8C223.166 237.224 222.654 236.536 222.27 235.736C221.918 234.904 221.742 233.896 221.742 232.712C221.742 230.408 222.59 228.6 224.286 227.288C225.982 225.944 228.286 225.272 231.198 225.272C232.67 225.272 234.078 225.416 235.422 225.704C236.766 225.96 237.774 226.216 238.446 226.472L237.39 231.176C236.75 230.888 235.934 230.632 234.942 230.408C233.95 230.152 232.798 230.024 231.486 230.024C230.302 230.024 229.342 230.232 228.606 230.648C227.87 231.032 227.502 231.64 227.502 232.472C227.502 232.888 227.566 233.256 227.694 233.576C227.854 233.896 228.11 234.2 228.462 234.488C228.814 234.744 229.278 235.016 229.854 235.304C230.43 235.56 231.134 235.832 231.966 236.12C233.342 236.632 234.51 237.144 235.47 237.656C236.43 238.136 237.214 238.696 237.822 239.336C238.462 239.944 238.926 240.648 239.214 241.448C239.502 242.248 239.646 243.208 239.646 244.328C239.646 246.728 238.75 248.552 236.958 249.8C235.198 251.016 232.67 251.624 229.374 251.624C227.166 251.624 225.39 251.432 224.046 251.048C222.702 250.696 221.758 250.408 221.214 250.184L222.222 245.336C223.086 245.688 224.11 246.024 225.294 246.344C226.51 246.664 227.886 246.824 229.422 246.824Z" fill="#323232"/>
</g>
<defs>
<filter id="filter0_d" x="5.57954" y="-4.45933" width="236.842" height="236.842" filterUnits="userSpaceOnUse" color-interpolation-filters="sRGB">
<feFlood flood-opacity="0" result="BackgroundImageFix"/>
<feColorMatrix in="SourceAlpha" type="matrix" values="0 0 0 0 0 0 0 0 0 0 0 0 0 0 0 0 0 0 127 0"/>
<feOffset dy="8.61244"/>
<feGaussianBlur stdDeviation="7.53588"/>
<feColorMatrix type="matrix" values="0 0 0 0 0.0583333 0 0 0 0 0.0583333 0 0 0 0 0.0583333 0 0 0 0.5 0"/>
<feBlend mode="normal" in2="BackgroundImageFix" result="effect1_dropShadow"/>
<feBlend mode="normal" in="SourceGraphic" in2="effect1_dropShadow" result="shape"/>
</filter>
<filter id="filter1_d" x="0.687644" y="208.712" width="245.966" height="61.6807" filterUnits="userSpaceOnUse" color-interpolation-filters="sRGB">
<feFlood flood-opacity="0" result="BackgroundImageFix"/>
<feColorMatrix in="SourceAlpha" type="matrix" values="0 0 0 0 0 0 0 0 0 0 0 0 0 0 0 0 0 0 127 0"/>
<feOffset dy="3.50417"/>
<feGaussianBlur stdDeviation="3.50417"/>
<feColorMatrix type="matrix" values="0 0 0 0 0.0583333 0 0 0 0 0.0583333 0 0 0 0 0.0583333 0 0 0 0.5 0"/>
<feBlend mode="normal" in2="BackgroundImageFix" result="effect1_dropShadow"/>
<feBlend mode="normal" in="SourceGraphic" in2="effect1_dropShadow" result="shape"/>
</filter>
</defs>
</svg>
