<svg width="254" height="300" viewBox="0 0 254 300" fill="none" xmlns="http://www.w3.org/2000/svg">
<g filter="url(#filter0_d)">
<path d="M31.9841 277.824C33.5201 277.824 34.6401 277.648 35.3441 277.296C36.0481 276.912 36.4001 276.272 36.4001 275.376C36.4001 274.544 36.0161 273.856 35.2481 273.312C34.5121 272.768 33.2801 272.176 31.5521 271.536C30.4961 271.152 29.5201 270.752 28.6241 270.336C27.7601 269.888 27.0081 269.376 26.3681 268.8C25.7281 268.224 25.2161 267.536 24.8321 266.736C24.4801 265.904 24.3041 264.896 24.3041 263.712C24.3041 261.408 25.1521 259.6 26.8481 258.288C28.5441 256.944 30.8481 256.272 33.7601 256.272C35.2321 256.272 36.6401 256.416 37.9841 256.704C39.3281 256.96 40.3361 257.216 41.0081 257.472L39.9521 262.176C39.3121 261.888 38.4961 261.632 37.5041 261.408C36.5121 261.152 35.3601 261.024 34.0481 261.024C32.8641 261.024 31.9041 261.232 31.1681 261.648C30.4321 262.032 30.0641 262.64 30.0641 263.472C30.0641 263.888 30.1281 264.256 30.2561 264.576C30.4161 264.896 30.6721 265.2 31.0241 265.488C31.3761 265.744 31.8401 266.016 32.4161 266.304C32.9921 266.56 33.6961 266.832 34.5281 267.12C35.9041 267.632 37.0721 268.144 38.0321 268.656C38.9921 269.136 39.7761 269.696 40.3841 270.336C41.0241 270.944 41.4881 271.648 41.7761 272.448C42.0641 273.248 42.2081 274.208 42.2081 275.328C42.2081 277.728 41.3121 279.552 39.5201 280.8C37.7601 282.016 35.2321 282.624 31.9361 282.624C29.7281 282.624 27.9521 282.432 26.6081 282.048C25.2641 281.696 24.3201 281.408 23.7761 281.184L24.7841 276.336C25.6481 276.688 26.6721 277.024 27.8561 277.344C29.0721 277.664 30.4481 277.824 31.9841 277.824ZM52.1936 269.568C52.1936 272 52.6736 273.936 53.6336 275.376C54.6256 276.816 56.1776 277.536 58.2896 277.536C59.2496 277.536 60.1456 277.392 60.9776 277.104C61.8416 276.784 62.5296 276.448 63.0416 276.096V261.744C62.6256 261.648 62.0976 261.568 61.4576 261.504C60.8496 261.408 60.0496 261.36 59.0576 261.36C56.9136 261.36 55.2336 262.096 54.0176 263.568C52.8016 265.008 52.1936 267.008 52.1936 269.568ZM46.2416 269.472C46.2416 267.488 46.5296 265.696 47.1056 264.096C47.7136 262.464 48.5616 261.088 49.6496 259.968C50.7696 258.816 52.1136 257.936 53.6816 257.328C55.2496 256.688 57.0256 256.368 59.0096 256.368C60.9936 256.368 62.8496 256.512 64.5776 256.8C66.3056 257.088 67.7296 257.392 68.8496 257.712V290.88H63.0416V281.136C62.3696 281.488 61.5376 281.808 60.5456 282.096C59.5856 282.384 58.5136 282.528 57.3296 282.528C55.5376 282.528 53.9536 282.224 52.5776 281.616C51.2016 280.976 50.0496 280.08 49.1216 278.928C48.1936 277.776 47.4736 276.4 46.9616 274.8C46.4816 273.2 46.2416 271.424 46.2416 269.472ZM84.9633 282.48C83.2353 282.448 81.7953 282.256 80.6433 281.904C79.5233 281.552 78.6273 281.056 77.9553 280.416C77.2833 279.744 76.8033 278.928 76.5153 277.968C76.2593 276.976 76.1313 275.856 76.1313 274.608V245.712L81.9393 244.752V273.504C81.9393 274.208 81.9873 274.8 82.0833 275.28C82.2113 275.76 82.4193 276.176 82.7073 276.528C82.9953 276.848 83.3793 277.104 83.8593 277.296C84.3713 277.456 85.0113 277.584 85.7793 277.68L84.9633 282.48ZM107.968 277.824C109.504 277.824 110.624 277.648 111.328 277.296C112.032 276.912 112.384 276.272 112.384 275.376C112.384 274.544 112 273.856 111.232 273.312C110.496 272.768 109.264 272.176 107.536 271.536C106.48 271.152 105.504 270.752 104.608 270.336C103.744 269.888 102.992 269.376 102.352 268.8C101.712 268.224 101.2 267.536 100.816 266.736C100.464 265.904 100.288 264.896 100.288 263.712C100.288 261.408 101.136 259.6 102.832 258.288C104.528 256.944 106.832 256.272 109.744 256.272C111.216 256.272 112.624 256.416 113.968 256.704C115.312 256.96 116.32 257.216 116.992 257.472L115.936 262.176C115.296 261.888 114.48 261.632 113.488 261.408C112.496 261.152 111.344 261.024 110.032 261.024C108.848 261.024 107.888 261.232 107.152 261.648C106.416 262.032 106.048 262.64 106.048 263.472C106.048 263.888 106.112 264.256 106.24 264.576C106.4 264.896 106.656 265.2 107.008 265.488C107.36 265.744 107.824 266.016 108.4 266.304C108.976 266.56 109.68 266.832 110.512 267.12C111.888 267.632 113.056 268.144 114.016 268.656C114.976 269.136 115.76 269.696 116.368 270.336C117.008 270.944 117.472 271.648 117.76 272.448C118.048 273.248 118.192 274.208 118.192 275.328C118.192 277.728 117.296 279.552 115.504 280.8C113.744 282.016 111.216 282.624 107.92 282.624C105.712 282.624 103.936 282.432 102.592 282.048C101.248 281.696 100.304 281.408 99.7605 281.184L100.768 276.336C101.632 276.688 102.656 277.024 103.84 277.344C105.056 277.664 106.432 277.824 107.968 277.824ZM122.226 269.568C122.226 267.36 122.546 265.424 123.186 263.76C123.858 262.096 124.738 260.72 125.826 259.632C126.914 258.512 128.162 257.68 129.57 257.136C130.978 256.56 132.418 256.272 133.89 256.272C137.346 256.272 140.034 257.344 141.954 259.488C143.906 261.632 144.882 264.832 144.882 269.088C144.882 269.408 144.866 269.776 144.834 270.192C144.834 270.576 144.818 270.928 144.786 271.248H128.226C128.386 273.264 129.09 274.832 130.338 275.952C131.618 277.04 133.458 277.584 135.858 277.584C137.266 277.584 138.546 277.456 139.698 277.2C140.882 276.944 141.81 276.672 142.482 276.384L143.25 281.136C142.93 281.296 142.482 281.472 141.906 281.664C141.362 281.824 140.722 281.968 139.986 282.096C139.282 282.256 138.514 282.384 137.682 282.48C136.85 282.576 136.002 282.624 135.138 282.624C132.93 282.624 131.01 282.304 129.378 281.664C127.746 280.992 126.402 280.08 125.346 278.928C124.29 277.744 123.506 276.368 122.994 274.8C122.482 273.2 122.226 271.456 122.226 269.568ZM139.074 266.976C139.074 266.176 138.962 265.424 138.738 264.72C138.514 263.984 138.178 263.36 137.73 262.848C137.314 262.304 136.786 261.888 136.146 261.6C135.538 261.28 134.802 261.12 133.938 261.12C133.042 261.12 132.258 261.296 131.586 261.648C130.914 261.968 130.338 262.4 129.858 262.944C129.41 263.488 129.058 264.112 128.802 264.816C128.546 265.52 128.37 266.24 128.274 266.976H139.074ZM165.344 262.128C164.864 261.968 164.192 261.808 163.328 261.648C162.496 261.456 161.52 261.36 160.4 261.36C159.76 261.36 159.072 261.424 158.336 261.552C157.632 261.68 157.136 261.792 156.848 261.888V282H151.04V258.096C152.16 257.68 153.552 257.296 155.216 256.944C156.912 256.56 158.784 256.368 160.832 256.368C161.216 256.368 161.664 256.4 162.176 256.464C162.688 256.496 163.2 256.56 163.712 256.656C164.224 256.72 164.72 256.816 165.2 256.944C165.68 257.04 166.064 257.136 166.352 257.232L165.344 262.128ZM177.675 282C176.075 278.704 174.427 274.928 172.731 270.672C171.067 266.384 169.547 261.792 168.171 256.896H174.363C174.715 258.304 175.115 259.824 175.563 261.456C176.043 263.056 176.539 264.672 177.051 266.304C177.595 267.904 178.139 269.472 178.683 271.008C179.259 272.512 179.787 273.872 180.267 275.088C180.747 273.872 181.259 272.512 181.803 271.008C182.347 269.472 182.875 267.904 183.387 266.304C183.931 264.672 184.443 263.056 184.923 261.456C185.403 259.824 185.819 258.304 186.171 256.896H192.171C190.795 261.792 189.259 266.384 187.563 270.672C185.899 274.928 184.267 278.704 182.667 282H177.675ZM194.554 269.568C194.554 267.36 194.874 265.424 195.514 263.76C196.186 262.096 197.066 260.72 198.154 259.632C199.242 258.512 200.49 257.68 201.898 257.136C203.306 256.56 204.746 256.272 206.218 256.272C209.674 256.272 212.362 257.344 214.282 259.488C216.234 261.632 217.21 264.832 217.21 269.088C217.21 269.408 217.194 269.776 217.162 270.192C217.162 270.576 217.146 270.928 217.114 271.248H200.554C200.714 273.264 201.418 274.832 202.666 275.952C203.946 277.04 205.786 277.584 208.186 277.584C209.594 277.584 210.874 277.456 212.026 277.2C213.21 276.944 214.138 276.672 214.81 276.384L215.578 281.136C215.258 281.296 214.81 281.472 214.234 281.664C213.69 281.824 213.05 281.968 212.314 282.096C211.61 282.256 210.842 282.384 210.01 282.48C209.178 282.576 208.33 282.624 207.466 282.624C205.258 282.624 203.338 282.304 201.706 281.664C200.074 280.992 198.73 280.08 197.674 278.928C196.618 277.744 195.834 276.368 195.322 274.8C194.81 273.2 194.554 271.456 194.554 269.568ZM211.402 266.976C211.402 266.176 211.29 265.424 211.066 264.72C210.842 263.984 210.506 263.36 210.058 262.848C209.642 262.304 209.114 261.888 208.474 261.6C207.866 261.28 207.13 261.12 206.266 261.12C205.37 261.12 204.586 261.296 203.914 261.648C203.242 261.968 202.666 262.4 202.186 262.944C201.738 263.488 201.386 264.112 201.13 264.816C200.874 265.52 200.698 266.24 200.602 266.976H211.402ZM237.672 262.128C237.192 261.968 236.52 261.808 235.656 261.648C234.824 261.456 233.848 261.36 232.728 261.36C232.088 261.36 231.4 261.424 230.664 261.552C229.96 261.68 229.464 261.792 229.176 261.888V282H223.368V258.096C224.488 257.68 225.88 257.296 227.544 256.944C229.24 256.56 231.112 256.368 233.16 256.368C233.544 256.368 233.992 256.4 234.504 256.464C235.016 256.496 235.528 256.56 236.04 256.656C236.552 256.72 237.048 256.816 237.528 256.944C238.008 257.04 238.392 257.136 238.68 257.232L237.672 262.128Z" fill="#323232"/>
</g>
<g filter="url(#filter1_d)">
<circle cx="126.89" cy="119.89" r="113.11" fill="#323232"/>
</g>
<path d="M158.369 114.281L124.504 125.337L95.0412 138.342L86.7997 140.518C84.6994 142.517 82.4983 144.534 80.1208 146.584C77.5081 148.835 75.0801 150.885 73.2067 152.372C71.1316 154.01 68.0652 157.085 66.5026 159.026C64.1755 161.941 62.3272 165.041 61.5375 167.418C60.1261 171.72 60.8234 176.072 63.537 180.087C67.015 185.204 73.9544 190.429 82.0447 193.983C86.1696 195.797 93.1005 198.133 98.326 199.435C107.004 201.636 123.798 204.014 133.031 204.375C134.896 204.451 137.408 204.451 137.509 204.375C137.711 204.249 139.147 201.51 140.811 198.108C146.49 186.514 150.589 175.635 152.816 166.343C154.143 160.714 155.193 153.212 155.891 144.332C156.067 141.845 156.143 133.528 155.991 130.714C155.765 126.11 155.353 122.372 154.714 118.709C154.614 118.171 154.588 117.684 154.639 117.658C154.74 117.583 155.05 117.482 159.217 116.272L158.369 114.281ZM150.64 118.818C150.951 118.818 151.766 126.673 151.967 131.638C152.018 132.688 151.992 133.377 151.942 133.377C151.74 133.377 147.615 130.949 144.675 129.101C142.113 127.488 137.248 124.262 136.484 123.648C136.224 123.472 136.257 123.447 138.349 122.724C141.911 121.531 150.354 118.818 150.64 118.818ZM133.384 124.497C133.611 124.497 134.199 124.833 135.61 125.698C140.886 129 148.052 132.991 151.119 134.326C152.068 134.738 152.169 134.578 149.993 136.065C145.33 139.241 139.525 142.358 132.409 145.508C131.158 146.071 130.107 146.508 130.082 146.508C130.032 146.508 130.183 145.869 130.393 145.097C132.107 138.72 133.082 132.276 133.132 127.101C133.157 124.539 133.157 124.539 133.384 124.463C133.334 124.497 133.359 124.497 133.384 124.497ZM129.83 125.858C129.981 126.009 129.881 131.747 129.679 133.31C129.217 137.048 128.503 140.526 127.327 144.441C127.041 145.391 126.789 146.18 126.739 146.231C126.638 146.357 123.126 142.929 121.975 141.602C119.976 139.3 118.422 136.998 117.262 134.738C116.674 133.587 115.75 131.336 115.826 131.26C116.237 130.974 129.729 125.757 129.83 125.858ZM113.087 132.436C113.112 132.436 113.137 132.436 113.162 132.461C113.213 132.512 113.389 132.923 113.549 133.385C114.364 135.612 116.212 138.888 117.8 140.988C119.539 143.29 121.816 145.752 123.714 147.365C124.328 147.877 124.89 148.365 124.966 148.44C125.117 148.591 125.168 148.566 121.001 150.154C116.162 151.994 110.894 153.842 104.845 155.783C103.4 156.245 101.964 156.715 100.519 157.194C100.292 157.27 100.368 157.144 101.031 156.094C104.022 151.406 108.584 142.223 111.138 135.721C111.575 134.595 112.011 133.469 112.087 133.209C112.188 132.848 112.314 132.722 112.65 132.545C112.835 132.486 113.011 132.436 113.087 132.436ZM107.971 134.562C108.046 134.612 106.744 137.351 105.459 139.863C102.972 144.702 100.258 149.465 96.629 155.245C96.0157 156.245 95.4276 157.169 95.352 157.27C95.226 157.446 95.1756 157.396 94.764 156.606C93.8902 154.892 93.1761 152.691 92.7897 150.667C92.4032 148.667 92.4789 145.189 92.9157 143.038C93.2518 141.45 93.2266 141.476 93.9911 141.089C97.2675 139.417 107.87 134.452 107.971 134.562ZM152.127 136.351V137.426C152.127 143.131 151.514 150.969 150.615 156.673C150.463 157.673 150.329 158.488 150.304 158.513C150.304 158.513 149.564 158.312 148.691 158.051C144.851 156.85 140.676 155.086 136.912 153.01C134.426 151.658 130.822 149.423 130.922 149.322C130.948 149.297 132.023 148.734 133.275 148.071C138.29 145.458 143.104 142.643 147.279 139.854C148.842 138.804 151.194 137.115 151.707 136.653L152.127 136.351ZM88.6479 143.929C88.7488 143.929 88.7236 144.13 88.5723 145.055C88.4715 145.718 88.3455 146.945 88.2951 147.793C88.0935 151.532 88.7067 154.296 90.5466 158.085C91.0591 159.135 91.4707 160.009 91.4455 160.034C91.2691 160.185 74.324 165.15 68.9977 166.612C67.4099 167.049 66.0321 167.427 65.9229 167.46C65.7465 167.511 65.7213 167.486 65.7969 167.049C66.385 163.285 69.2497 158.37 73.2487 154.229C75.9118 151.465 78.0373 149.852 81.6666 147.777C84.2794 146.29 88.2951 144.063 88.6059 143.962C88.5891 143.929 88.6227 143.929 88.6479 143.929ZM128.578 151.07C128.604 151.045 129.217 151.381 129.956 151.809C135.434 154.985 143.062 157.925 149.565 159.437L150.153 159.563L149.329 160.025C145.927 161.916 134.737 166.578 123.294 170.854C121.631 171.468 119.993 172.081 119.682 172.207C119.371 172.333 119.094 172.409 119.094 172.383C119.094 172.358 119.556 171.459 120.144 170.359C123.345 164.369 126.571 157.077 128.209 152.002C128.419 151.532 128.545 151.095 128.578 151.07ZM124.504 152.397C124.529 152.422 124.328 152.96 124.067 153.573C121.841 158.975 118.926 164.864 115.187 171.468C114.238 173.156 113.448 174.517 113.423 174.517C113.398 174.517 112.633 174.055 111.709 173.492C106.282 170.166 101.468 166.066 98.326 162.1L97.864 161.538L100.191 160.899C108.533 158.622 115.624 156.161 122.664 153.145C123.664 152.733 124.479 152.397 124.504 152.397ZM149.791 161.227C149.791 161.227 149.817 161.252 149.791 161.227C149.817 161.815 148.514 167.091 147.439 170.905C146.54 174.106 145.776 176.609 144.364 181.045C143.751 182.994 143.213 184.607 143.188 184.607C143.163 184.607 143.012 184.582 142.852 184.531C135.249 183.145 128.444 181.23 122.042 178.667C120.253 177.953 117.691 176.802 117.539 176.668C117.489 176.618 119.026 175.903 120.967 175.055C132.611 169.964 144.692 164.176 148.842 161.697C149.329 161.386 149.716 161.227 149.791 161.227ZM91.4119 163.226C91.4623 163.277 88.2111 167.964 83.6577 174.332C82.0699 176.559 80.23 179.172 79.5411 180.146C78.8522 181.121 77.8021 182.658 77.214 183.574L76.1387 185.237L74.9877 184.263C73.6351 183.137 71.2744 180.734 70.2243 179.398C68.0232 176.66 66.5362 173.77 65.9481 171.132C65.6625 169.905 65.6625 169.292 65.9229 169.208C66.3093 169.107 73.1395 167.494 79.5411 166.007C83.1032 165.192 87.2197 164.218 88.7067 163.856C90.1769 163.503 91.3867 163.226 91.4119 163.226ZM94.6884 164.478L95.5033 165.402C99.1914 169.527 102.955 172.568 107.508 175.231C108.332 175.693 108.945 176.105 108.886 176.13C108.71 176.256 93.0669 181.809 85.8252 184.321C81.759 185.758 78.3986 186.909 78.3734 186.909C78.3482 186.909 78.1213 186.758 77.8609 186.573L77.3988 186.237L78.1381 185.162C80.5409 181.683 83.5653 177.869 90.1433 169.93L94.6884 164.478ZM115.111 179.096C115.137 179.071 116.262 179.482 117.649 179.995C120.975 181.247 123.613 182.045 127.142 182.935C131.494 184.036 137.786 185.111 141.499 185.422C142.062 185.472 142.373 185.523 142.264 185.598C142.088 185.699 138.324 186.959 135.56 187.825C131.158 189.202 117.716 193.176 106.761 196.327C104.736 196.915 102.997 197.402 102.896 197.427C102.644 197.478 101.796 197.251 101.796 197.142C101.796 197.091 102.409 196.293 103.148 195.428C106.836 191.026 110.491 186.111 113.54 181.448C114.397 180.171 115.111 179.121 115.111 179.096ZM110.608 179.222C110.634 179.247 108.819 182.162 105.643 187.186C104.282 189.312 102.779 191.714 102.241 192.563C101.728 193.378 100.964 194.663 100.527 195.377L99.7878 196.679L99.4014 196.579C98.4773 196.327 92 194.042 90.2862 193.353C88.1607 192.504 85.9596 191.488 84.3214 190.614C82.2715 189.513 79.7175 187.875 79.9192 187.825C79.9696 187.799 83.4812 186.85 87.6986 185.699C98.9141 182.65 105.131 180.885 109.197 179.608C109.945 179.373 110.583 179.197 110.608 179.222ZM142.474 186.699H142.499C142.6 186.951 138.458 198.477 136.946 202.107C136.61 202.922 136.484 203.132 136.308 203.106C135.871 203.081 129.855 202.233 126.193 201.695C119.816 200.72 109.121 198.855 106.433 198.242L105.82 198.116L109.634 197.242C117.825 195.403 121.765 194.403 125.756 193.176C130.796 191.639 135.787 189.723 140.836 187.363C141.625 187.001 142.298 186.724 142.474 186.699Z" fill="url(#paint0_linear)"/>
<path d="M123.454 35.345C122.891 35.2694 113.801 38.5459 107.945 40.9234C100.04 44.1494 93.8903 47.2242 90.1014 49.879C88.69 50.8787 86.9257 52.643 86.6485 53.3318C86.5477 53.5839 86.4973 53.8947 86.4973 54.2056L89.9249 57.4568L98.0908 60.0696L117.523 63.5476L139.744 67.3617L139.97 65.4379C139.895 65.4379 139.844 65.4127 139.769 65.4127L136.854 64.9506L136.266 63.9005C133.241 58.5742 129.914 51.9709 127.974 47.5183C126.461 44.0654 125.033 40.0665 124.235 37.2017C123.79 35.4711 123.739 35.3702 123.454 35.345ZM123.042 36.6556H123.067C123.093 36.6808 123.193 37.3949 123.294 38.2434C123.731 41.8307 124.521 45.2836 125.781 49.0221C126.73 51.8365 126.73 51.6852 125.63 51.3492C123.017 50.6351 111.323 48.6104 102.846 47.4343C101.493 47.2578 100.334 47.073 100.334 47.0478C100.233 46.947 106.45 43.6958 109.189 42.4188C112.709 40.7974 122.328 36.7816 123.042 36.6556ZM98.3681 48.1232L99.3678 48.4592C104.795 50.299 118.438 52.9118 125.966 53.5251C126.814 53.6007 127.528 53.6763 127.554 53.6763C127.579 53.7015 126.865 54.0879 125.941 54.5248C122.303 56.3395 118.312 58.5658 115.548 60.288C114.733 60.8004 113.986 61.2121 113.885 61.2121C113.784 61.2121 113.246 61.1113 112.684 61.0357L111.659 60.8845L109.096 58.3725C104.593 53.9955 101.056 50.6183 99.7039 49.3329L98.3681 48.1232ZM97.3431 48.9129L100.956 53.4159C102.93 55.9026 104.921 58.3305 105.358 58.8682C105.795 59.4059 106.148 59.8427 106.122 59.8679C106.021 59.9435 100.897 58.9438 98.1833 58.3305C95.3941 57.692 94.2431 57.3812 92.5293 56.8435L91.1179 56.3815V56.0202C91.1431 54.3064 93.319 51.744 97.0071 49.1313L97.3431 48.9129ZM128.016 55.0541C128.116 55.0541 128.242 55.2809 128.553 55.9782C129.427 57.8937 132.141 63.0688 132.804 64.0685C133.006 64.4045 133.367 64.4297 129.755 63.8417C121.076 62.4303 118.287 61.9766 118.287 61.9262C118.287 61.901 118.539 61.7246 118.875 61.5398C121.564 60.0528 124.277 58.1625 126.68 56.1378C127.268 55.6506 127.806 55.1885 127.906 55.1129C127.932 55.0541 127.982 55.0289 128.016 55.0541Z" fill="url(#paint1_linear)"/>
<path d="M86.8249 52.9783C86.8249 52.9783 86.262 53.8772 86.7997 55.2046C87.1358 56.0195 88.1019 57.0192 89.2024 58.0441C89.2024 58.0441 100.594 69.1504 101.972 70.7382C108.265 78.0052 111.012 85.1714 111.264 95.0511C111.415 101.402 110.214 106.981 107.223 113.458C101.897 125.077 90.6642 137.905 73.3327 152.137L75.8698 151.288C77.5081 150.062 79.7344 148.751 84.9599 145.886C97.0155 139.283 110.583 133.217 127.218 126.967C151.178 117.961 190.57 107.409 212.993 103.981L215.32 103.62L214.959 103.057C212.909 99.8817 211.506 97.9159 209.817 95.8156C204.903 89.7248 198.938 84.7849 191.646 80.6852C181.615 75.0816 168.635 70.7046 152.202 67.4534C149.102 66.8401 142.298 65.664 136.77 64.8155C125.05 63.0008 117.472 61.7406 109.121 60.3124C106.131 59.8 101.644 59.0355 98.6789 58.397C97.1415 58.0609 94.2011 57.3721 91.8992 56.5824C90.0509 55.8767 87.3878 55.1542 86.8249 52.9783ZM93.4282 59.3799C93.4534 59.3547 93.8651 59.5059 94.4027 59.6908C95.3773 60.0268 96.629 60.4049 98.116 60.8165C99.2418 61.1274 100.368 61.4214 101.493 61.7154C103.031 62.1019 104.308 62.4547 104.333 62.4547C104.509 62.6312 107.097 70.8979 107.971 74.0735C108.307 75.2749 108.559 76.2998 108.533 76.2998C108.508 76.325 108.223 75.8881 107.895 75.3001C104.904 70.0241 100.166 64.681 94.6884 60.3797C93.9659 59.8672 93.4282 59.4051 93.4282 59.3799ZM106.021 62.8664C106.147 62.8664 106.71 62.942 107.399 63.0932C111.751 64.0678 119.556 65.5464 124.546 66.3949C125.394 66.5209 126.058 66.6805 126.058 66.7309C126.058 66.7813 125.747 66.9577 125.369 67.1678C124.521 67.6046 121.118 69.6209 119.993 70.3938C117.153 72.2841 114.591 74.3339 112.751 76.1822C112.011 76.9215 111.365 77.5348 111.365 77.5348C111.365 77.5348 111.213 77.0979 111.079 76.5602C110.155 72.9981 108.239 67.7306 106.5 64.0173C106.215 63.4293 105.988 62.8916 105.988 62.8412C105.996 62.8916 105.996 62.8664 106.021 62.8664ZM128.192 67.0838C128.343 67.1342 128.604 68.0079 129.116 69.9233C130.066 73.6366 130.502 77.7784 130.343 81.6429C130.292 82.7182 130.242 83.718 130.192 83.844L130.116 84.096L128.789 83.6592C126.05 82.7855 121.597 81.4833 117.783 80.4079C115.607 79.8199 113.843 79.2822 113.843 79.2318C113.843 79.0806 117.019 75.9049 118.371 74.7036C120.95 72.4353 127.957 67.0081 128.192 67.0838ZM129.956 67.3442C130.032 67.2686 140.55 69.0832 145.339 70.0074C148.901 70.6962 154.068 71.7716 154.378 71.8976C154.53 71.948 153.992 72.2589 152.278 73.0234C145.524 76.073 140.5 78.8117 135.509 82.1386C134.207 83.0123 133.107 83.7264 133.081 83.7264C133.056 83.7264 133.031 82.9871 133.031 82.0882C133.031 77.2239 132.057 72.3093 130.267 68.1675C130.082 67.7474 129.931 67.3694 129.956 67.3442ZM157.168 72.7209C157.243 72.7965 156.915 74.8716 156.605 76.0982C155.681 79.9123 153.202 85.5662 150.153 90.8926C149.615 91.8419 149.128 92.6064 149.077 92.6316C149.027 92.6568 148.338 92.2703 147.54 91.8083C144.574 90.0692 141.189 88.431 137.509 86.8936C136.484 86.4567 135.593 86.1039 135.56 86.0451C135.383 85.8939 143.625 80.4415 147.977 77.8288C151.43 75.7369 157.067 72.6117 157.168 72.7209ZM159.108 73.0234C159.335 73.0234 163.998 74.3003 166.426 75.0228C172.441 76.8123 179.355 79.3494 183.858 81.3993L185.723 82.2478L184.421 82.5586C173.415 85.0958 163.998 88.011 154.908 91.6991C154.168 92.0099 153.496 92.2619 153.446 92.2619C153.395 92.2619 153.647 91.6738 153.983 90.9597C156.722 85.1462 158.486 79.0806 158.923 73.9139C158.957 73.4098 159.033 73.0234 159.108 73.0234ZM112.734 83.676C112.81 83.6004 116.372 84.4405 118.287 84.9782C121.202 85.8015 127.402 87.8681 127.402 88.0278C127.402 88.053 126.713 88.641 125.89 89.3551C122.538 92.1443 119.312 95.0847 115.448 98.8232C114.297 99.9237 113.322 100.823 113.272 100.823C113.221 100.823 113.196 100.671 113.221 100.461C113.809 96.1601 113.683 90.6321 112.86 85.0286C112.784 84.3145 112.709 83.7012 112.734 83.676ZM187.496 83.7516C187.546 83.802 185.857 86.4652 184.782 87.9774C183.245 90.1785 180.993 93.0936 175.902 99.4953C173.214 102.873 170.198 106.687 169.198 107.964C168.173 109.241 167.333 110.316 167.299 110.316C167.274 110.316 166.938 109.854 166.585 109.291C163.72 104.99 160.284 101.226 156.218 97.8487C155.454 97.2102 154.605 96.5213 154.328 96.3113C154.042 96.1096 153.815 95.8996 153.815 95.8744C153.815 95.7988 158.167 93.9254 161.469 92.598C167.257 90.2457 175.138 87.4313 181.052 85.6082C184.144 84.6421 187.445 83.7012 187.496 83.7516ZM189.47 84.2641C189.571 84.2388 190.184 84.5497 190.932 84.9782C197.148 88.5402 203.239 93.1188 208.053 97.8319C209.406 99.1593 212.766 102.646 212.707 102.671C212.707 102.671 211.531 102.772 210.145 102.873C199.366 103.696 185.572 105.973 172.315 109.165C171.416 109.367 170.626 109.551 170.576 109.551C170.525 109.551 171.525 108.552 172.777 107.35C180.556 99.8481 184.118 95.1183 188.311 86.6668C188.907 85.415 189.419 84.3397 189.47 84.2641C189.445 84.2641 189.445 84.2641 189.47 84.2641ZM132.468 90.0944C132.829 90.17 136.156 91.7327 138.66 92.9844C140.962 94.1354 144.423 95.9752 144.599 96.1348C144.625 96.16 143.398 96.7985 141.886 97.5462C137.072 99.949 132.955 102.234 128.654 104.838C127.428 105.578 126.403 106.199 126.377 106.199C126.277 106.199 126.302 106.099 126.991 104.838C129.293 100.638 131.141 95.6224 132.191 90.7329C132.283 90.3549 132.393 90.0944 132.468 90.0944ZM129.141 90.7077C129.217 90.7833 128.352 93.9337 127.814 95.6476C126.764 98.8988 125 102.965 123.286 106.04C122.874 106.754 122.261 107.804 121.925 108.392L121.286 109.417L119.85 108.039C118.186 106.426 116.825 105.426 115.086 104.536C114.397 104.175 113.86 103.872 113.86 103.822C113.86 103.62 118.237 99.6465 121.589 96.7817C123.991 94.7067 129.057 90.6321 129.141 90.7077ZM149.489 99.0836L150.741 99.8985C153.605 101.764 156.983 104.25 159.57 106.426C161.032 107.628 163.846 110.165 164.409 110.778L164.72 111.114L162.645 111.702C150.925 114.953 141.861 117.843 131.292 121.733C130.116 122.17 129.116 122.523 129.041 122.523C128.889 122.523 128.755 122.649 131.393 120.221C138.147 114.004 144.137 107.14 148.59 100.461L149.489 99.0836ZM144.137 100.411C144.188 100.461 140.685 105.401 138.584 108.19C136.072 111.517 131.62 117.096 128.553 120.733C127.276 122.246 126.176 123.497 126.125 123.523C126.05 123.548 126.025 123.161 126.025 122.573C126.025 119.473 125.235 116.172 123.849 113.357C123.261 112.181 123.16 111.895 123.286 111.769C123.773 111.332 131.216 107.082 135.929 104.553C139.097 102.873 144.062 100.361 144.137 100.411ZM111.785 108.35C111.86 108.35 112.448 108.661 113.112 109.014C114.75 109.913 116.212 110.904 117.514 111.979C117.565 112.03 116.901 112.567 116.027 113.206C113.599 114.945 109.911 117.734 107.761 119.448C105.509 121.237 105.433 121.288 105.685 120.91C107.374 118.322 108.223 116.869 109.113 114.995C109.903 113.332 110.701 111.358 111.264 109.644C111.474 108.913 111.734 108.35 111.785 108.35ZM120.413 115.105C120.539 115.079 120.698 115.306 121.387 116.331C122.849 118.507 123.975 121.422 124.252 123.783L124.302 124.295L120.799 125.648C114.523 128.076 108.743 130.487 104.829 132.276C103.728 132.789 101.813 133.713 100.552 134.326C99.3006 134.965 98.2756 135.452 98.2756 135.427C98.2756 135.402 99.0653 134.814 100.04 134.1C107.693 128.546 114.322 122.456 119.287 116.365C119.825 115.726 120.312 115.138 120.362 115.113L120.413 115.105ZM116.439 116.079C116.54 116.18 113.625 119.482 111.625 121.506C106.685 126.547 101.796 130.487 95.7301 134.326C94.9656 134.814 94.2683 135.25 94.1927 135.301C94.0163 135.402 94.2431 135.15 96.9063 132.251C98.5949 130.437 99.8719 128.899 101.334 127.001C102.308 125.749 102.485 125.564 103.896 124.573C107.66 121.859 116.338 115.978 116.439 116.079Z" fill="url(#paint2_radial)"/>
<defs>
<filter id="filter0_d" x="18.1321" y="241.93" width="226.192" height="57.4159" filterUnits="userSpaceOnUse" color-interpolation-filters="sRGB">
<feFlood flood-opacity="0" result="BackgroundImageFix"/>
<feColorMatrix in="SourceAlpha" type="matrix" values="0 0 0 0 0 0 0 0 0 0 0 0 0 0 0 0 0 0 127 0"/>
<feOffset dy="2.82198"/>
<feGaussianBlur stdDeviation="2.82198"/>
<feColorMatrix type="matrix" values="0 0 0 0 0.0583333 0 0 0 0 0.0583333 0 0 0 0 0.0583333 0 0 0 0.5 0"/>
<feBlend mode="normal" in2="BackgroundImageFix" result="effect1_dropShadow"/>
<feBlend mode="normal" in="SourceGraphic" in2="effect1_dropShadow" result="shape"/>
</filter>
<filter id="filter1_d" x="0.114284" y="0.923559" width="253.552" height="253.552" filterUnits="userSpaceOnUse" color-interpolation-filters="sRGB">
<feFlood flood-opacity="0" result="BackgroundImageFix"/>
<feColorMatrix in="SourceAlpha" type="matrix" values="0 0 0 0 0 0 0 0 0 0 0 0 0 0 0 0 0 0 127 0"/>
<feOffset dy="7.80928"/>
<feGaussianBlur stdDeviation="6.83312"/>
<feColorMatrix type="matrix" values="0 0 0 0 0.0583333 0 0 0 0 0.0583333 0 0 0 0 0.0583333 0 0 0 0.5 0"/>
<feBlend mode="normal" in2="BackgroundImageFix" result="effect1_dropShadow"/>
<feBlend mode="normal" in="SourceGraphic" in2="effect1_dropShadow" result="shape"/>
</filter>
<linearGradient id="paint0_linear" x1="86.3091" y1="187.724" x2="98.5529" y2="180.49" gradientUnits="userSpaceOnUse">
<stop stop-color="#909CA9"/>
<stop offset="1" stop-color="#EDEDEE"/>
</linearGradient>
<linearGradient id="paint1_linear" x1="86.5829" y1="51.3585" x2="96.4346" y2="51.3585" gradientUnits="userSpaceOnUse">
<stop stop-color="#939FAB"/>
<stop offset="1" stop-color="#DCDEE1"/>
</linearGradient>
<radialGradient id="paint2_radial" cx="0" cy="0" r="1" gradientUnits="userSpaceOnUse" gradientTransform="translate(136.3 96.5031) rotate(-171.457) scale(12.7016 25.4095)">
<stop stop-color="#EE352C"/>
<stop offset="1" stop-color="#A91D22"/>
</radialGradient>
</defs>
</svg>
