<svg width="237" height="269" viewBox="0 0 237 269" fill="none" xmlns="http://www.w3.org/2000/svg">
<g filter="url(#filter0_d)">
<path d="M22.984 244.824C24.52 244.824 25.64 244.648 26.344 244.296C27.048 243.912 27.4 243.272 27.4 242.376C27.4 241.544 27.016 240.856 26.248 240.312C25.512 239.768 24.28 239.176 22.552 238.536C21.496 238.152 20.52 237.752 19.624 237.336C18.76 236.888 18.008 236.376 17.368 235.8C16.728 235.224 16.216 234.536 15.832 233.736C15.48 232.904 15.304 231.896 15.304 230.712C15.304 228.408 16.152 226.6 17.848 225.288C19.544 223.944 21.848 223.272 24.76 223.272C26.232 223.272 27.64 223.416 28.984 223.704C30.328 223.96 31.336 224.216 32.008 224.472L30.952 229.176C30.312 228.888 29.496 228.632 28.504 228.408C27.512 228.152 26.36 228.024 25.048 228.024C23.864 228.024 22.904 228.232 22.168 228.648C21.432 229.032 21.064 229.64 21.064 230.472C21.064 230.888 21.128 231.256 21.256 231.576C21.416 231.896 21.672 232.2 22.024 232.488C22.376 232.744 22.84 233.016 23.416 233.304C23.992 233.56 24.696 233.832 25.528 234.12C26.904 234.632 28.072 235.144 29.032 235.656C29.992 236.136 30.776 236.696 31.384 237.336C32.024 237.944 32.488 238.648 32.776 239.448C33.064 240.248 33.208 241.208 33.208 242.328C33.208 244.728 32.312 246.552 30.52 247.8C28.76 249.016 26.232 249.624 22.936 249.624C20.728 249.624 18.952 249.432 17.608 249.048C16.264 248.696 15.32 248.408 14.776 248.184L15.784 243.336C16.648 243.688 17.672 244.024 18.856 244.344C20.072 244.664 21.448 244.824 22.984 244.824ZM43.1935 236.568C43.1935 239 43.6735 240.936 44.6335 242.376C45.6255 243.816 47.1775 244.536 49.2895 244.536C50.2495 244.536 51.1455 244.392 51.9775 244.104C52.8415 243.784 53.5295 243.448 54.0415 243.096V228.744C53.6255 228.648 53.0975 228.568 52.4575 228.504C51.8495 228.408 51.0495 228.36 50.0575 228.36C47.9135 228.36 46.2335 229.096 45.0175 230.568C43.8015 232.008 43.1935 234.008 43.1935 236.568ZM37.2415 236.472C37.2415 234.488 37.5295 232.696 38.1055 231.096C38.7135 229.464 39.5615 228.088 40.6495 226.968C41.7695 225.816 43.1135 224.936 44.6815 224.328C46.2495 223.688 48.0255 223.368 50.0095 223.368C51.9935 223.368 53.8495 223.512 55.5775 223.8C57.3055 224.088 58.7295 224.392 59.8495 224.712V257.88H54.0415V248.136C53.3695 248.488 52.5375 248.808 51.5455 249.096C50.5855 249.384 49.5135 249.528 48.3295 249.528C46.5375 249.528 44.9535 249.224 43.5775 248.616C42.2015 247.976 41.0495 247.08 40.1215 245.928C39.1935 244.776 38.4735 243.4 37.9615 241.8C37.4815 240.2 37.2415 238.424 37.2415 236.472ZM75.9633 249.48C74.2353 249.448 72.7953 249.256 71.6433 248.904C70.5233 248.552 69.6273 248.056 68.9553 247.416C68.2833 246.744 67.8033 245.928 67.5153 244.968C67.2593 243.976 67.1313 242.856 67.1313 241.608V212.712L72.9393 211.752V240.504C72.9393 241.208 72.9873 241.8 73.0833 242.28C73.2113 242.76 73.4193 243.176 73.7073 243.528C73.9953 243.848 74.3793 244.104 74.8593 244.296C75.3713 244.456 76.0113 244.584 76.7793 244.68L75.9633 249.48ZM98.9684 244.824C100.504 244.824 101.624 244.648 102.328 244.296C103.032 243.912 103.384 243.272 103.384 242.376C103.384 241.544 103 240.856 102.232 240.312C101.496 239.768 100.264 239.176 98.5364 238.536C97.4804 238.152 96.5044 237.752 95.6084 237.336C94.7444 236.888 93.9924 236.376 93.3524 235.8C92.7124 235.224 92.2004 234.536 91.8164 233.736C91.4644 232.904 91.2884 231.896 91.2884 230.712C91.2884 228.408 92.1364 226.6 93.8324 225.288C95.5284 223.944 97.8324 223.272 100.744 223.272C102.216 223.272 103.624 223.416 104.968 223.704C106.312 223.96 107.32 224.216 107.992 224.472L106.936 229.176C106.296 228.888 105.48 228.632 104.488 228.408C103.496 228.152 102.344 228.024 101.032 228.024C99.8484 228.024 98.8884 228.232 98.1524 228.648C97.4164 229.032 97.0484 229.64 97.0484 230.472C97.0484 230.888 97.1124 231.256 97.2404 231.576C97.4004 231.896 97.6564 232.2 98.0084 232.488C98.3604 232.744 98.8244 233.016 99.4004 233.304C99.9764 233.56 100.68 233.832 101.512 234.12C102.888 234.632 104.056 235.144 105.016 235.656C105.976 236.136 106.76 236.696 107.368 237.336C108.008 237.944 108.472 238.648 108.76 239.448C109.048 240.248 109.192 241.208 109.192 242.328C109.192 244.728 108.296 246.552 106.504 247.8C104.744 249.016 102.216 249.624 98.9204 249.624C96.7124 249.624 94.9364 249.432 93.5924 249.048C92.2484 248.696 91.3044 248.408 90.7604 248.184L91.7684 243.336C92.6324 243.688 93.6564 244.024 94.8404 244.344C96.0564 244.664 97.4324 244.824 98.9684 244.824ZM113.226 236.568C113.226 234.36 113.546 232.424 114.186 230.76C114.858 229.096 115.738 227.72 116.826 226.632C117.914 225.512 119.162 224.68 120.57 224.136C121.978 223.56 123.418 223.272 124.89 223.272C128.346 223.272 131.034 224.344 132.954 226.488C134.906 228.632 135.882 231.832 135.882 236.088C135.882 236.408 135.866 236.776 135.834 237.192C135.834 237.576 135.818 237.928 135.786 238.248H119.226C119.386 240.264 120.09 241.832 121.338 242.952C122.618 244.04 124.458 244.584 126.858 244.584C128.266 244.584 129.546 244.456 130.698 244.2C131.882 243.944 132.81 243.672 133.482 243.384L134.25 248.136C133.93 248.296 133.482 248.472 132.906 248.664C132.362 248.824 131.722 248.968 130.986 249.096C130.282 249.256 129.514 249.384 128.682 249.48C127.85 249.576 127.002 249.624 126.138 249.624C123.93 249.624 122.01 249.304 120.378 248.664C118.746 247.992 117.402 247.08 116.346 245.928C115.29 244.744 114.506 243.368 113.994 241.8C113.482 240.2 113.226 238.456 113.226 236.568ZM130.074 233.976C130.074 233.176 129.962 232.424 129.738 231.72C129.514 230.984 129.178 230.36 128.73 229.848C128.314 229.304 127.786 228.888 127.146 228.6C126.538 228.28 125.802 228.12 124.938 228.12C124.042 228.12 123.258 228.296 122.586 228.648C121.914 228.968 121.338 229.4 120.858 229.944C120.41 230.488 120.058 231.112 119.802 231.816C119.546 232.52 119.37 233.24 119.274 233.976H130.074ZM156.344 229.128C155.864 228.968 155.192 228.808 154.328 228.648C153.496 228.456 152.52 228.36 151.4 228.36C150.76 228.36 150.072 228.424 149.336 228.552C148.632 228.68 148.136 228.792 147.848 228.888V249H142.04V225.096C143.16 224.68 144.552 224.296 146.216 223.944C147.912 223.56 149.784 223.368 151.832 223.368C152.216 223.368 152.664 223.4 153.176 223.464C153.688 223.496 154.2 223.56 154.712 223.656C155.224 223.72 155.72 223.816 156.2 223.944C156.68 224.04 157.064 224.136 157.352 224.232L156.344 229.128ZM168.675 249C167.075 245.704 165.427 241.928 163.731 237.672C162.067 233.384 160.547 228.792 159.171 223.896H165.363C165.715 225.304 166.115 226.824 166.563 228.456C167.043 230.056 167.539 231.672 168.051 233.304C168.595 234.904 169.139 236.472 169.683 238.008C170.259 239.512 170.787 240.872 171.267 242.088C171.747 240.872 172.259 239.512 172.803 238.008C173.347 236.472 173.875 234.904 174.387 233.304C174.931 231.672 175.443 230.056 175.923 228.456C176.403 226.824 176.819 225.304 177.171 223.896H183.171C181.795 228.792 180.259 233.384 178.563 237.672C176.899 241.928 175.267 245.704 173.667 249H168.675ZM185.554 236.568C185.554 234.36 185.874 232.424 186.514 230.76C187.186 229.096 188.066 227.72 189.154 226.632C190.242 225.512 191.49 224.68 192.898 224.136C194.306 223.56 195.746 223.272 197.218 223.272C200.674 223.272 203.362 224.344 205.282 226.488C207.234 228.632 208.21 231.832 208.21 236.088C208.21 236.408 208.194 236.776 208.162 237.192C208.162 237.576 208.146 237.928 208.114 238.248H191.554C191.714 240.264 192.418 241.832 193.666 242.952C194.946 244.04 196.786 244.584 199.186 244.584C200.594 244.584 201.874 244.456 203.026 244.2C204.21 243.944 205.138 243.672 205.81 243.384L206.578 248.136C206.258 248.296 205.81 248.472 205.234 248.664C204.69 248.824 204.05 248.968 203.314 249.096C202.61 249.256 201.842 249.384 201.01 249.48C200.178 249.576 199.33 249.624 198.466 249.624C196.258 249.624 194.338 249.304 192.706 248.664C191.074 247.992 189.73 247.08 188.674 245.928C187.618 244.744 186.834 243.368 186.322 241.8C185.81 240.2 185.554 238.456 185.554 236.568ZM202.402 233.976C202.402 233.176 202.29 232.424 202.066 231.72C201.842 230.984 201.506 230.36 201.058 229.848C200.642 229.304 200.114 228.888 199.474 228.6C198.866 228.28 198.13 228.12 197.266 228.12C196.37 228.12 195.586 228.296 194.914 228.648C194.242 228.968 193.666 229.4 193.186 229.944C192.738 230.488 192.386 231.112 192.13 231.816C191.874 232.52 191.698 233.24 191.602 233.976H202.402ZM228.672 229.128C228.192 228.968 227.52 228.808 226.656 228.648C225.824 228.456 224.848 228.36 223.728 228.36C223.088 228.36 222.4 228.424 221.664 228.552C220.96 228.68 220.464 228.792 220.176 228.888V249H214.368V225.096C215.488 224.68 216.88 224.296 218.544 223.944C220.24 223.56 222.112 223.368 224.16 223.368C224.544 223.368 224.992 223.4 225.504 223.464C226.016 223.496 226.528 223.56 227.04 223.656C227.552 223.72 228.048 223.816 228.528 223.944C229.008 224.04 229.392 224.136 229.68 224.232L228.672 229.128Z" fill="#323232"/>
</g>
<g filter="url(#filter1_d)">
<circle cx="111.705" cy="104.911" r="98.9114" fill="#323232"/>
</g>
<path d="M139.232 100.007L109.618 109.675L83.8537 121.048L76.6467 122.95C74.8101 124.699 72.8853 126.462 70.8062 128.255C68.5214 130.223 66.3983 132.016 64.76 133.316C62.9454 134.749 60.2639 137.438 58.8974 139.135C56.8624 141.684 55.2462 144.395 54.5556 146.474C53.3214 150.235 53.9312 154.041 56.3041 157.553C59.3456 162.027 65.4138 166.596 72.4886 169.704C76.0957 171.291 82.1566 173.333 86.7262 174.472C94.3152 176.397 109.001 178.476 117.075 178.792C118.706 178.858 120.902 178.858 120.991 178.792C121.167 178.681 122.423 176.286 123.878 173.311C128.844 163.173 132.429 153.659 134.376 145.534C135.537 140.611 136.455 134.051 137.065 126.286C137.219 124.111 137.285 116.838 137.153 114.377C136.955 110.351 136.595 107.082 136.036 103.879C135.948 103.409 135.926 102.982 135.97 102.96C136.058 102.894 136.33 102.806 139.974 101.748L139.232 100.007ZM132.473 103.974C132.745 103.974 133.458 110.843 133.634 115.185C133.678 116.103 133.656 116.706 133.612 116.706C133.436 116.706 129.828 114.583 127.257 112.966C125.016 111.556 120.763 108.735 120.094 108.198C119.867 108.044 119.896 108.022 121.725 107.39C124.84 106.347 132.223 103.974 132.473 103.974ZM117.383 108.94C117.582 108.94 118.096 109.234 119.33 109.991C123.944 112.878 130.21 116.368 132.892 117.536C133.722 117.896 133.81 117.756 131.908 119.057C127.83 121.834 122.754 124.559 116.531 127.314C115.437 127.806 114.518 128.188 114.496 128.188C114.452 128.188 114.584 127.63 114.768 126.954C116.267 121.378 117.119 115.743 117.163 111.218C117.185 108.977 117.185 108.977 117.383 108.911C117.339 108.94 117.361 108.94 117.383 108.94ZM114.276 110.131C114.408 110.263 114.32 115.281 114.144 116.647C113.739 119.916 113.115 122.958 112.087 126.381C111.837 127.211 111.616 127.902 111.572 127.946C111.484 128.056 108.413 125.059 107.407 123.898C105.658 121.885 104.299 119.872 103.285 117.896C102.771 116.889 101.963 114.921 102.029 114.854C102.389 114.605 114.188 110.042 114.276 110.131ZM99.6341 115.883C99.6561 115.883 99.6782 115.883 99.7002 115.905C99.7443 115.949 99.8986 116.309 100.038 116.713C100.751 118.66 102.367 121.525 103.756 123.362C105.276 125.375 107.267 127.527 108.927 128.938C109.464 129.386 109.956 129.812 110.022 129.878C110.154 130.01 110.198 129.988 106.555 131.377C102.323 132.986 97.7166 134.602 92.4271 136.299C91.1635 136.703 89.9073 137.115 88.6436 137.533C88.4453 137.599 88.5114 137.489 89.0918 136.571C91.7072 132.472 95.6963 124.442 97.9297 118.755C98.3117 117.771 98.6937 116.787 98.7598 116.559C98.848 116.243 98.9582 116.133 99.2521 115.978C99.4137 115.927 99.568 115.883 99.6341 115.883ZM95.16 117.742C95.2262 117.786 94.0874 120.181 92.9634 122.377C90.7888 126.609 88.4159 130.774 85.2422 135.829C84.7059 136.703 84.1916 137.511 84.1255 137.599C84.0153 137.754 83.9712 137.71 83.6112 137.019C82.8472 135.52 82.2227 133.596 81.8848 131.825C81.5469 130.077 81.613 127.035 81.995 125.154C82.2889 123.766 82.2668 123.788 82.9354 123.45C85.8005 121.988 95.0719 117.646 95.16 117.742ZM133.774 119.306V120.247C133.774 125.235 133.237 132.089 132.451 137.078C132.319 137.952 132.201 138.665 132.179 138.687C132.179 138.687 131.533 138.51 130.769 138.283C127.411 137.232 123.76 135.689 120.469 133.875C118.294 132.692 115.143 130.738 115.231 130.65C115.253 130.628 116.193 130.135 117.288 129.555C121.674 127.27 125.883 124.809 129.535 122.37C130.901 121.452 132.958 119.975 133.406 119.571L133.774 119.306ZM78.263 125.933C78.3511 125.933 78.3291 126.109 78.1968 126.918C78.1087 127.498 77.9985 128.57 77.9544 129.312C77.7781 132.582 78.3144 134.999 79.9233 138.312C80.3714 139.23 80.7314 139.994 80.7094 140.016C80.5551 140.149 65.7371 144.49 61.0794 145.769C59.6909 146.151 58.486 146.481 58.3905 146.511C58.2362 146.555 58.2142 146.533 58.2803 146.151C58.7946 142.86 61.2998 138.562 64.7967 134.94C67.1256 132.523 68.9843 131.112 72.158 129.298C74.4427 127.997 77.9544 126.051 78.2262 125.962C78.2115 125.933 78.2409 125.933 78.263 125.933ZM113.181 132.178C113.203 132.156 113.739 132.449 114.386 132.824C119.176 135.601 125.847 138.172 131.533 139.495L132.047 139.605L131.327 140.009C128.352 141.662 118.566 145.739 108.56 149.479C107.106 150.015 105.673 150.551 105.401 150.662C105.129 150.772 104.887 150.838 104.887 150.816C104.887 150.794 105.291 150.008 105.805 149.045C108.604 143.807 111.425 137.43 112.858 132.993C113.042 132.582 113.152 132.2 113.181 132.178ZM109.618 133.338C109.64 133.36 109.464 133.831 109.236 134.367C107.289 139.091 104.74 144.241 101.471 150.015C100.641 151.492 99.95 152.682 99.9279 152.682C99.9059 152.682 99.2374 152.278 98.4293 151.786C93.6834 148.876 89.4738 145.291 86.7262 141.824L86.3221 141.331L88.3571 140.773C95.6523 138.782 101.853 136.63 108.009 133.992C108.883 133.632 109.596 133.338 109.618 133.338ZM131.731 141.06C131.731 141.06 131.753 141.082 131.731 141.06C131.753 141.574 130.615 146.188 129.674 149.523C128.888 152.322 128.22 154.511 126.985 158.39C126.449 160.095 125.979 161.505 125.957 161.505C125.935 161.505 125.803 161.483 125.663 161.439C119.014 160.227 113.064 158.552 107.466 156.311C105.901 155.687 103.66 154.68 103.528 154.563C103.484 154.519 104.828 153.894 106.525 153.152C116.707 148.7 127.272 143.638 130.901 141.471C131.327 141.199 131.665 141.06 131.731 141.06ZM80.68 142.808C80.724 142.852 77.8809 146.952 73.8991 152.52C72.5106 154.467 70.9017 156.752 70.2993 157.604C69.6969 158.456 68.7786 159.801 68.2643 160.601L67.3239 162.056L66.3175 161.204C65.1347 160.219 63.0703 158.118 62.152 156.95C60.2272 154.555 58.9268 152.028 58.4126 149.721C58.1628 148.649 58.1628 148.112 58.3905 148.039C58.7285 147.951 64.7012 146.54 70.2993 145.24C73.4142 144.527 77.014 143.675 78.3144 143.359C79.6 143.051 80.6579 142.808 80.68 142.808ZM83.5451 143.903L84.2577 144.711C87.4829 148.318 90.7741 150.977 94.756 153.306C95.4759 153.71 96.0122 154.07 95.9608 154.092C95.8065 154.203 82.1272 159.059 75.7945 161.255C72.2388 162.512 69.3002 163.518 69.2781 163.518C69.2561 163.518 69.0577 163.386 68.83 163.224L68.4259 162.93L69.0724 161.99C71.1735 158.949 73.8183 155.613 79.5706 148.671L83.5451 143.903ZM101.405 156.686C101.427 156.664 102.411 157.024 103.623 157.472C106.532 158.566 108.839 159.264 111.925 160.043C115.73 161.006 121.233 161.946 124.48 162.218C124.972 162.262 125.244 162.306 125.149 162.372C124.994 162.46 121.703 163.562 119.286 164.319C115.437 165.524 103.682 168.999 94.1021 171.754C92.3316 172.268 90.8109 172.694 90.7227 172.716C90.5023 172.76 89.7603 172.562 89.7603 172.466C89.7603 172.422 90.2966 171.724 90.9431 170.967C94.1682 167.118 97.364 162.82 100.031 158.743C100.78 157.626 101.405 156.708 101.405 156.686ZM97.4668 156.796C97.4889 156.818 95.902 159.367 93.125 163.76C91.9349 165.619 90.6199 167.72 90.1497 168.462C89.7015 169.175 89.033 170.299 88.651 170.923L88.0045 172.062L87.6666 171.974C86.8584 171.754 81.1942 169.755 79.6955 169.153C77.8369 168.411 75.9121 167.522 74.4795 166.758C72.6869 165.795 70.4536 164.363 70.6299 164.319C70.674 164.297 73.7448 163.467 77.4328 162.46C87.2404 159.793 92.6769 158.251 96.2326 157.134C96.8865 156.928 97.4448 156.774 97.4668 156.796ZM125.332 163.334H125.354C125.443 163.555 121.821 173.634 120.498 176.808C120.204 177.521 120.094 177.704 119.94 177.682C119.558 177.66 114.298 176.918 111.095 176.448C105.519 175.596 96.1665 173.965 93.8156 173.429L93.2793 173.318L96.6147 172.554C103.778 170.945 107.223 170.071 110.713 168.999C115.121 167.654 119.484 165.979 123.9 163.915C124.59 163.599 125.178 163.356 125.332 163.334Z" fill="url(#paint0_linear)"/>
<path d="M108.7 30.9789C108.208 30.9128 100.259 33.7779 95.138 35.857C88.2249 38.6781 82.8472 41.3669 79.5339 43.6885C78.2997 44.5627 76.7569 46.1055 76.5145 46.7079C76.4263 46.9283 76.3823 47.2001 76.3823 47.4719L79.3797 50.3151L86.5205 52.5998L103.513 55.6413L122.945 58.9766L123.143 57.2943C123.077 57.2943 123.033 57.2722 122.967 57.2722L120.418 56.8682L119.903 55.9499C117.258 51.2921 114.349 45.5177 112.652 41.6241C111.33 38.6046 110.081 35.1077 109.383 32.6025C108.994 31.0891 108.95 31.0009 108.7 30.9789ZM108.34 32.125H108.362C108.384 32.147 108.472 32.7715 108.56 33.5135C108.942 36.6505 109.633 39.6699 110.735 42.9391C111.565 45.4002 111.565 45.268 110.603 44.9741C108.318 44.3496 98.0913 42.5791 90.6787 41.5506C89.4959 41.3963 88.482 41.2347 88.482 41.2127C88.3939 41.1245 93.8303 38.2814 96.2253 37.1647C99.3035 35.7468 107.715 32.2352 108.34 32.125ZM86.7629 42.153L87.6372 42.4469C92.3831 44.0558 104.314 46.3406 110.896 46.8769C111.638 46.943 112.263 47.0091 112.285 47.0091C112.307 47.0311 111.682 47.3691 110.874 47.7511C107.693 49.338 104.204 51.2848 101.787 52.7908C101.074 53.239 100.42 53.599 100.332 53.599C100.244 53.599 99.7737 53.5108 99.2815 53.4447L98.3852 53.3124L96.1445 51.1158C92.2067 47.2883 89.1138 44.3349 87.9311 43.2109L86.7629 42.153ZM85.8667 42.8436L89.0257 46.7814C90.7521 48.9559 92.4933 51.0791 92.8753 51.5493C93.2573 52.0194 93.5659 52.4015 93.5438 52.4235C93.4557 52.4896 88.9743 51.6154 86.6013 51.0791C84.1623 50.5208 83.1558 50.2489 81.6571 49.7787L80.4229 49.3747V49.0588C80.4449 47.5601 82.3477 45.3194 85.5728 43.0346L85.8667 42.8436ZM112.689 48.2139C112.777 48.2139 112.887 48.4123 113.159 49.0221C113.923 50.6971 116.296 55.2225 116.876 56.0968C117.053 56.3907 117.369 56.4127 114.21 55.8984C106.621 54.6642 104.182 54.2675 104.182 54.2234C104.182 54.2014 104.402 54.0471 104.696 53.8855C107.047 52.5851 109.42 50.9322 111.521 49.1616C112.035 48.7355 112.505 48.3315 112.593 48.2654C112.615 48.2139 112.66 48.1919 112.689 48.2139Z" fill="url(#paint1_linear)"/>
<path d="M76.6688 46.3994C76.6688 46.3994 76.1766 47.1855 76.6467 48.3462C76.9406 49.0589 77.7855 49.9331 78.7479 50.8294C78.7479 50.8294 88.7098 60.5415 89.9146 61.93C95.4172 68.2848 97.8195 74.5514 98.0399 83.191C98.1722 88.745 97.1216 93.6231 94.5062 99.2873C89.8485 109.448 80.0262 120.666 64.8702 133.111L67.0889 132.369C68.5214 131.296 70.4683 130.15 75.0378 127.645C85.5802 121.871 97.4448 116.566 111.991 111.101C132.943 103.225 167.391 93.9977 186.999 91.0004L189.034 90.6845L188.718 90.1922C186.926 87.4152 185.699 85.6961 184.222 83.8595C179.925 78.5332 174.709 74.2135 168.332 70.6284C159.56 65.7282 148.21 61.9006 133.84 59.0575C131.129 58.5212 125.178 57.4927 120.344 56.7507C110.096 55.1639 103.469 54.0619 96.1665 52.813C93.5512 52.3648 89.6281 51.6963 87.0348 51.1379C85.6903 50.8441 83.119 50.2417 81.1061 49.5511C79.4899 48.934 77.161 48.3022 76.6688 46.3994ZM82.4432 51.9975C82.4652 51.9754 82.8252 52.1077 83.2954 52.2693C84.1476 52.5632 85.2422 52.8938 86.5426 53.2538C87.527 53.5256 88.5114 53.7827 89.4959 54.0398C90.8403 54.3778 91.957 54.6863 91.979 54.6863C92.1333 54.8406 94.396 62.0696 95.1601 64.8466C95.4539 65.8972 95.6743 66.7934 95.6523 66.7934C95.6302 66.8155 95.3805 66.4335 95.0939 65.9192C92.4786 61.3056 88.3351 56.6332 83.5452 52.8717C82.9134 52.4236 82.4432 52.0195 82.4432 51.9975ZM93.4557 55.0463C93.5659 55.0463 94.0581 55.1124 94.6605 55.2447C98.466 56.0969 105.291 57.3899 109.655 58.1319C110.397 58.2421 110.977 58.3816 110.977 58.4257C110.977 58.4698 110.705 58.6241 110.375 58.8077C109.633 59.1898 106.657 60.9529 105.673 61.6288C103.19 63.2818 100.949 65.0744 99.3403 66.6906C98.6938 67.3371 98.1281 67.8734 98.1281 67.8734C98.1281 67.8734 97.9958 67.4914 97.8783 67.0212C97.0702 63.9063 95.3951 59.3 93.8744 56.0528C93.6246 55.5385 93.4263 55.0683 93.4263 55.0243C93.4336 55.0683 93.4336 55.0463 93.4557 55.0463ZM112.843 58.7343C112.975 58.7784 113.203 59.5424 113.651 61.2174C114.482 64.4646 114.864 68.0864 114.724 71.4659C114.68 72.4062 114.636 73.2805 114.592 73.3907L114.526 73.6111L113.365 73.229C110.97 72.465 107.076 71.3263 103.741 70.3859C101.838 69.8717 100.295 69.4015 100.295 69.3574C100.295 69.2252 103.072 66.4482 104.255 65.3976C106.51 63.414 112.638 58.6682 112.843 58.7343ZM114.386 58.962C114.452 58.8959 123.65 60.4828 127.838 61.2909C130.952 61.8933 135.471 62.8337 135.742 62.9439C135.875 62.9879 135.404 63.2598 133.906 63.9283C127.999 66.5951 123.606 68.9901 119.242 71.8993C118.103 72.6633 117.141 73.2878 117.119 73.2878C117.097 73.2878 117.075 72.6413 117.075 71.8552C117.075 67.6016 116.223 63.3038 114.658 59.682C114.496 59.3147 114.364 58.9841 114.386 58.962ZM138.181 63.6638C138.248 63.7299 137.961 65.5445 137.689 66.6171C136.881 69.9525 134.714 74.8967 132.047 79.5544C131.577 80.3846 131.151 81.0531 131.107 81.0752C131.063 81.0972 130.46 80.7593 129.762 80.3552C127.169 78.8345 124.208 77.4019 120.991 76.0575C120.094 75.6754 119.316 75.3669 119.286 75.3155C119.132 75.1832 126.339 70.4153 130.144 68.1305C133.164 66.3012 138.093 63.5683 138.181 63.6638ZM139.879 63.9283C140.077 63.9283 144.154 65.045 146.277 65.6768C151.538 67.2416 157.584 69.4603 161.521 71.2528L163.152 71.9948L162.014 72.2666C152.39 74.4853 144.154 77.0346 136.205 80.2597C135.559 80.5315 134.971 80.7519 134.927 80.7519C134.883 80.7519 135.103 80.2376 135.397 79.6132C137.792 74.5294 139.335 69.2252 139.717 64.707C139.746 64.2662 139.812 63.9283 139.879 63.9283ZM99.3256 73.2437C99.3917 73.1776 102.507 73.9123 104.182 74.3824C106.731 75.1024 112.153 76.9097 112.153 77.0492C112.153 77.0713 111.55 77.5855 110.83 78.21C107.899 80.6491 105.078 83.2203 101.698 86.4896C100.692 87.452 99.8398 88.238 99.7957 88.238C99.7517 88.238 99.7296 88.1058 99.7517 87.9222C100.266 84.1607 100.156 79.3267 99.4358 74.4265C99.3696 73.8021 99.3035 73.2658 99.3256 73.2437ZM164.703 73.3099C164.747 73.3539 163.27 75.6828 162.33 77.0052C160.985 78.93 159.016 81.4792 154.564 87.0773C152.213 90.0306 149.576 93.3659 148.702 94.4826C147.805 95.5993 147.071 96.5397 147.041 96.5397C147.019 96.5397 146.726 96.1356 146.417 95.6434C143.912 91.8819 140.907 88.5907 137.351 85.6374C136.683 85.079 135.941 84.4766 135.698 84.293C135.449 84.1166 135.25 83.933 135.25 83.9109C135.25 83.8448 139.056 82.2065 141.943 81.0458C147.005 78.9887 153.896 76.5276 159.068 74.9334C161.771 74.0886 164.658 73.2658 164.703 73.3099ZM166.429 73.758C166.517 73.7359 167.053 74.0078 167.707 74.3824C173.144 77.4974 178.47 81.5013 182.68 85.6227C183.862 86.7834 186.801 89.8322 186.75 89.8543C186.75 89.8543 185.721 89.9425 184.509 90.0306C175.083 90.7506 163.02 92.7415 151.427 95.5332C150.641 95.7095 149.951 95.8711 149.907 95.8711C149.863 95.8711 150.737 94.9969 151.831 93.9463C158.634 87.3859 161.749 83.2497 165.415 75.8591C165.937 74.7645 166.385 73.8241 166.429 73.758C166.407 73.758 166.407 73.758 166.429 73.758ZM116.583 78.8565C116.899 78.9226 119.808 80.2891 121.997 81.3837C124.01 82.3902 127.037 83.9991 127.191 84.1387C127.213 84.1607 126.14 84.7191 124.818 85.3729C120.609 87.474 117.009 89.4723 113.247 91.7497C112.175 92.3962 111.278 92.9398 111.256 92.9398C111.168 92.9398 111.19 92.8517 111.793 91.7497C113.806 88.0764 115.422 83.6905 116.34 79.4148C116.421 79.0842 116.517 78.8565 116.583 78.8565ZM113.673 79.3928C113.74 79.4589 112.983 82.2139 112.513 83.7126C111.594 86.5557 110.052 90.1114 108.553 92.8003C108.193 93.4247 107.657 94.343 107.363 94.8573L106.804 95.7536L105.548 94.5487C104.093 93.1382 102.903 92.264 101.383 91.4852C100.78 91.1693 100.31 90.9049 100.31 90.8608C100.31 90.6845 104.138 87.2095 107.069 84.7044C109.17 82.8898 113.6 79.3267 113.673 79.3928ZM131.467 86.7173L132.561 87.4299C135.067 89.0609 138.02 91.2354 140.283 93.1382C141.561 94.1888 144.022 96.4074 144.514 96.9437L144.786 97.2376L142.971 97.7518C132.723 100.595 124.796 103.122 115.554 106.524C114.526 106.906 113.651 107.214 113.585 107.214C113.453 107.214 113.335 107.324 115.642 105.201C121.549 99.7648 126.787 93.7627 130.681 87.9222L131.467 86.7173ZM126.787 87.8781C126.831 87.9221 123.768 92.2419 121.931 94.681C119.734 97.5902 115.841 102.468 113.159 105.649C112.042 106.972 111.08 108.066 111.036 108.088C110.97 108.11 110.948 107.773 110.948 107.258C110.948 104.547 110.257 101.66 109.045 99.1991C108.531 98.1706 108.443 97.9208 108.553 97.8106C108.979 97.4286 115.488 93.7112 119.609 91.4999C122.379 90.0306 126.721 87.834 126.787 87.8781ZM98.4954 94.8206C98.5615 94.8206 99.0758 95.0924 99.6561 95.4009C101.089 96.187 102.367 97.0539 103.506 97.9943C103.55 98.0384 102.969 98.5085 102.205 99.0669C100.082 100.588 96.8571 103.027 94.9764 104.525C93.0075 106.09 92.9414 106.134 93.1618 105.804C94.6385 103.541 95.3804 102.27 96.1592 100.632C96.8498 99.1771 97.5477 97.4506 98.0399 95.9519C98.2236 95.3128 98.4513 94.8206 98.4954 94.8206ZM106.04 100.727C106.151 100.705 106.29 100.904 106.893 101.8C108.171 103.703 109.155 106.252 109.398 108.316L109.442 108.764L106.378 109.947C100.89 112.07 95.8359 114.179 92.4124 115.744C91.45 116.192 89.775 117 88.673 117.536C87.5784 118.094 86.6821 118.521 86.6821 118.499C86.6821 118.476 87.3727 117.962 88.2249 117.338C94.9176 112.482 100.714 107.155 105.056 101.829C105.526 101.271 105.952 100.757 105.996 100.735L106.04 100.727ZM102.565 101.579C102.654 101.668 100.104 104.555 98.3558 106.325C94.036 110.733 89.7603 114.179 84.4561 117.536C83.7876 117.962 83.1778 118.344 83.1117 118.388C82.9574 118.476 83.1558 118.256 85.4846 115.722C86.9613 114.135 88.078 112.79 89.3563 111.13C90.2085 110.035 90.3628 109.874 91.597 109.007C94.8882 106.634 102.477 101.491 102.565 101.579Z" fill="url(#paint2_radial)"/>
<defs>
<filter id="filter0_d" x="7.96553" y="208.347" width="228.525" height="59.7489" filterUnits="userSpaceOnUse" color-interpolation-filters="sRGB">
<feFlood flood-opacity="0" result="BackgroundImageFix"/>
<feColorMatrix in="SourceAlpha" type="matrix" values="0 0 0 0 0 0 0 0 0 0 0 0 0 0 0 0 0 0 127 0"/>
<feOffset dy="3.40523"/>
<feGaussianBlur stdDeviation="3.40523"/>
<feColorMatrix type="matrix" values="0 0 0 0 0.0583333 0 0 0 0 0.0583333 0 0 0 0 0.0583333 0 0 0 0.5 0"/>
<feBlend mode="normal" in2="BackgroundImageFix" result="effect1_dropShadow"/>
<feBlend mode="normal" in="SourceGraphic" in2="effect1_dropShadow" result="shape"/>
</filter>
<filter id="filter1_d" x="0.842583" y="0.878249" width="221.724" height="221.724" filterUnits="userSpaceOnUse" color-interpolation-filters="sRGB">
<feFlood flood-opacity="0" result="BackgroundImageFix"/>
<feColorMatrix in="SourceAlpha" type="matrix" values="0 0 0 0 0 0 0 0 0 0 0 0 0 0 0 0 0 0 127 0"/>
<feOffset dy="6.829"/>
<feGaussianBlur stdDeviation="5.97538"/>
<feColorMatrix type="matrix" values="0 0 0 0 0.0583333 0 0 0 0 0.0583333 0 0 0 0 0.0583333 0 0 0 0.5 0"/>
<feBlend mode="normal" in2="BackgroundImageFix" result="effect1_dropShadow"/>
<feBlend mode="normal" in="SourceGraphic" in2="effect1_dropShadow" result="shape"/>
</filter>
<linearGradient id="paint0_linear" x1="76.2177" y1="164.231" x2="86.9246" y2="157.905" gradientUnits="userSpaceOnUse">
<stop stop-color="#909CA9"/>
<stop offset="1" stop-color="#EDEDEE"/>
</linearGradient>
<linearGradient id="paint1_linear" x1="76.4571" y1="44.9823" x2="85.0722" y2="44.9823" gradientUnits="userSpaceOnUse">
<stop stop-color="#939FAB"/>
<stop offset="1" stop-color="#DCDEE1"/>
</linearGradient>
<radialGradient id="paint2_radial" cx="0" cy="0" r="1" gradientUnits="userSpaceOnUse" gradientTransform="translate(119.933 84.4607) rotate(-171.457) scale(11.1072 22.2199)">
<stop stop-color="#EE352C"/>
<stop offset="1" stop-color="#A91D22"/>
</radialGradient>
</defs>
</svg>
