<svg width="72" height="72" viewBox="0 0 72 72" fill="none" xmlns="http://www.w3.org/2000/svg">
<path d="M35.4583 62H1.54167C0.690664 62 0 60.432 0 58.5C0 56.568 0.690664 55 1.54167 55H35.4583C36.3093 55 37 56.568 37 58.5C37 60.432 36.3093 62 35.4583 62Z" fill="#3F8D1A"/>
<path d="M55.5833 40H2.41667C1.08266 40 0 38.432 0 36.5C0 34.568 1.08266 33 2.41667 33H55.5833C56.9173 33 58 34.568 58 36.5C58 38.432 56.9173 40 55.5833 40Z" fill="#3F8D1A"/>
<path d="M69 18H3C1.34399 18 0 16.432 0 14.5C0 12.568 1.34399 11 3 11H69C70.656 11 72 12.568 72 14.5C72 16.432 70.656 18 69 18Z" fill="#3F8D1A"/>
</svg>
