<svg width="74" height="272" viewBox="0 0 74 272" fill="none" xmlns="http://www.w3.org/2000/svg">
<g clip-path="url(#clip0)" filter="url(#filter0_d)">
<path d="M36.9936 260.264C36.8551 260.264 36.7222 260.21 36.6242 260.112L25.1464 248.634C24.9462 248.427 24.952 248.096 25.1592 247.896C25.3614 247.701 25.6819 247.701 25.8841 247.896L36.9935 259.005L48.1019 247.895C48.3021 247.688 48.6323 247.682 48.8396 247.882C49.0469 248.083 49.0526 248.413 48.8524 248.62C48.8482 248.624 48.844 248.629 48.8396 248.633L37.3619 260.111C37.2643 260.209 37.1318 260.264 36.9936 260.264Z" fill="#8A8A8A"/>
</g>
<g filter="url(#filter1_d)">
<path d="M47.6375 211.056H48.3313C48.3313 204.813 43.3209 199.802 37.0771 199.802C30.8334 199.802 25.8229 204.813 25.8229 211.056V230.944C25.8229 237.188 30.8334 242.198 37.0771 242.198C43.3209 242.198 48.3313 237.188 48.3313 230.944V211.056H47.6375H46.9438V230.944C46.9438 233.719 45.8646 236.185 44.0146 237.958C42.2417 239.731 39.6979 240.888 37 240.888C34.225 240.888 31.7584 239.808 29.9854 237.958C28.2125 236.185 27.0563 233.642 27.0563 230.944V211.056C27.0563 208.281 28.1354 205.815 29.9854 204.042C31.7584 202.269 34.3021 201.113 37 201.113C39.775 201.113 42.2417 202.192 44.0146 204.042C45.7875 205.815 46.9438 208.358 46.9438 211.056H47.6375Z" fill="#8A8A8A"/>
<path d="M36.3063 206.431V211.75H37.6938V206.431" fill="#8A8A8A"/>
</g>
<g filter="url(#filter2_d)">
<path d="M45.344 177.088C45.344 175.744 45.128 174.64 44.696 173.776C44.24 172.888 43.484 172.444 42.428 172.444C41.924 172.444 41.492 172.528 41.132 172.696C40.772 172.84 40.448 173.092 40.16 173.452C39.872 173.812 39.596 174.292 39.332 174.892C39.068 175.468 38.756 176.188 38.396 177.052C38.108 177.748 37.82 178.408 37.532 179.032C37.22 179.656 36.872 180.208 36.488 180.688C36.08 181.168 35.6 181.552 35.048 181.84C34.496 182.128 33.824 182.272 33.032 182.272C31.52 182.272 30.296 181.708 29.36 180.58C28.424 179.428 27.956 177.856 27.956 175.864C27.956 174.592 28.064 173.548 28.28 172.732C28.496 171.892 28.688 171.304 28.856 170.968L30.944 171.508C30.8 171.796 30.608 172.288 30.368 172.984C30.128 173.656 30.008 174.652 30.008 175.972C30.008 176.5 30.068 177.004 30.188 177.484C30.284 177.94 30.452 178.348 30.692 178.708C30.908 179.068 31.196 179.356 31.556 179.572C31.892 179.788 32.312 179.896 32.816 179.896C33.32 179.896 33.752 179.8 34.112 179.608C34.472 179.416 34.796 179.14 35.084 178.78C35.348 178.396 35.6 177.94 35.84 177.412C36.08 176.86 36.344 176.236 36.632 175.54C36.92 174.82 37.22 174.136 37.532 173.488C37.82 172.816 38.18 172.228 38.612 171.724C39.02 171.22 39.524 170.812 40.124 170.5C40.7 170.188 41.432 170.032 42.32 170.032C44 170.032 45.272 170.668 46.136 171.94C47 173.188 47.432 174.904 47.432 177.088C47.432 178.72 47.288 179.968 47 180.832C46.736 181.696 46.532 182.272 46.388 182.56L44.264 181.948C44.312 181.876 44.396 181.72 44.516 181.48C44.612 181.24 44.732 180.916 44.876 180.508C44.996 180.1 45.104 179.62 45.2 179.068C45.296 178.492 45.344 177.832 45.344 177.088ZM47.396 157.802C47.396 159.242 47.168 160.514 46.712 161.618C46.256 162.722 45.608 163.646 44.768 164.39C43.904 165.11 42.884 165.662 41.708 166.046C40.508 166.43 39.188 166.622 37.748 166.622C36.284 166.622 34.952 166.43 33.752 166.046C32.552 165.638 31.52 165.062 30.656 164.318C29.792 163.574 29.132 162.674 28.676 161.618C28.196 160.562 27.956 159.374 27.956 158.054C27.956 157.046 28.04 156.11 28.208 155.246C28.376 154.358 28.592 153.674 28.856 153.194L30.872 153.806C30.632 154.286 30.44 154.826 30.296 155.426C30.152 156.026 30.08 156.83 30.08 157.838C30.08 159.902 30.752 161.474 32.096 162.554C33.416 163.61 35.3 164.138 37.748 164.138C38.852 164.138 39.872 164.018 40.808 163.778C41.72 163.538 42.512 163.154 43.184 162.626C43.832 162.074 44.348 161.378 44.732 160.538C45.092 159.674 45.272 158.63 45.272 157.406C45.272 156.398 45.164 155.558 44.948 154.886C44.708 154.19 44.504 153.686 44.336 153.374L46.352 152.87C46.592 153.302 46.82 153.986 47.036 154.922C47.276 155.834 47.396 156.794 47.396 157.802ZM28.028 142.611C28.028 141.843 28.088 141.123 28.208 140.451C28.328 139.755 28.448 139.275 28.568 139.011L30.584 139.479C30.488 139.671 30.392 140.067 30.296 140.667C30.176 141.243 30.116 142.011 30.116 142.971C30.116 143.979 30.188 144.795 30.332 145.419C30.476 146.019 30.596 146.415 30.692 146.607L47 146.607L47 148.947L29.252 148.947C28.988 148.347 28.724 147.519 28.46 146.463C28.172 145.407 28.028 144.123 28.028 142.611ZM37.712 119.606C39.176 119.606 40.508 119.822 41.708 120.254C42.908 120.662 43.928 121.25 44.768 122.018C45.608 122.762 46.268 123.65 46.748 124.682C47.204 125.714 47.432 126.854 47.432 128.102C47.432 129.35 47.204 130.49 46.748 131.522C46.268 132.554 45.608 133.454 44.768 134.222C43.928 134.966 42.908 135.554 41.708 135.986C40.508 136.394 39.176 136.598 37.712 136.598C36.248 136.598 34.916 136.394 33.716 135.986C32.516 135.554 31.496 134.966 30.656 134.222C29.792 133.454 29.132 132.554 28.676 131.522C28.196 130.49 27.956 129.35 27.956 128.102C27.956 126.854 28.196 125.714 28.676 124.682C29.132 123.65 29.792 122.762 30.656 122.018C31.496 121.25 32.516 120.662 33.716 120.254C34.916 119.822 36.248 119.606 37.712 119.606ZM37.712 122.09C35.384 122.09 33.536 122.63 32.168 123.71C30.776 124.79 30.08 126.254 30.08 128.102C30.08 129.95 30.776 131.414 32.168 132.494C33.536 133.574 35.384 134.114 37.712 134.114C40.04 134.114 41.888 133.574 43.256 132.494C44.624 131.414 45.308 129.95 45.308 128.102C45.308 126.254 44.624 124.79 43.256 123.71C41.888 122.63 40.04 122.09 37.712 122.09ZM47.324 109.813C47.3 110.605 47.192 111.301 47 111.901C46.832 112.477 46.568 112.969 46.208 113.377C45.824 113.761 45.344 114.061 44.768 114.277C44.168 114.469 43.424 114.565 42.536 114.565L19.496 114.565L19.064 112.225L42.464 112.225C43.04 112.225 43.508 112.177 43.868 112.081C44.204 111.961 44.48 111.793 44.696 111.577C44.888 111.361 45.032 111.085 45.128 110.749C45.224 110.389 45.308 109.969 45.38 109.489L47.324 109.813ZM47.324 100.637C47.3 101.429 47.192 102.125 47 102.725C46.832 103.301 46.568 103.793 46.208 104.201C45.824 104.585 45.344 104.885 44.768 105.101C44.168 105.293 43.424 105.389 42.536 105.389L19.496 105.389L19.064 103.049L42.464 103.049C43.04 103.049 43.508 103.001 43.868 102.905C44.204 102.785 44.48 102.617 44.696 102.401C44.888 102.185 45.032 101.909 45.128 101.573C45.224 101.213 45.308 100.793 45.38 100.313L47.324 100.637ZM46.424 73.19C46.664 73.886 46.892 74.774 47.108 75.854C47.324 76.934 47.432 78.302 47.432 79.958C47.432 81.326 47.216 82.574 46.784 83.702C46.328 84.806 45.68 85.766 44.84 86.582C44 87.374 42.98 87.998 41.78 88.454C40.58 88.886 39.224 89.102 37.712 89.102C36.296 89.102 35 88.922 33.824 88.562C32.624 88.178 31.592 87.626 30.728 86.906C29.864 86.186 29.192 85.31 28.712 84.278C28.232 83.222 27.992 82.022 27.992 80.678C27.992 79.454 28.172 78.398 28.532 77.51C28.868 76.598 29.192 75.938 29.504 75.53L19.496 75.53L19.064 73.19L46.424 73.19ZM31.772 75.53C31.604 75.746 31.424 76.022 31.232 76.358C31.04 76.67 30.86 77.042 30.692 77.474C30.524 77.906 30.392 78.374 30.296 78.878C30.176 79.382 30.116 79.91 30.116 80.462C30.116 81.614 30.32 82.586 30.728 83.378C31.136 84.146 31.688 84.77 32.384 85.25C33.056 85.73 33.86 86.078 34.796 86.294C35.708 86.51 36.68 86.618 37.712 86.618C40.16 86.618 42.044 86.006 43.364 84.782C44.66 83.558 45.308 81.938 45.308 79.922C45.308 78.77 45.26 77.846 45.164 77.15C45.044 76.43 44.924 75.89 44.804 75.53L31.772 75.53ZM37.712 51.1217C39.176 51.1217 40.508 51.3378 41.708 51.7698C42.908 52.1777 43.928 52.7657 44.768 53.5338C45.608 54.2777 46.268 55.1657 46.748 56.1978C47.204 57.2297 47.432 58.3697 47.432 59.6178C47.432 60.8658 47.204 62.0058 46.748 63.0378C46.268 64.0697 45.608 64.9698 44.768 65.7378C43.928 66.4818 42.908 67.0698 41.708 67.5018C40.508 67.9098 39.176 68.1138 37.712 68.1138C36.248 68.1138 34.916 67.9098 33.716 67.5018C32.516 67.0698 31.496 66.4818 30.656 65.7377C29.792 64.9697 29.132 64.0697 28.676 63.0377C28.196 62.0057 27.956 60.8657 27.956 59.6177C27.956 58.3697 28.196 57.2297 28.676 56.1977C29.132 55.1657 29.792 54.2777 30.656 53.5337C31.496 52.7657 32.516 52.1777 33.716 51.7698C34.916 51.3377 36.248 51.1217 37.712 51.1217ZM37.712 53.6057C35.384 53.6057 33.536 54.1457 32.168 55.2257C30.776 56.3057 30.08 57.7697 30.08 59.6177C30.08 61.4657 30.776 62.9297 32.168 64.0097C33.536 65.0897 35.384 65.6298 37.712 65.6298C40.04 65.6298 41.888 65.0898 43.256 64.0097C44.624 62.9297 45.308 61.4657 45.308 59.6178C45.308 57.7697 44.624 56.3057 43.256 55.2257C41.888 54.1457 40.04 53.6057 37.712 53.6057ZM28.388 34.0566C29.588 33.8406 30.872 33.5646 32.24 33.2286C33.584 32.8686 34.964 32.4846 36.38 32.0766C37.772 31.6446 39.152 31.2006 40.52 30.7446C41.888 30.2646 43.172 29.7846 44.372 29.3046C43.46 28.8966 42.356 28.4646 41.06 28.0086C39.74 27.5526 38.36 27.0966 36.92 26.6406C35.456 26.1846 33.992 25.7646 32.528 25.3806C31.04 24.9726 29.66 24.6366 28.388 24.3726L28.388 22.0686C32.036 22.9326 35.372 23.8806 38.396 24.9126C41.42 25.9206 44.288 27.0366 47 28.2606L47 30.4566C46.16 30.8166 45.224 31.2006 44.192 31.6086C43.136 31.9926 42.02 32.4006 40.844 32.8326C39.644 33.2406 38.396 33.6486 37.1 34.0566C35.78 34.4406 34.436 34.8126 33.068 35.1726C34.436 35.5326 35.78 35.9166 37.1 36.3246C38.396 36.7086 39.644 37.1166 40.844 37.5486C42.02 37.9566 43.136 38.3646 44.192 38.7726C45.224 39.1566 46.16 39.5286 47 39.8886L47 42.1206C44.288 43.3446 41.42 44.4726 38.396 45.5046C35.372 46.5126 32.036 47.4486 28.388 48.3126L28.388 45.8286C29.66 45.5646 31.04 45.2406 32.528 44.8566C33.992 44.4486 35.456 44.0166 36.92 43.5606C38.36 43.1046 39.728 42.6486 41.024 42.1926C42.32 41.7126 43.424 41.2686 44.336 40.8606C43.136 40.4046 41.852 39.9486 40.484 39.4926C39.116 39.0126 37.736 38.5686 36.344 38.1606C34.952 37.7526 33.584 37.3686 32.24 37.0086C30.872 36.6486 29.588 36.3366 28.388 36.0726L28.388 34.0566ZM29.036 18.1306C28.844 17.4346 28.628 16.4986 28.388 15.3226C28.148 14.1466 28.028 12.7066 28.028 11.0026C28.028 9.58656 28.232 8.41056 28.64 7.47456C29.048 6.51456 29.636 5.75856 30.404 5.20656C31.148 4.63056 32.048 4.22256 33.104 3.98256C34.16 3.74256 35.324 3.62256 36.596 3.62256L47 3.62256L47 5.96256L37.352 5.96256C36.032 5.96256 34.916 6.05856 34.004 6.25056C33.092 6.41856 32.348 6.71856 31.772 7.15056C31.196 7.55856 30.788 8.11056 30.548 8.80656C30.284 9.47856 30.152 10.3306 30.152 11.3626C30.152 12.4666 30.212 13.4266 30.332 14.2426C30.452 15.0346 30.56 15.5506 30.656 15.7906L47 15.7906L47 18.1306L29.036 18.1306Z" fill="#8A8A8A"/>
</g>
<defs>
<filter id="filter0_d" x="18" y="239" width="38" height="38" filterUnits="userSpaceOnUse" color-interpolation-filters="sRGB">
<feFlood flood-opacity="0" result="BackgroundImageFix"/>
<feColorMatrix in="SourceAlpha" type="matrix" values="0 0 0 0 0 0 0 0 0 0 0 0 0 0 0 0 0 0 127 0"/>
<feOffset dy="4"/>
<feGaussianBlur stdDeviation="3.5"/>
<feColorMatrix type="matrix" values="0 0 0 0 0.0583333 0 0 0 0 0.0583333 0 0 0 0 0.0583333 0 0 0 0.5 0"/>
<feBlend mode="normal" in2="BackgroundImageFix" result="effect1_dropShadow"/>
<feBlend mode="normal" in="SourceGraphic" in2="effect1_dropShadow" result="shape"/>
</filter>
<filter id="filter1_d" x="-7" y="181" width="88" height="88" filterUnits="userSpaceOnUse" color-interpolation-filters="sRGB">
<feFlood flood-opacity="0" result="BackgroundImageFix"/>
<feColorMatrix in="SourceAlpha" type="matrix" values="0 0 0 0 0 0 0 0 0 0 0 0 0 0 0 0 0 0 127 0"/>
<feOffset dy="4"/>
<feGaussianBlur stdDeviation="3.5"/>
<feColorMatrix type="matrix" values="0 0 0 0 0.0583333 0 0 0 0 0.0583333 0 0 0 0 0.0583333 0 0 0 0.5 0"/>
<feBlend mode="normal" in2="BackgroundImageFix" result="effect1_dropShadow"/>
<feBlend mode="normal" in="SourceGraphic" in2="effect1_dropShadow" result="shape"/>
</filter>
<filter id="filter2_d" x="12.064" y="0.622559" width="42.368" height="192.937" filterUnits="userSpaceOnUse" color-interpolation-filters="sRGB">
<feFlood flood-opacity="0" result="BackgroundImageFix"/>
<feColorMatrix in="SourceAlpha" type="matrix" values="0 0 0 0 0 0 0 0 0 0 0 0 0 0 0 0 0 0 127 0"/>
<feOffset dy="4"/>
<feGaussianBlur stdDeviation="3.5"/>
<feColorMatrix type="matrix" values="0 0 0 0 0.0583333 0 0 0 0 0.0583333 0 0 0 0 0.0583333 0 0 0 0.5 0"/>
<feBlend mode="normal" in2="BackgroundImageFix" result="effect1_dropShadow"/>
<feBlend mode="normal" in="SourceGraphic" in2="effect1_dropShadow" result="shape"/>
</filter>
<clipPath id="clip0">
<rect width="24" height="24" fill="white" transform="translate(25 242)"/>
</clipPath>
</defs>
</svg>
